<svg xmlns="http://www.w3.org/2000/svg" xmlns:xlink="http://www.w3.org/1999/xlink" width="36" height="36" viewBox="0 0 36 36">
  <defs>
    <clipPath id="clip-Meal_checkin">
      <rect width="36" height="36"/>
    </clipPath>
  </defs>
  <g id="Meal_checkin" data-name="Meal checkin" clip-path="url(#clip-Meal_checkin)">
    <path id="Path_4" data-name="Path 4" d="M84.249,693.359l-3.572-.9a.811.811,0,0,1-.614-.748,3.19,3.19,0,0,0-2.313-2.941l-.032-.009-1.522-.434-7.34-2.09a.564.564,0,0,0-.7.388l0,.01a.563.563,0,0,0,.388.7l6.81,1.941a.548.548,0,0,1,.378.679l0,.012a.549.549,0,0,1-.68.378L68.242,688.4a.562.562,0,0,0-.7.388l0,.01a.563.563,0,0,0,.388.7l6.81,1.941a.551.551,0,0,1,.379.68l0,.01a.55.55,0,0,1-.679.379l-6.81-1.941a.563.563,0,0,0-.7.388l0,.012a.564.564,0,0,0,.386.7l6.81,1.939a.551.551,0,0,1,.379.68l0,.01a.552.552,0,0,1-.68.379l-6.81-1.941a.563.563,0,0,0-.7.388l0,.012a.564.564,0,0,0,.386.7l7.34,2.09,1.524.434.03.009a3.189,3.189,0,0,0,3.515-1.281.808.808,0,0,1,.915-.311l3.881,1.232,2.767.878,11.383,3.614a1.747,1.747,0,0,0,2.159-1.2l.01-.035a1.747,1.747,0,0,0-1.2-2.158l-12.137-3.068Z" transform="translate(-65.288 -675.214)" fill="#f87f0b"/>
  </g>
</svg>
