<svg xmlns="http://www.w3.org/2000/svg" xmlns:xlink="http://www.w3.org/1999/xlink" width="25" height="25" viewBox="0 0 25 25">
  <defs>
    <clipPath id="clip-path">
      <rect id="Rectangle_248" data-name="Rectangle 248" width="25" height="25" transform="translate(41 143)" fill="#fff" stroke="#707070" stroke-width="1"/>
    </clipPath>
  </defs>
  <g id="alarm14" transform="translate(-41 -143)" clip-path="url(#clip-path)">
    <g id="alarm" transform="translate(43 145)">
      <g id="access-alarms" transform="translate(0)">
        <path id="Path_191" data-name="Path 191" d="M23.342,4.054,18.56,0,17.209,1.559l4.782,4.054ZM8.684,1.663,7.332.1,2.55,4.054,3.9,5.614Zm4.262.624a9.356,9.356,0,1,0,0,18.713,9.524,9.524,0,0,0,6.334-2.448A9.16,9.16,0,0,0,22.3,11.644,9.318,9.318,0,0,0,12.946,2.287Z" transform="translate(-2.55)" fill="#1975b8"/>
      </g>
      <text id="_14" data-name="14" transform="translate(5 15)" fill="#fff" font-size="9" font-family="Arial-BoldMT, Arial" font-weight="700"><tspan x="0" y="0">14</tspan></text>
    </g>
  </g>
</svg>
