<svg xmlns="http://www.w3.org/2000/svg" width="29.822" height="26.697" viewBox="0 0 29.822 26.697">
  <g id="Group_39" data-name="Group 39" transform="translate(-3.705 -340.075)">
    <path id="Path_38" data-name="Path 38" d="M31.821,365.43H5.462l12.866-24.28Z" fill="#1975b8"/>
    <path id="Path_39" data-name="Path 39" d="M32.823,361.843,21.4,342.058a3.39,3.39,0,0,0-2.817-1.983,3.389,3.389,0,0,0-2.817,1.983L4.341,361.843a3.394,3.394,0,0,0-.308,3.432,3.394,3.394,0,0,0,3.126,1.449H30a2.994,2.994,0,0,0,2.818-4.881ZM30,364.035H7.159a1.95,1.95,0,0,1-.768-.121,1.951,1.951,0,0,1,.279-.726L18.094,343.4a1.966,1.966,0,0,1,.487-.605,1.935,1.935,0,0,1,.489.605l11.424,19.785a1.978,1.978,0,0,1,.28.725A1.942,1.942,0,0,1,30,364.035Z" fill="#1975b8"/>
    <g id="Group_37" data-name="Group 37">
      <path id="Path_40" data-name="Path 40" d="M18.582,359.551a1.635,1.635,0,1,0,1.636,1.636,1.635,1.635,0,0,0-1.636-1.636Z" fill="#e82727"/>
      <path id="Path_41" data-name="Path 41" d="M17.088,358.316h2.988l.723-6.937a2.229,2.229,0,0,0-2.217-2.46h0a2.229,2.229,0,0,0-2.217,2.46Z" fill="#e82727"/>
    </g>
    <g id="Group_38" data-name="Group 38">
      <path id="Path_42" data-name="Path 42" d="M18.582,359.551a1.635,1.635,0,1,0,1.636,1.636,1.635,1.635,0,0,0-1.636-1.636Z" fill="#fff"/>
      <path id="Path_43" data-name="Path 43" d="M17.088,358.316h2.988l.723-6.937a2.229,2.229,0,0,0-2.217-2.46h0a2.229,2.229,0,0,0-2.217,2.46Z" fill="#fff"/>
    </g>
  </g>
</svg>
