<svg xmlns="http://www.w3.org/2000/svg" xmlns:xlink="http://www.w3.org/1999/xlink" width="36" height="36" viewBox="0 0 36 36">
  <defs>
    <clipPath id="clip-Artboard_7">
      <rect width="36" height="36"/>
    </clipPath>
  </defs>
  <g id="Artboard_7" data-name="Artboard 7" clip-path="url(#clip-Artboard_7)">
    <g id="Group_72" data-name="Group 72" transform="translate(-0.602 -112)">
      <g id="Group_64" data-name="Group 64">
        <path id="Path_65" data-name="Path 65" d="M18.636,133.542A10.766,10.766,0,0,1,29.4,144.308v.135l-21.53.016s0-.1,0-.151A10.766,10.766,0,0,1,18.636,133.542Z" fill="#f87f0b"/>
        <path id="Path_66" data-name="Path 66" d="M29.766,144.308l0,.5-22.25.016,0-.36s0-.1,0-.155a11.13,11.13,0,1,1,22.259,0ZM8.237,144.1l20.8-.015a10.4,10.4,0,0,0-20.8.015Z" fill="#f87f0b"/>
      </g>
      <g id="Group_65" data-name="Group 65">
        <path id="Path_67" data-name="Path 67" d="M5.688,144.058a.364.364,0,0,1-.364.364H2.4a.364.364,0,0,1,0-.728H5.324A.364.364,0,0,1,5.688,144.058Z" fill="#f87f0b"/>
        <path id="Path_68" data-name="Path 68" d="M6.089,144.058a.766.766,0,0,1-.765.765H2.4a.765.765,0,1,1,0-1.531H5.324A.766.766,0,0,1,6.089,144.058Z" fill="#f87f0b"/>
      </g>
      <g id="Group_66" data-name="Group 66">
        <path id="Path_69" data-name="Path 69" d="M7.511,137.116a.368.368,0,0,1-.052.188.364.364,0,0,1-.5.124l-2.512-1.514a.364.364,0,1,1,.376-.623L7.335,136.8A.366.366,0,0,1,7.511,137.116Z" fill="#f87f0b"/>
        <path id="Path_70" data-name="Path 70" d="M7.913,137.116a.766.766,0,0,1-1.16.656l-2.512-1.514a.765.765,0,0,1,.789-1.312l2.512,1.515A.767.767,0,0,1,7.913,137.116Z" fill="#f87f0b"/>
      </g>
      <g id="Group_67" data-name="Group 67">
        <path id="Path_71" data-name="Path 71" d="M11.984,132.85a.364.364,0,0,1-.674.19L9.8,130.562a.364.364,0,1,1,.621-.379l1.513,2.477A.356.356,0,0,1,11.984,132.85Z" fill="#f87f0b"/>
        <path id="Path_72" data-name="Path 72" d="M12.386,132.85a.769.769,0,0,1-.367.653.765.765,0,0,1-1.052-.254l-1.514-2.477a.741.741,0,0,1-.091-.579.766.766,0,0,1,1.4-.22l1.514,2.478A.765.765,0,0,1,12.386,132.85Z" fill="#f87f0b"/>
      </g>
      <g id="Group_68" data-name="Group 68">
        <path id="Path_73" data-name="Path 73" d="M18.849,128.412v2.89a.364.364,0,1,1-.727,0v-2.89a.364.364,0,1,1,.727,0Z" fill="#f87f0b"/>
        <path id="Path_74" data-name="Path 74" d="M19.251,128.412v2.89a.766.766,0,0,1-1.531,0v-2.89a.766.766,0,1,1,1.531,0Zm-.8,0v0Z" fill="#f87f0b"/>
      </g>
      <g id="Group_69" data-name="Group 69">
        <path id="Path_75" data-name="Path 75" d="M27.022,130.339a.363.363,0,0,1-.038.162l-1.273,2.546a.364.364,0,1,1-.651-.325l1.273-2.546a.364.364,0,0,1,.689.163Z" fill="#f87f0b"/>
        <path id="Path_76" data-name="Path 76" d="M27.424,130.339a.761.761,0,0,1-.08.339l-1.274,2.548a.765.765,0,1,1-1.369-.684L25.974,130a.765.765,0,0,1,1.45.343Z" fill="#f87f0b"/>
      </g>
      <g id="Group_70" data-name="Group 70">
        <path id="Path_77" data-name="Path 77" d="M32.6,135.533a.364.364,0,0,1-.159.3l-2.374,1.617a.364.364,0,1,1-.41-.6l2.374-1.617a.364.364,0,0,1,.569.3Z" fill="#f87f0b"/>
        <path id="Path_78" data-name="Path 78" d="M33,135.534a.763.763,0,0,1-.336.633l-2.372,1.616a.767.767,0,0,1-1.064-.2.739.739,0,0,1-.119-.573.757.757,0,0,1,.322-.491L31.8,134.9a.765.765,0,0,1,1.2.633Z" fill="#f87f0b"/>
      </g>
      <g id="Group_71" data-name="Group 71">
        <path id="Path_79" data-name="Path 79" d="M35.194,144.058a.364.364,0,0,1-.364.364H31.871a.364.364,0,1,1,0-.728H34.83A.364.364,0,0,1,35.194,144.058Z" fill="#f87f0b"/>
        <path id="Path_80" data-name="Path 80" d="M35.6,144.058a.766.766,0,0,1-.765.765H31.871a.765.765,0,1,1,0-1.531H34.83A.766.766,0,0,1,35.6,144.058Z" fill="#f87f0b"/>
      </g>
    </g>
  </g>
</svg>
