<svg xmlns="http://www.w3.org/2000/svg" width="431.9" height="447.599" viewBox="0 0 431.9 447.599">
  <g id="announcement" transform="translate(270.062 308.012)">
    <path id="Path_2537" data-name="Path 2537" d="M195.432,328.131c8.249,27.853,16.367,55.936,24.945,83.871,3.4,11.059,2.892,21.1-4.913,30.039-14.543,16.679-40.8,11.5-47.9-9.876-6.244-18.832-11.371-38.008-17.024-57.037-4.338-14.625-8.923-29.2-13-43.891-1.232-4.453-3.106-5.981-7.855-6.1-24.961-.592-49.938-1.594-74.9-2.514-18.9-.707-32.914-9.777-40.309-26.8C6.507,277.519.789,258.441,8.019,238.114c4.7-13.245,13.162-23.285,24.567-31.3Q165.516,113.342,298.348,19.693c4.8-3.369,9.81-6.474,14.378-10.122,8.693-6.935,18.01-6.935,25.963-.329a121.352,121.352,0,0,1,22.365,23.712C381.217,62.105,393.706,95,404.8,128.377c13.557,40.851,24.945,82.31,29.94,125.2,2.218,19.012,3.451,38.107-2.153,56.84-4.979,16.663-13.869,23.433-31.353,22.94-57.366-1.594-114.715-3.517-172.065-5.176C218.24,327.868,207.279,328.131,195.432,328.131Zm217.944-57.924-.789-.131c-.066-1.528-.1-3.056-.214-4.585C407.443,199.415,389.138,137,359.526,77.946c-5.735-11.453-13.672-22.1-22.1-31.83-8.709-10.073-17.977-7.329-20.557,5.7a117.012,117.012,0,0,0-1.873,27.327c1.331,31.435,7.97,62.033,16.547,92.186,10.96,38.5,23.991,76.247,45.633,110.344a90.058,90.058,0,0,0,14.083,16.991c7.559,7.181,15.036,5.373,17.977-4.519C411.535,286.441,412.061,278.209,413.376,270.206Z" transform="translate(-274.768 -312.34)" fill="#fff"/>
  </g>
</svg>
