<svg xmlns="http://www.w3.org/2000/svg" xmlns:xlink="http://www.w3.org/1999/xlink" width="60" height="60" viewBox="0 0 60 60">
  <defs>
    <clipPath id="clip-B-12">
      <rect width="60" height="60"/>
    </clipPath>
  </defs>
  <g id="B-12" clip-path="url(#clip-B-12)">
    <path id="Path_187" data-name="Path 187" d="M46.733.33a1.127,1.127,0,0,0-1.593,0L38.389,7.081l-.794-.794a4.826,4.826,0,0,0-6.825,0L8.405,28.661,7.058,27.314a1.75,1.75,0,0,0-2.473,0l-.03.03a1.752,1.752,0,0,0,0,2.474l2.606,2.6L3.478,36.106l-.1-.1a1.761,1.761,0,0,0-2.494,0l-.025.025a1.763,1.763,0,0,0,0,2.491L8.7,46.359a1.761,1.761,0,0,0,2.49,0l.028-.028a1.763,1.763,0,0,0,0-2.491l-.105-.105,3.683-3.685,2.6,2.6a1.75,1.75,0,0,0,2.474,0l.028-.028a1.752,1.752,0,0,0,0-2.474l-1.371-1.37L40.887,16.4a4.832,4.832,0,0,0,0-6.825l-.9-.9,6.751-6.751A1.126,1.126,0,0,0,46.733.33Zm-7.44,14.479L27.6,26.5,26.43,25.329l9.8-9.8a1.127,1.127,0,0,0,0-1.593,1.113,1.113,0,0,0-.108-.089,1.1,1.1,0,0,0-.089-.109l-2.268-2.268a1.127,1.127,0,1,0-1.593,1.593l1.669,1.669-1.11,1.11-1.67-1.669a1.127,1.127,0,1,0-1.593,1.593l1.669,1.669-1.11,1.11-1.669-1.669a1.127,1.127,0,0,0-1.593,1.593l1.669,1.669-1.11,1.11L25.654,19.58a1.127,1.127,0,1,0-1.593,1.593l1.669,1.669-.893.893-4.162-4.161L32.363,7.881A2.573,2.573,0,0,1,36,7.88l3.291,3.29A2.577,2.577,0,0,1,39.293,14.809Z" transform="translate(6.656 7)" fill="#0096d8"/>
  </g>
</svg>
