<svg xmlns="http://www.w3.org/2000/svg" xmlns:xlink="http://www.w3.org/1999/xlink" width="36" height="36" viewBox="0 0 36 36">
  <defs>
    <clipPath id="clip-Artboard_1">
      <rect width="36" height="36"/>
    </clipPath>
  </defs>
  <g id="Artboard_1" data-name="Artboard 1" clip-path="url(#clip-Artboard_1)">
    <g id="Group_85" data-name="Group 85" transform="translate(-0.602)">
      <path id="Path_91" data-name="Path 91" d="M14.625,22.589s-3.649,4.715,0,4.715S14.642,23.053,14.625,22.589Z" fill="#0097d9"/>
      <path id="Path_92" data-name="Path 92" d="M14.611,26.963s-.154-.158.4-.624.612-.444.552-.677.2-.233.231,0,.311,1.027-.4,1.282S14.611,26.963,14.611,26.963Z" fill="#0097d9"/>
      <path id="Path_93" data-name="Path 93" d="M21.572,22.589s-3.65,4.715,0,4.715S21.588,23.053,21.572,22.589Z" fill="#0097d9"/>
      <path id="Path_94" data-name="Path 94" d="M21.557,26.963s-.154-.158.4-.624.612-.444.551-.677.2-.233.231,0,.311,1.027-.4,1.282S21.557,26.963,21.557,26.963Z" fill="#0097d9"/>
      <path id="Path_95" data-name="Path 95" d="M25.375,27.334s-3.648,4.716,0,4.716S25.392,27.8,25.375,27.334Z" fill="#0097d9"/>
      <path id="Path_96" data-name="Path 96" d="M25.361,31.709s-.153-.158.4-.624.611-.445.551-.678.2-.233.231,0,.311,1.027-.4,1.282S25.361,31.709,25.361,31.709Z" fill="#0097d9"/>
      <path id="Path_97" data-name="Path 97" d="M18.1,27.334s-3.65,4.716,0,4.716S18.115,27.8,18.1,27.334Z" fill="#0097d9"/>
      <path id="Path_98" data-name="Path 98" d="M18.084,31.709s-.154-.158.4-.624.611-.445.552-.678.2-.233.23,0,.311,1.027-.4,1.282S18.084,31.709,18.084,31.709Z" fill="#0097d9"/>
      <path id="Path_99" data-name="Path 99" d="M11.483,27.334s-3.649,4.716,0,4.716S11.5,27.8,11.483,27.334Z" fill="#0097d9"/>
      <path id="Path_100" data-name="Path 100" d="M11.469,31.709s-.154-.158.4-.624.612-.445.551-.678.2-.233.231,0,.311,1.027-.4,1.282S11.469,31.709,11.469,31.709Z" fill="#0097d9"/>
      <g id="Group_84" data-name="Group 84">
        <path id="Path_101" data-name="Path 101" d="M7.458,19.688A2.2,2.2,0,0,0,9.737,21.8h17.6a2.2,2.2,0,0,0,2.28-2.116v-.235H7.458Z" fill="#0064af"/>
        <path id="Path_102" data-name="Path 102" d="M16.972,6.605v4.772c-5.378.512-9.515,3.614-9.515,7.368H29.62c0-3.674-3.964-6.724-9.175-7.331V6.605C20.382,3.967,16.972,4.006,16.972,6.605Z" fill="#0064af"/>
      </g>
    </g>
  </g>
</svg>
