<svg xmlns="http://www.w3.org/2000/svg" width="291.318" height="190.212" viewBox="0 0 291.318 190.212">
  <g id="Group_136" data-name="Group 136" transform="translate(-2.841 -106.788)">
    <path id="Path_193" data-name="Path 193" d="M199.168,106.788a94.331,94.331,0,0,0-50.669,14.7,95.1,95.1,0,1,0,0,160.819,95.054,95.054,0,1,0,50.669-175.517ZM139.973,201.9a59.047,59.047,0,0,1,8.526-30.638,59.307,59.307,0,0,1,0,61.277A59.053,59.053,0,0,1,139.973,201.9Zm-101.341,0a59.155,59.155,0,0,1,82.691-54.432,94.993,94.993,0,0,0,0,108.865A59.155,59.155,0,0,1,38.632,201.9ZM199.168,261.21a58.746,58.746,0,0,1-23.492-4.884,94.993,94.993,0,0,0,0-108.865A59.283,59.283,0,1,1,199.168,261.21Z" fill="#0064af"/>
  </g>
</svg>
