<svg xmlns="http://www.w3.org/2000/svg" xmlns:xlink="http://www.w3.org/1999/xlink" width="36" height="36" viewBox="0 0 36 36">
  <defs>
    <clipPath id="clip-dispensing_medication_1">
      <rect width="36" height="36"/>
    </clipPath>
  </defs>
  <g id="dispensing_medication_1" data-name="dispensing medication – 1" clip-path="url(#clip-dispensing_medication_1)">
    <g id="Group_127" data-name="Group 127" transform="translate(1 1.398)">
      <path id="Path_166" data-name="Path 166" d="M-79.5,323.747a.588.588,0,0,0-.216-.909,2.683,2.683,0,0,0-2.615.363c-4.019,3.465-8.2,5.561-14.441,3.766,1.92-.261,3.841-1,5.761-1.258a2.559,2.559,0,0,0,2.151-1.069,1.607,1.607,0,0,0-.035-1.355c-.579-1.035-1.952-1.063-3.09-1.049l-4.465.053a11,11,0,0,1-1.779-.076c-.648-.1-1.271-.312-1.911-.455a8.94,8.94,0,0,0-7.147,1.507,3.262,3.262,0,0,1-.792.493,2.783,2.783,0,0,1-.922.112c-.638,0-2.136.039-2.832.056a.374.374,0,0,0-.365.377l.025,7.027c0,.23.182.478.407.433,5.007-1,9.623.171,16.551,1.083a8.715,8.715,0,0,0,4.279-.8A39.75,39.75,0,0,0-85.67,329.7a18.2,18.2,0,0,0,4.235-3.575C-80.862,325.511-80.117,324.518-79.5,323.747Z" transform="translate(113.201 -305.544)" fill="#0096d8"/>
      <path id="Path_167" data-name="Path 167" d="M-91.58,317.593a3.111,3.111,0,0,0,.289-2.379,3.115,3.115,0,0,0-1.478-1.888l-4.495-2.536a3.136,3.136,0,0,0-4.266,1.188,3.111,3.111,0,0,0-.289,2.379,3.107,3.107,0,0,0,1.478,1.887l4.495,2.537A3.136,3.136,0,0,0-91.58,317.593Zm-3.724.228-1.768-1,1.994-3.536,1.768,1a2.014,2.014,0,0,1,.958,1.223,2.022,2.022,0,0,1-.187,1.542,2.019,2.019,0,0,1-1.223.958A2.017,2.017,0,0,1-95.3,317.821Z" transform="translate(112.503 -304.785)" fill="#0096d8"/>
      <path id="Subtraction_4" data-name="Subtraction 4" d="M3.481,6.955a3.474,3.474,0,0,1-1.8-.5L6.455,1.674A3.478,3.478,0,0,1,3.481,6.955ZM.639,5.483h0A3.479,3.479,0,0,1,5.486.636L.64,5.482Z" transform="translate(22.941 8.346)" fill="#0096d8" stroke="rgba(0,0,0,0)" stroke-width="1"/>
    </g>
  </g>
</svg>
