<svg xmlns="http://www.w3.org/2000/svg" width="28" height="28" viewBox="0 0 28 28">
  <g id="editpic" transform="translate(-315 -265)">
    <g id="Path_1090" data-name="Path 1090" transform="translate(315 265)" fill="#fff">
      <path d="M 14 27.5 C 10.39402008056641 27.5 7.003870010375977 26.09576034545898 4.454060077667236 23.54594039916992 C 1.904240012168884 20.99612998962402 0.5 17.60597991943359 0.5 14 C 0.5 10.39402008056641 1.904240012168884 7.003870010375977 4.454060077667236 4.454060077667236 C 7.003870010375977 1.904240012168884 10.39402008056641 0.5 14 0.5 C 17.60597991943359 0.5 20.99612998962402 1.904240012168884 23.54594039916992 4.454060077667236 C 26.09576034545898 7.003870010375977 27.5 10.39402008056641 27.5 14 C 27.5 17.60597991943359 26.09576034545898 20.99612998962402 23.54594039916992 23.54594039916992 C 20.99612998962402 26.09576034545898 17.60597991943359 27.5 14 27.5 Z" stroke="none"/>
      <path d="M 14 1 C 10.5275707244873 1 7.262990951538086 2.352239608764648 4.807609558105469 4.807609558105469 C 2.352239608764648 7.262990951538086 1 10.5275707244873 1 14 C 1 17.47241973876953 2.352239608764648 20.73701095581055 4.807609558105469 23.19239044189453 C 7.262990951538086 25.64776039123535 10.5275707244873 27 14 27 C 17.47241973876953 27 20.73701095581055 25.64776039123535 23.19239044189453 23.19239044189453 C 25.64776039123535 20.73701095581055 27 17.47241973876953 27 14 C 27 10.5275707244873 25.64776039123535 7.262990951538086 23.19239044189453 4.807609558105469 C 20.73701095581055 2.352239608764648 17.47241973876953 1 14 1 M 14 0 C 21.73197937011719 0 28 6.268009185791016 28 14 C 28 21.73197937011719 21.73197937011719 28 14 28 C 6.268009185791016 28 0 21.73197937011719 0 14 C 0 6.268009185791016 6.268009185791016 0 14 0 Z" stroke="none" fill="#e5e5e5"/>
    </g>
    <g id="tools-and-utensils" transform="translate(321.333 269.184)">
      <g id="Group_402" data-name="Group 402" transform="translate(0 3.816)">
        <path id="Path_1083" data-name="Path 1083" d="M17.8,9.941l-2-2-4.332,4.331-1.162,3.505,3.472-1.195,4.331-4.332L17.8,9.941ZM11,15.086l.641-2.048,1.386,1.388Z" transform="translate(-1.632 -4.469)" fill="#1975b8"/>
        <path id="Path_1084" data-name="Path 1084" d="M20.412,8.579,18.345,6.51a.172.172,0,0,0-.242,0l-.824.825a.171.171,0,0,0,0,.242l2.068,2.068a.172.172,0,0,0,.242,0l.823-.825A.17.17,0,0,0,20.412,8.579Z" transform="translate(-2.726 -4.234)" fill="#1975b8"/>
        <path id="Path_1085" data-name="Path 1085" d="M1.186,11.963V4.992H11.833V8.108l.97-.97V4.074a.259.259,0,0,0-.26-.258H.26A.259.259,0,0,0,0,4.074V14.7a.259.259,0,0,0,.26.258H7.972l1-3Z" transform="translate(0 -3.816)" fill="#1975b8"/>
        <path id="Path_1086" data-name="Path 1086" d="M4.785,10.882c-1.862-3.735-3.1,1-3.1,1H9.232C7.083,6.273,5.452,9.149,4.785,10.882Z" transform="translate(-0.266 -4.571)" fill="#1975b8"/>
        <circle id="Ellipse_18" data-name="Ellipse 18" cx="1.046" cy="1.046" r="1.046" transform="translate(8.147 1.722)" fill="#1975b8"/>
      </g>
    </g>
  </g>
</svg>
