<svg xmlns="http://www.w3.org/2000/svg" xmlns:xlink="http://www.w3.org/1999/xlink" width="36" height="36" viewBox="0 0 36 36">
  <defs>
    <clipPath id="clip-Artboard_3">
      <rect width="36" height="36"/>
    </clipPath>
  </defs>
  <g id="Artboard_3" data-name="Artboard 3" clip-path="url(#clip-Artboard_3)">
    <g id="Group_80" data-name="Group 80" transform="translate(-112.602)">
      <path id="Path_86" data-name="Path 86" d="M137.946,11.452a4.573,4.573,0,0,0-1.185-8.946l-.144,0a4.573,4.573,0,0,0-1.329,8.948,4.886,4.886,0,0,0-3.935,3.563,6.454,6.454,0,0,1,1.235,1.929,19.05,19.05,0,0,1,1,6.049l-.022,7.576a.515.515,0,0,0,.516.515h5.071a.515.515,0,0,0,.516-.515V21.13h2.49a.517.517,0,0,0,.516-.523C142.6,15.431,141.471,12.271,137.946,11.452Z" fill="#47a835"/>
      <g id="Group_79" data-name="Group 79">
        <path id="Path_87" data-name="Path 87" d="M127.7,14.305a4.573,4.573,0,0,0-1.184-8.946l-.144,0a4.573,4.573,0,0,0-1.329,8.948c-3.525.819-4.659,3.979-4.728,9.155a.516.516,0,0,0,.516.523h2.489v9.439a.515.515,0,0,0,.516.515H128.9a.515.515,0,0,0,.516-.515V23.983h2.49a.517.517,0,0,0,.516-.523C132.356,18.284,131.223,15.124,127.7,14.305Z" fill="#9dc224"/>
      </g>
    </g>
  </g>
</svg>
