<svg xmlns="http://www.w3.org/2000/svg" xmlns:xlink="http://www.w3.org/1999/xlink" width="36" height="36" viewBox="0 0 36 36">
  <defs>
    <clipPath id="clip-Eye_Drops">
      <rect width="36" height="36"/>
    </clipPath>
  </defs>
  <g id="Eye_Drops" data-name="Eye Drops" clip-path="url(#clip-Eye_Drops)">
    <g id="Group_58" data-name="Group 58" transform="translate(-112.602 -112)">
      <path id="Path_58" data-name="Path 58" d="M146.952,129.016c-2.241-2.59-8.613-9.088-16.124-9.088s-13.882,6.5-16.123,9.088a1.678,1.678,0,0,0,0,2.094c2.241,2.59,8.613,9.088,16.123,9.088s13.883-6.5,16.124-9.088A1.675,1.675,0,0,0,146.952,129.016Zm-2.932,1.295a31.8,31.8,0,0,1-3,2.8c-2.44,1.995-6.189,4.373-10.193,4.373-5.613,0-10.707-4.54-13.2-7.19a.366.366,0,0,1,0-.5c2.8-2.963,7.922-7.165,13.2-7.165,5.606,0,10.694,4.528,13.192,7.179A.366.366,0,0,1,144.02,130.311Z" fill="#6bc8e8"/>
      <path id="Path_59" data-name="Path 59" d="M130.845,124.463a5.6,5.6,0,1,0,5.6,5.6A5.6,5.6,0,0,0,130.845,124.463Zm1.661,5.582a1.66,1.66,0,1,1,1.66-1.66A1.661,1.661,0,0,1,132.506,130.045Z" fill="#6bc8e8"/>
      <circle id="Ellipse_22" data-name="Ellipse 22" cx="2.384" cy="2.384" r="2.384" transform="translate(130.484 125.951)" fill="#6bc8e8"/>
    </g>
    <g id="Group_60" data-name="Group 60" transform="translate(-112.602 -112)">
      <path id="Path_60" data-name="Path 60" d="M137.537,127.557s-.454-.466,1.172-1.841,1.8-1.312,1.627-2,.592-.687.681,0,.918,3.032-1.184,3.783S137.537,127.557,137.537,127.557Z" fill="#0064af"/>
      <ellipse id="Ellipse_23" data-name="Ellipse 23" cx="3.293" cy="3.568" rx="3.293" ry="3.568" transform="translate(133.928 120.601)" fill="#0064af" stroke="#e82727" stroke-miterlimit="10" stroke-width="1"/>
      <g id="Group_59" data-name="Group 59">
        <path id="Path_61" data-name="Path 61" d="M141.253,123.694a9.4,9.4,0,0,0-.892-2.159c-.855-1.609-2.783-4.768-3.136-6.262a23.631,23.631,0,0,1-2.291,4.558,20.141,20.141,0,0,0-1.617,3.047,4.04,4.04,0,0,0-.266,2.46,4.222,4.222,0,0,0,4.794,3.219,4.085,4.085,0,0,0,2.873-1.927A3.728,3.728,0,0,0,141.253,123.694Zm-1.731.632a.508.508,0,0,1-.506.506h-.956v.955a.507.507,0,0,1-.506.506h-.787a.507.507,0,0,1-.506-.506v-.955H135.3a.508.508,0,0,1-.506-.506v-.788a.508.508,0,0,1,.506-.506h.956v-.955a.507.507,0,0,1,.506-.506h.787a.507.507,0,0,1,.506.506v.955h.956a.508.508,0,0,1,.506.506Z" fill="#0064af" fill-rule="evenodd"/>
      </g>
    </g>
  </g>
</svg>
