<svg xmlns="http://www.w3.org/2000/svg" width="33.59" height="24.57" viewBox="0 0 33.59 24.57">
  <g id="Group_42" data-name="Group 42" transform="translate(-57.8 -286.365)">
    <g id="Group_41" data-name="Group 41">
      <path id="Path_44" data-name="Path 44" d="M82.149,291.541A2.519,2.519,0,0,0,84,290.773a2.608,2.608,0,0,0,0-3.64,2.519,2.519,0,0,0-1.848-.768,2.478,2.478,0,0,0-1.821.739,2.61,2.61,0,0,0,0,3.7A2.474,2.474,0,0,0,82.149,291.541Z" fill="#0064af"/>
      <path id="Path_45" data-name="Path 45" d="M90.308,296.667l-5.353.05-3.045-3.046a1.2,1.2,0,0,0-.136-.113c-.175-.213-.371-.43-.592-.652l-3.015-3.014a8.64,8.64,0,0,0-.778-.694,1.069,1.069,0,0,0-.8-.359H66.908a1.072,1.072,0,0,0,0,2.144h8.631l-2.12,2.121,0,0-5.205,5.2.006.006-3.645,2.1-4.36-2.518a1.608,1.608,0,0,0-1.609,2.785l5.165,2.982a1.6,1.6,0,0,0,1.608,0l5.164-2.982.029-.018.131.131,1.026,3.829-3.56,3.561a1.608,1.608,0,1,0,2.274,2.274l4.217-4.217a1.607,1.607,0,0,0,.416-1.553l-.876-3.269,3.721-3.72,2.5-2.5,3.342,3.342a1.073,1.073,0,0,0,.758.314h.01l5.8-.054a1.072,1.072,0,0,0-.02-2.144Z" fill="#0064af"/>
    </g>
  </g>
</svg>
