<svg xmlns="http://www.w3.org/2000/svg" xmlns:xlink="http://www.w3.org/1999/xlink" width="25" height="25" viewBox="0 0 25 25">
  <defs>
    <clipPath id="clip-path">
      <rect id="Rectangle_251" data-name="Rectangle 251" width="25" height="25" transform="translate(13 141)" fill="#fff" stroke="#707070" stroke-width="1"/>
    </clipPath>
  </defs>
  <g id="highrisk" transform="translate(-13 -141)" clip-path="url(#clip-path)">
    <g id="virus_1_" data-name="virus (1)" transform="translate(14.505 142.505)">
      <path id="Path_1031" data-name="Path 1031" d="M98.362,91.243a7.119,7.119,0,1,0,7.119,7.119A7.127,7.127,0,0,0,98.362,91.243Z" transform="translate(-87.541 -87.54)" fill="#f87f0b"/>
      <path id="Path_1032" data-name="Path 1032" d="M162.556,1.573l.054-.014L162.995,3a8,8,0,0,1,1.2-.322l-.386-1.438.054-.014a.622.622,0,1,0-.321-1.2l-1.308.351a.622.622,0,0,0,.322,1.2Z" transform="translate(-154.86 0)" fill="#f87f0b"/>
      <path id="Path_1033" data-name="Path 1033" d="M57.182,58.138l.039-.039,1.056,1.056a8.139,8.139,0,0,1,.879-.879L58.1,57.22l.039-.039a.622.622,0,0,0-.879-.879l-.957.958a.622.622,0,0,0,.879.879Z" transform="translate(-53.795 -53.794)" fill="#f87f0b"/>
      <path id="Path_1034" data-name="Path 1034" d="M.462,164.3a.622.622,0,0,0,.761-.44l.014-.054,1.438.385a8,8,0,0,1,.322-1.2L1.56,162.6l.014-.054a.622.622,0,0,0-1.2-.322l-.35,1.308a.622.622,0,0,0,.44.761Z" transform="translate(-0.002 -154.853)" fill="#f87f0b"/>
      <path id="Path_1035" data-name="Path 1035" d="M1.559,290.369,3,289.984a8,8,0,0,1-.322-1.2l-1.438.386-.014-.054a.622.622,0,1,0-1.2.322l.351,1.308a.622.622,0,0,0,1.2-.322Z" transform="translate(-0.001 -276.319)" fill="#f87f0b"/>
      <path id="Path_1036" data-name="Path 1036" d="M58.276,382.631l-1.056,1.056-.039-.039a.622.622,0,0,0-.879.879l.958.958a.622.622,0,1,0,.879-.879l-.039-.039,1.056-1.056A8.149,8.149,0,0,1,58.276,382.631Z" transform="translate(-53.794 -366.191)" fill="#f87f0b"/>
      <path id="Path_1037" data-name="Path 1037" d="M163.87,441.454l-.054-.014L164.2,440a7.99,7.99,0,0,1-1.2-.322l-.386,1.439-.054-.014a.622.622,0,1,0-.322,1.2l1.308.351a.622.622,0,0,0,.322-1.2Z" transform="translate(-154.866 -420.875)" fill="#f87f0b"/>
      <path id="Path_1038" data-name="Path 1038" d="M290.426,441.1l-.054.014-.386-1.439a7.99,7.99,0,0,1-1.2.322l.386,1.438-.054.014a.622.622,0,1,0,.322,1.2l1.308-.351a.622.622,0,1,0-.322-1.2Z" transform="translate(-276.322 -420.875)" fill="#f87f0b"/>
      <path id="Path_1039" data-name="Path 1039" d="M384.609,383.648l-.039.039-1.056-1.056a8.143,8.143,0,0,1-.879.879l1.056,1.056-.039.039a.622.622,0,0,0,.879.879l.958-.958a.622.622,0,1,0-.879-.879Z" transform="translate(-366.195 -366.191)" fill="#f87f0b"/>
      <path id="Path_1040" data-name="Path 1040" d="M442.216,288.673a.622.622,0,0,0-.761.44l-.014.054L440,288.78a7.99,7.99,0,0,1-.322,1.2l1.439.386-.014.054a.622.622,0,1,0,1.2.322l.351-1.308A.622.622,0,0,0,442.216,288.673Z" transform="translate(-420.876 -276.316)" fill="#f87f0b"/>
      <path id="Path_1041" data-name="Path 1041" d="M441.117,162.6l-1.439.386a8,8,0,0,1,.322,1.2l1.438-.386.014.054a.622.622,0,0,0,1.2-.322l-.351-1.308a.622.622,0,1,0-1.2.322Z" transform="translate(-420.874 -154.846)" fill="#f87f0b"/>
      <path id="Path_1042" data-name="Path 1042" d="M383.511,59.155l1.056-1.056.039.039a.622.622,0,0,0,.879-.879l-.958-.958a.622.622,0,1,0-.879.879l.039.039-1.056,1.056A8.15,8.15,0,0,1,383.511,59.155Z" transform="translate(-366.192 -53.794)" fill="#f87f0b"/>
      <path id="Path_1043" data-name="Path 1043" d="M289.111,1.223l.054.014-.386,1.438a8,8,0,0,1,1.2.322l.386-1.439.053.014a.622.622,0,1,0,.322-1.2L289.433.023a.622.622,0,1,0-.322,1.2Z" transform="translate(-276.315 -0.001)" fill="#f87f0b"/>
      <g id="danger" transform="translate(9.644 6.913)">
        <path id="Path_189" data-name="Path 189" d="M185.437,6.319a.679.679,0,0,0,.718-.536l.487-4.72a.874.874,0,0,0-.315-.746,1.409,1.409,0,0,0-1.781,0,.875.875,0,0,0-.315.746l.487,4.72A.679.679,0,0,0,185.437,6.319Z" transform="translate(-184.227 0)" fill="#fff"/>
        <path id="Path_190" data-name="Path 190" d="M206.238,410.908a.785.785,0,1,0,.785.785A.785.785,0,0,0,206.238,410.908Z" transform="translate(-205.028 -404.16)" fill="#fff"/>
      </g>
    </g>
  </g>
</svg>
