<?xml version="1.0" encoding="utf-8"?>
<!-- Generator: Adobe Illustrator 24.3.0, SVG Export Plug-In . SVG Version: 6.00 Build 0)  -->
<svg version="1.1" id="Layer_1" xmlns="http://www.w3.org/2000/svg" xmlns:xlink="http://www.w3.org/1999/xlink" x="0px" y="0px"
	 viewBox="0 0 36 36" style="enable-background:new 0 0 36 36;" xml:space="preserve">
<style type="text/css">
	.st0{fill:#FFFFFF;}
	.st1{fill:#0776BD;}
	.st2{fill:#1D76BB;}
	
		.st3{clip-path:url(#SVGID_2_);fill:none;stroke:#2C3D66;stroke-width:2;stroke-linecap:round;stroke-linejoin:round;stroke-miterlimit:10;}
	.st4{fill:none;stroke:#EF4036;stroke-miterlimit:10;}
	.st5{clip-path:url(#SVGID_4_);fill:#1D76BB;}
	.st6{fill:none;stroke:#FFFFFF;stroke-width:2;stroke-linecap:round;stroke-miterlimit:10;}
	.st7{fill:#3DB54A;}
	.st8{fill:#A0CC3A;}
	.st9{fill:#28A6DF;}
	.st10{fill:#F8951D;}
	.st11{fill:#81D0EC;}
	.st12{fill:#1D76BB;stroke:#1D76BB;stroke-width:0.75;stroke-miterlimit:10;}
	.st13{fill-rule:evenodd;clip-rule:evenodd;fill:#3DB54A;}
	.st14{clip-path:url(#SVGID_6_);fill-rule:evenodd;clip-rule:evenodd;fill:#3DB54A;}
	.st15{fill:#EF4136;stroke:#EF4136;stroke-miterlimit:10;}
	.st16{fill-rule:evenodd;clip-rule:evenodd;fill:#EF4136;}
	.st17{fill:#EF4036;}
	.st18{fill:#EF4136;}
	.st19{clip-path:url(#SVGID_8_);fill:#1D76BB;}
	.st20{clip-path:url(#SVGID_10_);fill:#1D76BB;}
	.st21{fill:#1D76BB;stroke:#EF4136;stroke-miterlimit:10;}
	.st22{fill-rule:evenodd;clip-rule:evenodd;fill:#1D76BB;}
	.st23{fill:#A0CC3A;stroke:#A0CC3A;stroke-miterlimit:10;}
	.st24{fill:#FFFBF3;stroke:#FFCD05;stroke-miterlimit:10;}
	.st25{fill:#FFCD05;}
	.st26{fill:#FFFBF3;stroke:#ED1C24;stroke-miterlimit:10;}
	.st27{fill:#ED1C24;}
	.st28{fill:#FFFFFF;stroke:#FFFFFF;stroke-width:1.25;stroke-linecap:round;stroke-linejoin:round;stroke-miterlimit:10;}
	.st29{fill:#FAE900;}
	.st30{fill:#FBB040;}
	.st31{clip-path:url(#SVGID_12_);fill:#1D76BB;}
	.st32{clip-path:url(#SVGID_12_);}
	.st33{fill:none;stroke:#1D76BB;stroke-width:2.25;stroke-linecap:round;stroke-miterlimit:10;}
	.st34{fill:#81D0EC;stroke:#FFFFFF;stroke-width:2;stroke-miterlimit:10;}
	.st35{fill:#F8951D;stroke:#F8951D;stroke-width:1.25;stroke-linecap:round;stroke-linejoin:round;stroke-miterlimit:10;}
	.st36{fill:#FFCD05;stroke:#FFCD05;stroke-width:1.25;stroke-linecap:round;stroke-linejoin:round;stroke-miterlimit:10;}
	.st37{fill:#81D0EC;stroke:#81D0EC;stroke-width:0.25;stroke-miterlimit:10;}
	.st38{fill:#333333;stroke:#000000;stroke-width:0.25;stroke-miterlimit:10;}
	.st39{fill-rule:evenodd;clip-rule:evenodd;fill:#010101;stroke:#FFFFFF;stroke-width:0.5;stroke-miterlimit:10;}
	.st40{fill:#414142;}
	.st41{fill-rule:evenodd;clip-rule:evenodd;fill:#414042;}
	.st42{fill:#414042;}
	.st43{fill:#58595B;}
	.st44{fill:#231F20;}
	.st45{fill:#1A75B8;}
	.st46{fill:#0C75BC;}
	.st47{fill:#595A5C;}
	.st48{fill:#1D76B8;}
	.st49{clip-path:url(#SVGID_14_);}
	.st50{fill:none;}
	.st51{clip-path:url(#SVGID_16_);fill:#1D76BB;}
	.st52{clip-path:url(#SVGID_16_);fill:#FFFFFF;}
	.st53{clip-path:url(#SVGID_18_);fill:#EF4036;}
	.st54{clip-path:url(#SVGID_18_);fill:#FFFFFF;}
	.st55{clip-path:url(#SVGID_20_);fill:#1D76BB;}
	.st56{clip-path:url(#SVGID_20_);}
	.st57{fill:none;stroke:#ED1C24;stroke-width:2;stroke-miterlimit:10;}
	.st58{fill:#85CFEB;}
	.st59{fill:#99C63E;}
	.st60{fill:#0864AF;}
	.st61{fill:#1E76B7;}
	.st62{fill:#0976BC;}
	
		.st63{clip-path:url(#SVGID_22_);fill:none;stroke:#000000;stroke-width:2;stroke-linecap:round;stroke-linejoin:round;stroke-miterlimit:10;}
	.st64{fill:#1A75B8;stroke:#1A75B8;stroke-width:0.5;stroke-miterlimit:10;}
	.st65{fill:#FFFFFF;stroke:#1D76BB;stroke-width:0.5;stroke-miterlimit:10;}
	.st66{fill:#1A75B8;stroke:#1D76BB;stroke-width:0.5;stroke-miterlimit:10;}
	.st67{clip-path:url(#SVGID_24_);fill:#1A75B8;}
	.st68{clip-path:url(#SVGID_26_);fill:#FEDD0E;}
	.st69{fill:none;stroke:#FFDE17;stroke-width:3;stroke-miterlimit:10;}
	.st70{fill:#FEDD0E;}
	.st71{clip-path:url(#SVGID_28_);fill:#FEDD0E;}
	.st72{clip-path:url(#SVGID_30_);fill:#FEDD0E;}
	.st73{clip-path:url(#SVGID_32_);fill:#EF4036;}
	.st74{fill:#EF4036;stroke:#EF4036;stroke-width:0.5;stroke-miterlimit:10;}
	.st75{clip-path:url(#SVGID_34_);}
	.st76{fill:#28A5DE;}
	.st77{fill:#343433;}
	.st78{clip-path:url(#SVGID_36_);}
	.st79{fill:#1A75B8;stroke:#1A75B8;stroke-miterlimit:10;}
	.st80{fill:none;stroke:#81D0EC;stroke-width:2;stroke-linecap:round;stroke-miterlimit:10;}
	.st81{fill:none;stroke:#1A75B8;stroke-width:2;stroke-linecap:round;stroke-miterlimit:10;}
	.st82{fill:#1D76BB;stroke:#1D76BB;stroke-linecap:round;stroke-linejoin:round;stroke-miterlimit:10;}
	.st83{fill:none;stroke:#1D76BB;stroke-width:2;stroke-linecap:round;stroke-miterlimit:10;}
	.st84{fill:#EF4136;stroke:#81D0EC;stroke-miterlimit:10;}
	.st85{clip-path:url(#SVGID_38_);}
	.st86{clip-path:url(#SVGID_38_);fill:#FFFFFF;}
	.st87{clip-path:url(#SVGID_40_);}
	.st88{clip-path:url(#SVGID_42_);fill:#28A5DE;}
	.st89{fill:none;stroke:#81D0EC;stroke-linecap:round;stroke-miterlimit:10;}
	.st90{fill:none;stroke:#81D0EC;stroke-linecap:round;stroke-miterlimit:10;stroke-dasharray:1.8371,1.8371;}
	.st91{clip-path:url(#SVGID_44_);fill:#1D76BB;}
	.st92{clip-path:url(#SVGID_44_);fill:#81D0EC;}
	.st93{fill-rule:evenodd;clip-rule:evenodd;}
	.st94{fill-rule:evenodd;clip-rule:evenodd;fill:#28A5DE;}
	.st95{fill-rule:evenodd;clip-rule:evenodd;fill:#FFFFFF;}
	.st96{fill-rule:evenodd;clip-rule:evenodd;fill:#28A6DF;}
	.st97{fill:none;stroke:#FFFFFF;stroke-width:1.5;stroke-linecap:round;stroke-miterlimit:10;}
	.st98{fill:none;stroke:#2C3D66;stroke-width:2;stroke-linecap:round;stroke-linejoin:round;stroke-miterlimit:10;}
	.st99{fill:#FFFFFF;stroke:#28A6DF;stroke-linecap:round;stroke-linejoin:round;stroke-miterlimit:10;}
	.st100{clip-path:url(#SVGID_46_);fill:#EF4036;}
	.st101{fill:#EF4136;stroke:#FFFFFF;stroke-miterlimit:10;}
	.st102{fill:#EF4136;stroke:#FFFFFF;stroke-width:2;stroke-miterlimit:10;}
	.st103{fill:#EF4136;stroke:#FFFFFF;stroke-width:0.5;stroke-miterlimit:10;}
	.st104{clip-path:url(#SVGID_48_);}
	.st105{clip-path:url(#SVGID_48_);fill:#FFFFFF;}
	.st106{fill:#E7EEF8;}
	.st107{fill:#E43450;}
	.st108{fill:#28A5DE;stroke:#28A5DE;stroke-miterlimit:10;}
	.st109{fill:#1D76BB;stroke:#1D76BB;stroke-miterlimit:10;}
	.st110{stroke:#1D76BB;stroke-miterlimit:10;}
	.st111{fill:#EF4036;stroke:#EF4136;stroke-miterlimit:10;}
	.st112{fill-rule:evenodd;clip-rule:evenodd;fill:#EF4036;}
	.st113{fill:#3CB54A;}
	.st114{fill:#FCEE22;}
	.st115{fill:none;stroke:#EF4036;stroke-width:1.5;stroke-linecap:round;stroke-miterlimit:10;}
	.st116{fill:none;stroke:#28A6DF;stroke-width:1.5;stroke-linecap:round;stroke-miterlimit:10;}
	.st117{fill:#1B76B7;}
	.st118{fill:#1B76BA;}
	.st119{fill:#BCBEC0;}
	.st120{fill:none;stroke:#F8951D;stroke-width:1.5;stroke-linecap:round;stroke-miterlimit:10;}
	.st121{clip-path:url(#SVGID_50_);fill:#1D76BB;}
	.st122{clip-path:url(#SVGID_52_);fill:#FFFFFF;}
	.st123{fill:#BDBEC0;}
	.st124{clip-path:url(#SVGID_54_);fill:#EF4136;}
	.st125{fill-rule:evenodd;clip-rule:evenodd;fill:#1B76BA;}
	.st126{fill:#808184;}
	.st127{fill:#2AA5DE;}
	.st128{fill:#5BBA4B;}
	.st129{fill:#80C34B;}
	.st130{fill:#C3D82E;}
	.st131{fill:#E98524;}
	.st132{fill:#F06724;}
	.st133{fill:#EB2127;}
	.st134{fill:#9ACA3C;}
	.st135{fill:none;stroke:#FFFFFF;stroke-linecap:round;stroke-miterlimit:10;}
	.st136{fill:#3C4752;}
	.st137{fill:#2F7ABF;}
	.st138{clip-path:url(#SVGID_56_);fill:#E6F6FD;}
	.st139{clip-path:url(#SVGID_58_);fill:#E6F6FD;}
	.st140{fill:#E6F6FD;}
</style>
<g>
	<g id="Virus_2_">
		<g id="virus_3_" transform="translate(46.769 46.77)">
			<path id="Path_1031_2_" class="st25" d="M-28.8-39.5c-5.9,0-10.8,4.8-10.8,10.8S-34.7-18-28.8-18S-18-22.8-18-28.8
				S-22.8-39.5-28.8-39.5z"/>
			<g>
				<path id="Path_1032_2_" class="st25" d="M-33.6-42.9L-33.6-42.9l0.7,2.2c0.6-0.2,1.2-0.4,1.8-0.5l-0.6-2.2l0.1,0
					c0.5-0.1,0.8-0.7,0.6-1.2c-0.1-0.5-0.6-0.8-1.1-0.7l-2,0.5c-0.5,0.1-0.8,0.7-0.7,1.2C-34.6-43.1-34.1-42.8-33.6-42.9z"/>
				<path id="Path_1033_2_" class="st25" d="M-40.1-38.7L-40.1-38.7l1.7,1.5c0.4-0.5,0.9-0.9,1.3-1.3l-1.6-1.6l0.1-0.1
					c0.4-0.4,0.4-1,0-1.3c-0.4-0.4-1-0.4-1.3,0l-1.4,1.4c-0.4,0.4-0.4,1,0,1.3S-40.5-38.3-40.1-38.7z"/>
				<path id="Path_1034_2_" class="st25" d="M-44.6-31c0.5,0.1,1-0.2,1.2-0.7c0,0,0,0,0,0l0-0.1l2.2,0.6c0.1-0.6,0.3-1.2,0.5-1.8
					l-2.2-0.6l0-0.1c0.1-0.5-0.2-1-0.7-1.2c-0.5-0.1-1,0.2-1.2,0.7l-0.5,2C-45.4-31.6-45.1-31.1-44.6-31C-44.6-31-44.6-31-44.6-31
					L-44.6-31z"/>
				<path id="Path_1035_2_" class="st25" d="M-42.9-24l2.2-0.6c-0.2-0.6-0.4-1.2-0.5-1.8l-2.2,0.6l0-0.1c-0.1-0.5-0.6-0.8-1.1-0.7
					c-0.5,0.1-0.8,0.6-0.7,1.1c0,0,0,0,0,0l0.5,2c0.1,0.5,0.6,0.8,1.1,0.7C-43.1-22.9-42.8-23.4-42.9-24
					C-42.9-23.9-42.9-23.9-42.9-24L-42.9-24z"/>
				<path id="Path_1036_2_" class="st25" d="M-38.5-20.4l-1.6,1.6l-0.1-0.1c-0.4-0.4-1-0.4-1.3,0c-0.4,0.4-0.4,1,0,1.3l1.4,1.4
					c0.4,0.4,1,0.4,1.3,0c0.4-0.4,0.4-0.9,0-1.3l-0.1-0.1l1.6-1.6C-37.6-19.5-38.1-19.9-38.5-20.4z"/>
				<path id="Path_1037_2_" class="st25" d="M-31.6-14.1L-31.6-14.1l0.5-2.2c-0.6-0.1-1.2-0.3-1.8-0.5l-0.6,2.2l-0.1,0
					c-0.5-0.1-1,0.2-1.1,0.7c-0.1,0.5,0.2,1,0.7,1.1l2,0.5c0.5,0.1,1-0.2,1.1-0.7C-30.8-13.5-31.1-14-31.6-14.1L-31.6-14.1z"/>
				<path id="Path_1038_2_" class="st25" d="M-23.9-14.7L-23.9-14.7l-0.7-2.2c-0.6,0.2-1.2,0.4-1.8,0.5l0.6,2.2l-0.1,0
					c-0.5,0.1-0.8,0.6-0.7,1.1c0.1,0.5,0.6,0.8,1.1,0.7c0,0,0,0,0,0l2-0.5c0.5-0.1,0.8-0.7,0.7-1.2C-22.9-14.5-23.4-14.8-23.9-14.7
					L-23.9-14.7z"/>
				<path id="Path_1039_2_" class="st25" d="M-17.4-18.8L-17.4-18.8l-1.7-1.5c-0.4,0.5-0.9,0.9-1.3,1.3l1.6,1.6l-0.1,0.1
					c-0.4,0.4-0.4,1,0,1.3c0.4,0.4,1,0.4,1.3,0l1.4-1.4c0.4-0.4,0.4-1,0-1.3C-16.4-19.2-17-19.2-17.4-18.8z"/>
				<path id="Path_1040_2_" class="st25" d="M-13-26.6c-0.5-0.1-1,0.2-1.2,0.7c0,0,0,0,0,0l0,0.1l-2.2-0.6c-0.1,0.6-0.3,1.2-0.5,1.8
					l2.2,0.6l0,0.1c-0.1,0.5,0.2,1,0.7,1.1c0.5,0.1,1-0.2,1.1-0.7l0.5-2C-12.2-25.9-12.5-26.4-13-26.6z"/>
				<path id="Path_1041_2_" class="st25" d="M-14.6-33.5l-2.2,0.6c0.2,0.6,0.4,1.2,0.5,1.8l2.2-0.6l0,0.1c0.1,0.5,0.7,0.8,1.2,0.7
					c0.5-0.1,0.8-0.6,0.7-1.1l-0.5-2c-0.1-0.5-0.6-0.8-1.1-0.7C-14.5-34.7-14.8-34.1-14.6-33.5C-14.7-33.6-14.7-33.6-14.6-33.5
					L-14.6-33.5z"/>
				<path id="Path_1042_2_" class="st25" d="M-19.1-37.2l1.6-1.6l0.1,0.1c0.4,0.4,1,0.4,1.3,0c0.4-0.4,0.4-1,0-1.3l-1.4-1.4
					c-0.4-0.4-1-0.4-1.3,0c-0.4,0.4-0.4,1,0,1.3l0.1,0.1l-1.6,1.6C-19.9-38.1-19.5-37.6-19.1-37.2z"/>
				<path id="Path_1043_2_" class="st25" d="M-25.9-43.4L-25.9-43.4l-0.5,2.2c0.6,0.1,1.2,0.3,1.8,0.5l0.6-2.2l0.1,0
					c0.5,0.1,1-0.2,1.2-0.7c0.1-0.5-0.2-1-0.7-1.2l-2-0.5c-0.5-0.1-1,0.2-1.1,0.7C-26.7-44.1-26.4-43.6-25.9-43.4L-25.9-43.4z"/>
			</g>
		</g>
	</g>
	<g>
		<circle class="st0" cx="12.2" cy="18" r="2"/>
		<circle class="st0" cx="23.8" cy="18" r="2"/>
		<circle class="st0" cx="18" cy="18" r="2"/>
	</g>
</g>
</svg>
