<svg xmlns="http://www.w3.org/2000/svg" width="25" height="25" viewBox="0 0 25 25">
  <g id="isolation" transform="translate(-195 -146)">
    <circle id="Ellipse_45" data-name="Ellipse 45" cx="12.5" cy="12.5" r="12.5" transform="translate(195 146)" fill="#f8951d"/>
    <path id="healthcare-and-medical" d="M5.714,9.169a2.044,2.044,0,0,0,.46,1.293,3.264,3.264,0,0,0-1.668,2.845H5.714a2.054,2.054,0,0,1,4.107,0H11.03a3.264,3.264,0,0,0-1.668-2.845A2.053,2.053,0,1,0,5.714,9.169Zm2.054-.846a.846.846,0,1,1-.846.846A.847.847,0,0,1,7.768,8.323Zm7.708-.634L7.738.97,0,7.69.792,8.6l.664-.577v6.55a1.814,1.814,0,0,0,1.812,1.812h8.939a1.814,1.814,0,0,0,1.812-1.812V8.025l.664.577Zm-2.664,6.885a.6.6,0,0,1-.6.6H3.268a.6.6,0,0,1-.6-.6v-7.6L7.738,2.57l5.074,4.406Z" transform="translate(200 150.03)" fill="none"/>
    <g id="schedule-24px" transform="translate(196 147)">
      <path id="Path_186" data-name="Path 186" d="M11.5,2a9.514,9.514,0,1,0,9.523,9.514A9.509,9.509,0,0,0,11.5,2Zm.01,17.125a7.611,7.611,0,1,1,7.611-7.611A7.609,7.609,0,0,1,11.514,19.125Z" transform="translate(-0.097 -0.097)" fill="#fff"/>
      <path id="Path_187" data-name="Path 187" d="M0,0H22.833V22.833H0Z" fill="none"/>
      <path id="Path_188" data-name="Path 188" d="M12.427,7H11v5.708l4.995,3,.714-1.17-4.281-2.54Z" transform="translate(-0.535 -0.34)" fill="#fff"/>
    </g>
  </g>
</svg>
