<svg xmlns="http://www.w3.org/2000/svg" xmlns:xlink="http://www.w3.org/1999/xlink" width="36" height="36" viewBox="0 0 36 36">
  <defs>
    <clipPath id="clip-Left_pulse">
      <rect width="36" height="36"/>
    </clipPath>
  </defs>
  <g id="Left_pulse" data-name="Left pulse" clip-path="url(#clip-Left_pulse)">
    <g id="Group_120" data-name="Group 120" transform="translate(-1 4)">
      <path id="Path_173" data-name="Path 173" d="M5.341,19.331a9.452,9.452,0,0,1,.621,1.7A21.262,21.262,0,0,1,6.5,24.266c.078.722.1,1.452.223,2.166.147.869.364,1.727.564,2.587s.4,1.744.525,2.633a1.964,1.964,0,0,0,1.47,1.622,1.418,1.418,0,0,0,.818.045.818.818,0,0,0,.638-.775,2.3,2.3,0,0,0-.024-.493c-.109-.764-.243-1.524-.336-2.289a27.913,27.913,0,0,1-.2-4.326c.024-.7.1-1.408.145-2.112,0-.015.007-.03.018-.082.071.115.133.2.179.293a4.88,4.88,0,0,1,.395,1.337c.142.784.257,1.572.4,2.355.228,1.22.462,2.44.717,3.655a5.034,5.034,0,0,0,.809,1.914,1.831,1.831,0,0,0,.749.611.887.887,0,0,0,1.082-.222,2.267,2.267,0,0,0,.522-1.133,3.137,3.137,0,0,0-.151-1.943.506.506,0,0,1-.031-.157c-.164-1.767-.334-3.534-.487-5.3-.046-.534-.045-1.072-.066-1.608,0-.027,0-.055.007-.113.081.075.146.128.2.19A2.8,2.8,0,0,1,15.28,24.3c.18.643.319,1.3.492,1.943.12.446.282.88.4,1.326.167.634.3,1.276.464,1.912a4.268,4.268,0,0,0,.548,1.36,1.672,1.672,0,0,0,1.358.791.318.318,0,0,0,.153-.031,1.414,1.414,0,0,0,.82-1.185,3.636,3.636,0,0,0-.143-1.3c-.132-.507-.286-1.009-.408-1.518-.1-.429-.16-.868-.258-1.3-.232-1.022-.483-2.04-.712-3.063-.165-.741-.305-1.487-.456-2.231-.008-.04-.01-.081-.019-.159.08.077.14.129.194.187a3.061,3.061,0,0,1,.634,1.07c.263.751.5,1.512.742,2.269.112.345.224.691.33,1.038.037.122.051.25.083.374a1.97,1.97,0,0,0,2.031,1.4.768.768,0,0,0,.7-.757,3.223,3.223,0,0,0-.071-.66c-.049-.279-.127-.554-.179-.833A26.941,26.941,0,0,0,21,21.406c-.593-1.781-1.17-3.568-1.762-5.35a54.474,54.474,0,0,0-1.972-5.195,17.439,17.439,0,0,0-.887-1.6c-.324-.556-.677-1.1-1-1.653A6.8,6.8,0,0,1,14.6,5.094a27.212,27.212,0,0,1-.2-3.818c.008-1.763-10.642-1.639-10.484,0,.164,1.7.025.694.192,2.391.164,1.676.308,3.354.476,5.03a.958.958,0,0,1-.206.753,9.924,9.924,0,0,0-1.392,2.737c-.2.554-.4,1.109-.589,1.669a7.017,7.017,0,0,0-.327,1.736c-.06.889-.1,1.78-.149,2.671a10.868,10.868,0,0,1-.3,2.1,2.625,2.625,0,0,0-.029.43,4.621,4.621,0,0,1-.6,1.82C.663,23.208.337,23.8.02,24.39a.268.268,0,0,0,0,.194,1.385,1.385,0,0,0,.49.684,1.132,1.132,0,0,0,1.123.072A3.461,3.461,0,0,0,2.75,24.6a6.765,6.765,0,0,0,1.166-1.467,12.236,12.236,0,0,0,1.126-2.859c.083-.268.162-.537.245-.805C5.3,19.434,5.315,19.4,5.341,19.331Z" transform="translate(32.887 0) rotate(79)" fill="#0096d8"/>
      <ellipse id="Ellipse_36" data-name="Ellipse 36" cx="5.901" cy="5.901" rx="5.901" ry="5.901" transform="translate(19.114 1.391)" fill="#e82727"/>
    </g>
  </g>
</svg>
