<svg xmlns="http://www.w3.org/2000/svg" width="39.243" height="44.128" viewBox="0 0 39.243 44.128">
  <g id="Group_129" data-name="Group 129" transform="translate(-54.476)">
    <path id="Path_178" data-name="Path 178" d="M93.1,12.733,80.851.69a2.893,2.893,0,0,0-3.75,0L64.854,12.733a1.617,1.617,0,0,0-.344,2.133,2.386,2.386,0,0,0,2.22,1.161h7.349V36.1H61.832a1.292,1.292,0,0,0-.957.345l-6.124,6.022a.886.886,0,0,0-.153,1.1,1.149,1.149,0,0,0,1.11.565H82.651a1.344,1.344,0,0,0,.88-.281.892.892,0,0,0,.344-.722v-27.1h7.348a2.387,2.387,0,0,0,2.22-1.161A1.571,1.571,0,0,0,93.1,12.733Z" transform="translate(0)" fill="#1975b8"/>
  </g>
</svg>
