<svg xmlns="http://www.w3.org/2000/svg" width="95.425" height="95.667" viewBox="0 0 95.425 95.667">
  <g id="Group_190" data-name="Group 190" transform="translate(-0.121)">
    <g id="Group_189" data-name="Group 189">
      <path id="Path_227" data-name="Path 227" d="M39.173,72.344,78.62,49.567a2,2,0,0,0,0-3.463L39.173,23.324a2,2,0,0,0-3,1.732v10.6H2.121a2,2,0,0,0-2,2V58a2,2,0,0,0,2,2H36.174v10.6a2,2,0,0,0,3,1.735Z" fill="#0064af"/>
      <path id="Path_228" data-name="Path 228" d="M80.775,0H40.026a2,2,0,0,0-2,2V8a2,2,0,0,0,2,2H80.775a4.776,4.776,0,0,1,4.771,4.771V80.9a4.777,4.777,0,0,1-4.771,4.771H40.026a2,2,0,0,0-2,2v6a2,2,0,0,0,2,2H80.775A14.787,14.787,0,0,0,95.546,80.9V14.772A14.788,14.788,0,0,0,80.775,0Z" fill="#0064af"/>
    </g>
  </g>
</svg>
