<svg xmlns="http://www.w3.org/2000/svg" width="35.577" height="25.241" viewBox="0 0 35.577 25.241">
  <g id="Group_88" data-name="Group 88" transform="translate(-0.212 -673.384)">
    <g id="Group_82" data-name="Group 82">
      <g id="Group_79" data-name="Group 79">
        <path id="Path_87" data-name="Path 87" d="M25.685,680.332a.856.856,0,0,0-1.211,1.211,6.311,6.311,0,0,1,0,8.914.856.856,0,0,0,1.211,1.211A8.024,8.024,0,0,0,25.685,680.332Z" fill="#0064af"/>
        <path id="Path_88" data-name="Path 88" d="M25.08,692.044a.981.981,0,0,1-.694-1.676,6.188,6.188,0,0,0,0-8.737.979.979,0,0,1,0-1.387,1.008,1.008,0,0,1,1.388,0h0a8.152,8.152,0,0,1,0,11.513A.974.974,0,0,1,25.08,692.044Zm0-11.838a.73.73,0,0,0-.517,1.248,6.438,6.438,0,0,1,0,9.091.729.729,0,0,0,0,1.034.747.747,0,0,0,1.034,0,7.9,7.9,0,0,0,0-11.159A.725.725,0,0,0,25.08,680.206Z" fill="#0063ab"/>
      </g>
      <g id="Group_80" data-name="Group 80">
        <path id="Path_89" data-name="Path 89" d="M28.041,676.951a.856.856,0,0,0-1.211,1.211,11.1,11.1,0,0,1,0,15.676.857.857,0,0,0,1.211,1.212A12.812,12.812,0,0,0,28.041,676.951Z" fill="#0064af"/>
        <path id="Path_90" data-name="Path 90" d="M27.436,695.426a.981.981,0,0,1-.694-1.676,10.972,10.972,0,0,0,0-15.5.983.983,0,0,1,0-1.389,1.007,1.007,0,0,1,1.388,0h0a12.942,12.942,0,0,1,0,18.277A.974.974,0,0,1,27.436,695.426Zm0-18.6a.733.733,0,0,0-.518,1.25,11.222,11.222,0,0,1,0,15.853.732.732,0,0,0,0,1.034.748.748,0,0,0,1.035,0,12.688,12.688,0,0,0,0-17.923A.729.729,0,0,0,27.436,676.824Z" fill="#0063ab"/>
      </g>
      <g id="Group_81" data-name="Group 81">
        <path id="Path_91" data-name="Path 91" d="M29.992,673.5a.856.856,0,0,0-.605,1.462,15.63,15.63,0,0,1,0,22.076.856.856,0,0,0,1.211,1.211,17.343,17.343,0,0,0,0-24.5A.854.854,0,0,0,29.992,673.5Z" fill="#0064af"/>
        <path id="Path_92" data-name="Path 92" d="M29.992,698.625a.982.982,0,0,1-.694-1.676,15.5,15.5,0,0,0,0-21.9.983.983,0,0,1,0-1.388,1.011,1.011,0,0,1,1.389,0,17.471,17.471,0,0,1,0,24.676A.978.978,0,0,1,29.992,698.625Zm0-25a.731.731,0,0,0-.517,1.248,15.756,15.756,0,0,1,0,22.254.73.73,0,0,0,0,1.033.749.749,0,0,0,1.035,0,17.218,17.218,0,0,0,0-24.321A.726.726,0,0,0,29.992,673.625Z" fill="#0063ab"/>
      </g>
    </g>
    <g id="Group_86" data-name="Group 86">
      <g id="Group_83" data-name="Group 83">
        <path id="Path_93" data-name="Path 93" d="M10.21,691.633a.856.856,0,1,0,1.211-1.211,6.311,6.311,0,0,1,0-8.914A.856.856,0,0,0,10.21,680.3,8.025,8.025,0,0,0,10.21,691.633Z" fill="#0064af"/>
        <path id="Path_94" data-name="Path 94" d="M10.816,692.01a.982.982,0,0,1-.694-.287h0a8.152,8.152,0,0,1,0-11.514A.982.982,0,1,1,11.51,681.6a6.182,6.182,0,0,0,0,8.735.982.982,0,0,1-.694,1.677Zm-.518-.465a.748.748,0,0,0,1.035,0,.732.732,0,0,0,0-1.034,6.436,6.436,0,0,1,0-9.091.732.732,0,0,0-1.035-1.034,7.9,7.9,0,0,0,0,11.16Z" fill="#0063ab"/>
      </g>
      <g id="Group_84" data-name="Group 84">
        <path id="Path_95" data-name="Path 95" d="M7.854,695.015A.857.857,0,1,0,9.066,693.8a11.1,11.1,0,0,1,0-15.676.857.857,0,0,0-1.212-1.212A12.815,12.815,0,0,0,7.854,695.015Z" fill="#0064af"/>
        <path id="Path_96" data-name="Path 96" d="M8.46,695.391a.982.982,0,0,1-.694-.287h0a12.941,12.941,0,0,1,0-18.278.982.982,0,0,1,1.388,1.39,10.972,10.972,0,0,0,0,15.5.981.981,0,0,1-.694,1.676Zm-.517-.465a.747.747,0,0,0,1.034,0,.728.728,0,0,0,0-1.033,11.225,11.225,0,0,1,0-15.854A.731.731,0,0,0,7.943,677a12.687,12.687,0,0,0,0,17.922Z" fill="#0063ab"/>
      </g>
      <g id="Group_85" data-name="Group 85">
        <path id="Path_97" data-name="Path 97" d="M6.008,698.5a.856.856,0,0,0,.605-1.462,15.63,15.63,0,0,1,0-22.076A.856.856,0,0,0,5.4,673.751a17.343,17.343,0,0,0,0,24.5A.854.854,0,0,0,6.008,698.5Z" fill="#0064af"/>
        <path id="Path_98" data-name="Path 98" d="M6.008,698.625a.986.986,0,0,1-.695-.287,17.471,17.471,0,0,1,0-24.676,1,1,0,0,1,1.389,0,.983.983,0,0,1,0,1.388,15.5,15.5,0,0,0,0,21.9.981.981,0,0,1-.694,1.675Zm0-25a.728.728,0,0,0-.518.214,17.218,17.218,0,0,0,0,24.321.746.746,0,0,0,1.035,0,.73.73,0,0,0,0-1.033,15.756,15.756,0,0,1,0-22.254.732.732,0,0,0-.517-1.248Z" fill="#0063ab"/>
      </g>
    </g>
    <g id="Group_87" data-name="Group 87">
      <rect id="Rectangle_11" data-name="Rectangle 11" width="4.613" height="12.302" rx="0.44" transform="translate(15.621 679.849)" fill="#0064af"/>
      <rect id="Rectangle_12" data-name="Rectangle 12" width="4.613" height="12.302" rx="0.294" transform="translate(24.078 683.693) rotate(90)" fill="#0064af"/>
    </g>
  </g>
</svg>
