<svg xmlns="http://www.w3.org/2000/svg" xmlns:xlink="http://www.w3.org/1999/xlink" width="36" height="36" viewBox="0 0 36 36">
  <defs>
    <clipPath id="clip-Medication_Set-Up">
      <rect width="36" height="36"/>
    </clipPath>
  </defs>
  <g id="Medication_Set-Up" data-name="Medication Set-Up" clip-path="url(#clip-Medication_Set-Up)">
    <g id="Group_44" data-name="Group 44" transform="translate(-0.602 -280)">
      <g id="Group_43" data-name="Group 43">
        <path id="Path_46" data-name="Path 46" d="M29.835,287.655l-10.928-5.082a2.628,2.628,0,0,0-3.492,1.275L5.4,305.388a2.628,2.628,0,0,0,1.275,3.492L17.6,313.963a2.63,2.63,0,0,0,3.493-1.275l10.019-21.54A2.63,2.63,0,0,0,29.835,287.655Zm-13.448-1.488a2.427,2.427,0,1,1,1.177,3.224A2.427,2.427,0,0,1,16.387,286.167Zm-4.3,9.235a2.427,2.427,0,1,1,1.177,3.224A2.426,2.426,0,0,1,12.091,295.4Zm.106,11.282a2.427,2.427,0,1,1-1.177-3.224A2.426,2.426,0,0,1,12.2,306.684Zm.75,3.349a.445.445,0,0,1-.4-.631s2.6-5.574,5.214-11.161c5.268-11.26,5.309-11.294,5.418-11.388a.444.444,0,0,1,.657.584c-.383.7-7.686,16.338-10.485,22.34A.443.443,0,0,1,12.947,310.033Zm7.14.321a2.427,2.427,0,1,1-1.177-3.224A2.427,2.427,0,0,1,20.087,310.354Zm4.3-9.235a2.427,2.427,0,1,1-1.177-3.225A2.426,2.426,0,0,1,24.382,301.119Zm4.3-9.235a2.428,2.428,0,1,1-1.177-3.225A2.428,2.428,0,0,1,28.678,291.884Z" fill="#0097d9"/>
      </g>
    </g>
  </g>
</svg>
