<svg xmlns="http://www.w3.org/2000/svg" xmlns:xlink="http://www.w3.org/1999/xlink" width="25" height="25" viewBox="0 0 25 25">
  <defs>
    <clipPath id="clip-path">
      <rect id="Rectangle_240" data-name="Rectangle 240" width="25" height="25"/>
    </clipPath>
  </defs>
  <g id="negative" clip-path="url(#clip-path)">
    <g id="virus_1_" data-name="virus (1)" transform="translate(2.373 2.373)">
      <path id="Path_1031" data-name="Path 1031" d="M97.987,91.243a6.744,6.744,0,1,0,6.744,6.744A6.752,6.752,0,0,0,97.987,91.243Z" transform="translate(-87.616 -87.616)" fill="#3cb54a"/>
      <path id="Path_1032" data-name="Path 1032" d="M162.514,1.49l.051-.014.365,1.363a7.575,7.575,0,0,1,1.137-.305L163.7,1.171l.051-.014a.589.589,0,1,0-.3-1.138L162.21.352a.589.589,0,1,0,.3,1.138Z" transform="translate(-155.224 0)" fill="#3cb54a"/>
      <path id="Path_1033" data-name="Path 1033" d="M57.126,58.032l.037-.037,1,1A7.712,7.712,0,0,1,59,58.162l-1-1,.037-.037a.589.589,0,0,0-.833-.833l-.907.907a.589.589,0,0,0,.833.833Z" transform="translate(-53.918 -53.917)" fill="#3cb54a"/>
      <path id="Path_1034" data-name="Path 1034" d="M.438,164.163a.589.589,0,0,0,.721-.416l.014-.051,1.362.365a7.581,7.581,0,0,1,.305-1.137l-1.363-.365.014-.051a.589.589,0,0,0-1.138-.3l-.332,1.239a.589.589,0,0,0,.416.721Z" transform="translate(-0.002 -155.217)" fill="#3cb54a"/>
      <path id="Path_1035" data-name="Path 1035" d="M1.477,290.279l1.363-.365a7.573,7.573,0,0,1-.305-1.137l-1.363.365-.014-.051a.589.589,0,0,0-1.138.3l.332,1.239a.589.589,0,1,0,1.138-.3Z" transform="translate(-0.001 -276.968)" fill="#3cb54a"/>
      <path id="Path_1036" data-name="Path 1036" d="M58.163,382.631l-1,1-.037-.037a.589.589,0,0,0-.833.833l.907.907a.589.589,0,0,0,.833-.833L58,384.464l1-1A7.72,7.72,0,0,1,58.163,382.631Z" transform="translate(-53.917 -367.057)" fill="#3cb54a"/>
      <path id="Path_1037" data-name="Path 1037" d="M163.76,441.36l-.051-.014.365-1.363a7.558,7.558,0,0,1-1.137-.305l-.365,1.363-.051-.014a.589.589,0,1,0-.3,1.138l1.239.332a.589.589,0,0,0,.3-1.138Z" transform="translate(-155.231 -421.866)" fill="#4caf50"/>
      <path id="Path_1038" data-name="Path 1038" d="M290.333,441.028l-.051.014-.365-1.363a7.56,7.56,0,0,1-1.138.305l.365,1.363-.051.014a.589.589,0,1,0,.3,1.138l1.239-.332a.589.589,0,0,0-.3-1.138Z" transform="translate(-276.972 -421.866)" fill="#3cb54a"/>
      <path id="Path_1039" data-name="Path 1039" d="M384.505,383.594l-.037.037-1-1a7.709,7.709,0,0,1-.833.833l1,1-.037.037a.589.589,0,0,0,.833.833l.907-.907a.589.589,0,1,0-.833-.833Z" transform="translate(-367.061 -367.057)" fill="#3cb54a"/>
      <path id="Path_1040" data-name="Path 1040" d="M442.083,288.672a.589.589,0,0,0-.721.416l-.014.051-1.363-.365a7.568,7.568,0,0,1-.305,1.137l1.363.365-.014.051a.589.589,0,1,0,1.138.3l.332-1.239A.589.589,0,0,0,442.083,288.672Z" transform="translate(-421.867 -276.966)" fill="#3cb54a"/>
      <path id="Path_1041" data-name="Path 1041" d="M441.041,162.551l-1.363.365a7.567,7.567,0,0,1,.305,1.137l1.363-.365.014.051a.589.589,0,1,0,1.138-.3l-.332-1.239a.589.589,0,1,0-1.138.3Z" transform="translate(-421.865 -155.21)" fill="#3cb54a"/>
      <path id="Path_1042" data-name="Path 1042" d="M383.465,59l1-1,.037.037a.589.589,0,0,0,.833-.833l-.907-.907a.589.589,0,1,0-.833.833l.037.037-1,1A7.714,7.714,0,0,1,383.465,59Z" transform="translate(-367.059 -53.917)" fill="#3cb54a"/>
      <path id="Path_1043" data-name="Path 1043" d="M289.087,1.159l.051.014-.365,1.363a7.574,7.574,0,0,1,1.137.305l.365-1.363.051.014a.589.589,0,1,0,.3-1.138L289.392.022a.589.589,0,0,0-.3,1.138Z" transform="translate(-276.965 -0.001)" fill="#3cb54a"/>
      <g id="Group_163" data-name="Group 163" transform="translate(6.627 9.627)">
        <g id="Group_162" data-name="Group 162" transform="translate(0 0)">
          <rect id="Rectangle_239" data-name="Rectangle 239" width="1.906" height="7.562" rx="0.953" transform="translate(7.562) rotate(90)" fill="#fff"/>
        </g>
      </g>
    </g>
  </g>
</svg>
