<?xml version="1.0" encoding="utf-8"?>
<!-- Generator: Adobe Illustrator 25.3.1, SVG Export Plug-In . SVG Version: 6.00 Build 0)  -->
<svg version="1.1" id="Layer_1" xmlns="http://www.w3.org/2000/svg" xmlns:xlink="http://www.w3.org/1999/xlink" x="0px" y="0px"
	 viewBox="0 0 36 36" style="enable-background:new 0 0 36 36;" xml:space="preserve">
<style type="text/css">
	.st0{fill-rule:evenodd;clip-rule:evenodd;fill:none;stroke:#000000;stroke-miterlimit:10;}
	.st1{fill:#3675B6;}
	
		.st2{clip-path:url(#SVGID_2_);fill:none;stroke:#2E3D63;stroke-width:2;stroke-linecap:round;stroke-linejoin:round;stroke-miterlimit:10;}
	.st3{fill:none;stroke:#DE4F40;stroke-miterlimit:10;}
	.st4{clip-path:url(#SVGID_4_);fill:#3675B6;}
	.st5{fill:none;stroke:#FFFFFF;stroke-width:2;stroke-linecap:round;stroke-miterlimit:10;}
	.st6{fill:#60B257;}
	.st7{fill:#A9CA54;}
	.st8{fill:#4EA5DA;}
	.st9{fill:#EC993F;}
	.st10{fill:#91CFE9;}
	.st11{fill:#3675B6;stroke:#3675B6;stroke-width:0.75;stroke-miterlimit:10;}
	.st12{fill-rule:evenodd;clip-rule:evenodd;fill:#60B257;}
	.st13{clip-path:url(#SVGID_6_);fill-rule:evenodd;clip-rule:evenodd;fill:#60B257;}
	.st14{fill:#FFFFFF;}
	.st15{fill:#DF5041;stroke:#DF5041;stroke-miterlimit:10;}
	.st16{fill-rule:evenodd;clip-rule:evenodd;fill:#DF5041;}
	.st17{fill:#DE4F40;}
	.st18{fill:#DF5041;}
	.st19{clip-path:url(#SVGID_8_);fill:#3675B6;}
	.st20{clip-path:url(#SVGID_10_);fill:#3675B6;}
	.st21{fill:#3675B6;stroke:#DF5041;stroke-miterlimit:10;}
	.st22{fill-rule:evenodd;clip-rule:evenodd;fill:#3675B6;}
	.st23{fill:#A9CA54;stroke:#A9CA54;stroke-miterlimit:10;}
	.st24{fill:#FFFBF4;stroke:#F9CE47;stroke-miterlimit:10;}
	.st25{fill:#F9CE47;}
	.st26{fill:#FFFBF4;stroke:#DC3832;stroke-miterlimit:10;}
	.st27{fill:#DC3832;}
	.st28{fill:#FFFFFF;stroke:#FFFFFF;stroke-width:1.25;stroke-linecap:round;stroke-linejoin:round;stroke-miterlimit:10;}
	.st29{fill:#F8E84D;}
	.st30{fill:#F2B257;}
	.st31{clip-path:url(#SVGID_12_);fill:#3675B6;}
	.st32{clip-path:url(#SVGID_12_);}
	.st33{fill:none;stroke:#3675B6;stroke-width:2.25;stroke-linecap:round;stroke-miterlimit:10;}
	.st34{fill:#91CFE9;stroke:#FFFFFF;stroke-width:2;stroke-miterlimit:10;}
	.st35{fill:#EC993F;stroke:#EC993F;stroke-width:1.25;stroke-linecap:round;stroke-linejoin:round;stroke-miterlimit:10;}
	.st36{fill:#EC983F;}
	.st37{fill:#F9CE47;stroke:#F9CE47;stroke-width:1.25;stroke-linecap:round;stroke-linejoin:round;stroke-miterlimit:10;}
	.st38{fill:#91CFE9;stroke:#91CFE9;stroke-width:0.25;stroke-miterlimit:10;}
	.st39{fill:#333333;stroke:#000000;stroke-width:0.25;stroke-miterlimit:10;}
	.st40{fill-rule:evenodd;clip-rule:evenodd;fill:#010101;stroke:#FFFFFF;stroke-width:0.5;stroke-miterlimit:10;}
	.st41{fill:#414142;}
	.st42{fill-rule:evenodd;clip-rule:evenodd;fill:#414042;}
	.st43{fill:#414042;}
	.st44{fill:#58595B;}
	.st45{fill:#221F20;}
	.st46{fill:#3575B2;}
	.st47{fill:#2F76B8;}
	.st48{fill:#3075B7;}
	.st49{fill:#595A5C;}
	.st50{fill:#3675B3;}
	.st51{clip-path:url(#SVGID_14_);}
	.st52{fill:none;}
	.st53{clip-path:url(#SVGID_16_);fill:#3675B6;}
	.st54{clip-path:url(#SVGID_16_);fill:#FFFFFF;}
	.st55{clip-path:url(#SVGID_18_);fill:#DE4F40;}
	.st56{clip-path:url(#SVGID_18_);fill:#FFFFFF;}
	.st57{clip-path:url(#SVGID_20_);fill:#3675B6;}
	.st58{clip-path:url(#SVGID_20_);}
	.st59{fill:none;stroke:#DC3832;stroke-width:2;stroke-miterlimit:10;}
	.st60{fill:#94CDE8;}
	.st61{fill:#A2C455;}
	.st62{fill:#2764A9;}
	.st63{fill:#3775B2;}
	.st64{fill:#3076B7;}
	
		.st65{clip-path:url(#SVGID_22_);fill:none;stroke:#000000;stroke-width:2;stroke-linecap:round;stroke-linejoin:round;stroke-miterlimit:10;}
	.st66{fill:#3575B2;stroke:#3575B2;stroke-width:0.5;stroke-miterlimit:10;}
	.st67{fill:#FFFFFF;stroke:#3675B6;stroke-width:0.5;stroke-miterlimit:10;}
	.st68{fill:#3575B2;stroke:#3675B6;stroke-width:0.5;stroke-miterlimit:10;}
	.st69{clip-path:url(#SVGID_24_);fill:#3575B2;}
	.st70{clip-path:url(#SVGID_26_);fill:#FADD4D;}
	.st71{fill:none;stroke:#FFDE4F;stroke-width:3;stroke-miterlimit:10;}
	.st72{fill:#FADD4D;}
	.st73{clip-path:url(#SVGID_28_);fill:#FADD4D;}
	.st74{clip-path:url(#SVGID_30_);fill:#FADD4D;}
	.st75{clip-path:url(#SVGID_32_);fill:#DE4F40;}
	.st76{fill:#DE4F40;stroke:#DE4F40;stroke-width:0.5;stroke-miterlimit:10;}
	.st77{clip-path:url(#SVGID_34_);}
	.st78{fill:#4EA4D9;}
	.st79{fill:#343433;}
	.st80{clip-path:url(#SVGID_36_);}
	.st81{fill:#3575B2;stroke:#3575B2;stroke-miterlimit:10;}
	.st82{fill:none;stroke:#91CFE9;stroke-width:2;stroke-linecap:round;stroke-miterlimit:10;}
	.st83{fill:none;stroke:#3575B2;stroke-width:2;stroke-linecap:round;stroke-miterlimit:10;}
	.st84{fill:#3675B6;stroke:#3675B6;stroke-linecap:round;stroke-linejoin:round;stroke-miterlimit:10;}
	.st85{fill:none;stroke:#3675B6;stroke-width:2;stroke-linecap:round;stroke-miterlimit:10;}
	.st86{fill:#DF5041;stroke:#91CFE9;stroke-miterlimit:10;}
	.st87{clip-path:url(#SVGID_38_);}
	.st88{clip-path:url(#SVGID_38_);fill:#FFFFFF;}
	.st89{clip-path:url(#SVGID_40_);}
	.st90{clip-path:url(#SVGID_42_);fill:#4EA4D9;}
	.st91{fill:none;stroke:#91CFE9;stroke-linecap:round;stroke-miterlimit:10;}
	.st92{fill:none;stroke:#91CFE9;stroke-linecap:round;stroke-miterlimit:10;stroke-dasharray:1.8371,1.8371;}
	.st93{clip-path:url(#SVGID_44_);fill:#3675B6;}
	.st94{clip-path:url(#SVGID_44_);fill:#91CFE9;}
	.st95{fill-rule:evenodd;clip-rule:evenodd;}
	.st96{fill-rule:evenodd;clip-rule:evenodd;fill:#4EA4D9;}
	.st97{fill-rule:evenodd;clip-rule:evenodd;fill:#FFFFFF;}
	.st98{fill-rule:evenodd;clip-rule:evenodd;fill:#4EA5DA;}
	.st99{fill:none;stroke:#FFFFFF;stroke-width:1.5;stroke-linecap:round;stroke-miterlimit:10;}
	.st100{fill:none;stroke:#2E3D63;stroke-width:2;stroke-linecap:round;stroke-linejoin:round;stroke-miterlimit:10;}
	.st101{fill:#FFFFFF;stroke:#4EA5DA;stroke-linecap:round;stroke-linejoin:round;stroke-miterlimit:10;}
	.st102{clip-path:url(#SVGID_46_);fill:#DE4F40;}
	.st103{fill:#DF5041;stroke:#FFFFFF;stroke-miterlimit:10;}
	.st104{fill:#DF5041;stroke:#FFFFFF;stroke-width:2;stroke-miterlimit:10;}
	.st105{fill:#DF5041;stroke:#FFFFFF;stroke-width:0.5;stroke-miterlimit:10;}
	.st106{clip-path:url(#SVGID_48_);}
	.st107{clip-path:url(#SVGID_48_);fill:#FFFFFF;}
	.st108{fill:#E8EEF7;}
	.st109{fill:#D44554;}
	.st110{fill:#4EA4D9;stroke:#4EA4D9;stroke-miterlimit:10;}
	.st111{fill:#3675B6;stroke:#3675B6;stroke-miterlimit:10;}
	.st112{stroke:#3675B6;stroke-miterlimit:10;}
	.st113{fill:#DE4F40;stroke:#DF5041;stroke-miterlimit:10;}
	.st114{fill-rule:evenodd;clip-rule:evenodd;fill:#DE4F40;}
	.st115{fill:#5FB257;}
	.st116{fill:#FAED56;}
	.st117{fill:none;stroke:#DE4F40;stroke-width:1.5;stroke-linecap:round;stroke-miterlimit:10;}
	.st118{fill:none;stroke:#4EA5DA;stroke-width:1.5;stroke-linecap:round;stroke-miterlimit:10;}
	.st119{fill:#3575B4;}
	.st120{fill:#BCBEC0;}
	.st121{fill:none;stroke:#EC993F;stroke-width:1.5;stroke-linecap:round;stroke-miterlimit:10;}
	.st122{clip-path:url(#SVGID_50_);fill:#3675B6;}
	.st123{fill:#BDBEC0;}
	.st124{clip-path:url(#SVGID_52_);fill:#DF5041;}
	.st125{fill-rule:evenodd;clip-rule:evenodd;fill:#3575B4;}
	.st126{fill:#818184;}
	.st127{fill:#4FA4D9;}
	.st128{fill:#73B759;}
	.st129{fill:#8EC05C;}
	.st130{fill:#C7D652;}
	.st131{fill:#DD893D;}
	.st132{fill:#E16E39;}
	.st133{fill:#DA3A34;}
	.st134{fill:#A4C854;}
	.st135{fill:#3E4651;}
	.st136{fill:#417AB9;}
	.st137{clip-path:url(#SVGID_54_);fill:#E9F5FC;}
	.st138{clip-path:url(#SVGID_56_);fill:#E9F5FC;}
	.st139{fill:#E9F5FC;}
	.st140{clip-path:url(#SVGID_58_);fill:#F2B257;}
	.st141{clip-path:url(#SVGID_60_);fill:#F2B257;}
	.st142{fill:none;stroke:#FFFFFF;stroke-linecap:round;stroke-miterlimit:10;}
	.st143{clip-path:url(#SVGID_62_);fill:#FFFFFF;}
	.st144{fill:#3575B7;}
	.st145{fill:none;stroke:#FFFFFF;stroke-miterlimit:10;}
	.st146{fill:#FFFFFF;stroke:#FFFFFF;stroke-width:2;stroke-miterlimit:10;}
	.st147{clip-path:url(#SVGID_64_);fill:#DF5041;}
	.st148{clip-path:url(#SVGID_66_);fill:#3675B6;}
	.st149{clip-path:url(#SVGID_68_);fill:#3575B2;}
	.st150{fill:#DD403B;}
</style>
<g>
	<path class="st150" d="M30.5,18c0,6.9-5.6,12.5-12.5,12.5S5.5,24.9,5.5,18S11.1,5.5,18,5.5S30.5,11.1,30.5,18z M18,8.3
		c-5.4,0-9.7,4.4-9.7,9.7s4.4,9.7,9.7,9.7s9.7-4.4,9.7-9.7S23.4,8.3,18,8.3z"/>
	<g>
		<g>
			<path class="st150" d="M12.5,22.2c0-0.3,0.1-0.7,0.4-0.9l3.3-3.3l-3.3-3.3c-0.2-0.2-0.4-0.6-0.4-0.9c0-0.7,0.6-1.3,1.3-1.3
				c0.4,0,0.7,0.1,0.9,0.4l3.3,3.2l3.3-3.3c0.3-0.3,0.6-0.4,0.9-0.4c0.7,0,1.3,0.6,1.3,1.3c0,0.3-0.1,0.6-0.4,0.9L19.9,18l3.3,3.3
				c0.2,0.3,0.4,0.6,0.4,0.9c0,0.7-0.6,1.3-1.3,1.3c-0.4,0-0.7-0.1-1-0.4L18,19.9l-3.2,3.2c-0.3,0.3-0.6,0.4-1,0.4
				C13,23.5,12.5,22.9,12.5,22.2z"/>
			<path class="st150" d="M22.2,23.6c-0.4,0-0.8-0.1-1-0.4L18,20l-3.1,3.2c-0.3,0.3-0.6,0.4-1,0.4c-0.8,0-1.4-0.6-1.4-1.4
				c0-0.4,0.2-0.7,0.4-1L16,18l-3.2-3.2c-0.3-0.3-0.4-0.6-0.4-1c0-0.8,0.6-1.4,1.4-1.4c0.4,0,0.7,0.1,1,0.4L18,16l3.2-3.2
				c0.3-0.3,0.6-0.4,1-0.4c0.8,0,1.4,0.6,1.4,1.4c0,0.4-0.1,0.7-0.4,1L20,18l3.2,3.2c0.3,0.3,0.4,0.6,0.4,1
				C23.6,23,23,23.6,22.2,23.6z M18,19.7l3.3,3.3c0.2,0.2,0.5,0.4,0.9,0.4c0.7,0,1.2-0.5,1.2-1.2c0-0.3-0.1-0.6-0.4-0.8L19.7,18
				l3.4-3.4c0.2-0.2,0.4-0.5,0.4-0.8c0-0.7-0.5-1.2-1.2-1.2c-0.3,0-0.6,0.1-0.9,0.4L18,16.3L14.6,13c-0.2-0.2-0.5-0.4-0.9-0.4
				c-0.7,0-1.2,0.5-1.2,1.2c0,0.3,0.1,0.6,0.4,0.8l3.4,3.4L13,21.4c-0.2,0.2-0.4,0.5-0.4,0.8c0,0.7,0.5,1.2,1.2,1.2
				c0.3,0,0.6-0.1,0.9-0.4L18,19.7z"/>
		</g>
	</g>
</g>
</svg>
