<svg xmlns="http://www.w3.org/2000/svg" width="368.986" height="368.986" viewBox="0 0 368.986 368.986">
  <g id="Group_139" data-name="Group 139" transform="translate(-2554 -1486)">
    <path id="Path_124" data-name="Path 124" d="M426.985,628.493c0,101.893-82.6,184.493-184.493,184.493S58,730.385,58,628.493,140.6,444,242.492,444s184.5,82.605,184.493,184.5ZM242.493,484.934A143.558,143.558,0,1,0,386.051,628.492,143.558,143.558,0,0,0,242.493,484.934Z" transform="translate(2496.001 1042)" fill="#32a53e"/>
    <circle id="Ellipse_28" data-name="Ellipse 28" cx="161.671" cy="161.671" r="161.671" transform="translate(2577 1509)" fill="#32a53e"/>
    <path id="Path_125" data-name="Path 125" d="M268.241,471.916,124.52,615.638,65.2,556.314,85,536.507l40.563,40.563L249.509,452.945Z" transform="translate(2571.552 1133.585)" fill="#fff" stroke="#fff" stroke-linecap="round" stroke-linejoin="round" stroke-width="1.25"/>
  </g>
</svg>
