<svg xmlns="http://www.w3.org/2000/svg" xmlns:xlink="http://www.w3.org/1999/xlink" width="36" height="36" viewBox="0 0 36 36">
  <defs>
    <clipPath id="clip-o2">
      <rect width="36" height="36"/>
    </clipPath>
  </defs>
  <g id="o2" clip-path="url(#clip-o2)">
    <g id="Group_111" data-name="Group 111" transform="translate(-1.782 -5.676)">
      <path id="Path_119" data-name="Path 119" d="M17.735,6.374A14.919,14.919,0,1,0,32.655,21.292,14.934,14.934,0,0,0,17.735,6.374Zm0,27.158A12.242,12.242,0,1,1,29.977,21.289,12.255,12.255,0,0,1,17.735,33.532Z" transform="translate(1.965 2.302)" fill="#0097d9"/>
      <path id="Path_120" data-name="Path 120" d="M12.7,13.623a5.9,5.9,0,0,0-4.369,1.568,5.922,5.922,0,0,0-1.569,4.384,6.5,6.5,0,0,0,.792,3.355,4.829,4.829,0,0,0,2.067,1.962,7.385,7.385,0,0,0,3.22.619,6.472,6.472,0,0,0,3.2-.717A4.877,4.877,0,0,0,18,22.788a7.1,7.1,0,0,0,.678-3.308,5.807,5.807,0,0,0-1.554-4.318A6.009,6.009,0,0,0,12.7,13.623Zm1.8,8.485a2.192,2.192,0,0,1-1.772.745,2.185,2.185,0,0,1-1.76-.761,3.85,3.85,0,0,1-.647-2.5,3.863,3.863,0,0,1,.652-2.517,2.158,2.158,0,0,1,1.726-.763,2.247,2.247,0,0,1,1.777.749,3.556,3.556,0,0,1,.656,2.373A4.271,4.271,0,0,1,14.5,22.108Z" transform="translate(2.706 3.663)" fill="#0097d9"/>
      <path id="Path_121" data-name="Path 121" d="M20.647,22.6c.144-.116.428-.371.855-.666a5.652,5.652,0,0,0,1.482-1.413,2.475,2.475,0,0,0,.406-1.34,2.095,2.095,0,0,0-1.329-1.969,4.7,4.7,0,0,0-1.738-.258,4.226,4.226,0,0,0-1.675.267,2.083,2.083,0,0,0-.935.767,3.367,3.367,0,0,0-.456,1.393l2.118.173a1.561,1.561,0,0,1,.346-.9.983.983,0,0,1,1.309-.007.791.791,0,0,1,.257.594,1.176,1.176,0,0,1-.259.679,6.219,6.219,0,0,1-1.19,1.046,9.078,9.078,0,0,0-2.073,1.858A14.092,14.092,0,0,0,17.1,24.5H22.9V23.159h-2.75C20.335,23.16,20.5,22.717,20.647,22.6Z" transform="translate(4.648 4.288)" fill="#0097d9"/>
    </g>
  </g>
</svg>
