<svg xmlns="http://www.w3.org/2000/svg" width="679.082" height="580.302" viewBox="0 0 679.082 580.302">
  <g id="Group_25" data-name="Group 25" transform="translate(-735 -139.698)">
    <path id="Path_1" data-name="Path 1" d="M429.032,128.252c-70.4,22.478-293.4-88.36-275.948,63.037,2.729,22.512,17.227,54.309,4.983,75.326-8.873,15.739-25.138,24.962-40.847,31.081-41.037,16.684-56.318,48-45.925,92.684,27.8,120.42,179.125,91.862,258.566,56.156,56.5-26.572,123.127-31.135,181.627-8.658,45.833,18.3,74.4,56.7,128.194,45.45,47.7-9.573,54.9-54.611,40.973-96.537-7.913-25.938-13.6-36.9,2.1-61.936,13.228-24.866,36.51-43.709,38.3-72.84.392-31.552-14.108-63.348-42.165-75.3-22.958-9.776-43.766-5.83-66.476-11.841-50.515-14.2-82.978-92.682-145.644-65.69-15.626,7.375-24.417,24.372-41.442,29.322" transform="translate(672.86 63.517)" fill="#4cc0eb"/>
    <g id="Group_1" data-name="Group 1" transform="translate(746.177 145.094)" opacity="0.3">
      <path id="Path_2" data-name="Path 2" d="M254.58,104.094" transform="translate(75.608 -73.178)" fill="#4cc0eb" stroke="#a2dbf1" stroke-miterlimit="10" stroke-width="1.1"/>
      <path id="Path_3" data-name="Path 3" d="M91.643,185.907" transform="translate(-54.543 -7.827)" fill="#4cc0eb" stroke="#a2dbf1" stroke-miterlimit="10" stroke-width="2.2"/>
      <path id="Path_4" data-name="Path 4" d="M422.33,229.769" transform="translate(209.604 27.209)" fill="#4cc0eb" stroke="#a2dbf1" stroke-miterlimit="10" stroke-width="2.2"/>
      <path id="Path_5" data-name="Path 5" d="M236.018,98.594" transform="translate(60.781 -77.572)" fill="#4cc0eb" stroke="#a2dbf1" stroke-miterlimit="10" stroke-width="2.2"/>
      <path id="Path_6" data-name="Path 6" d="M433.33,210.657" transform="translate(218.391 11.942)" fill="#4cc0eb" stroke="#a2dbf1" stroke-miterlimit="10" stroke-width="2.86"/>
      <path id="Path_7" data-name="Path 7" d="M73.081,202.407" transform="translate(-69.37 5.353)" fill="#4cc0eb" stroke="#a2dbf1" stroke-miterlimit="10" stroke-width="2.86"/>
      <path id="Path_8" data-name="Path 8" d="M378.33,116.469" transform="translate(174.458 -63.293)" fill="#4cc0eb" stroke="#a2dbf1" stroke-miterlimit="10" stroke-width="2.86"/>
      <path id="Path_9" data-name="Path 9" d="M251.83,86.907" transform="translate(73.412 -86.907)" fill="#4cc0eb" stroke="#a2dbf1" stroke-miterlimit="10" stroke-width="3.3"/>
      <path id="Path_10" data-name="Path 10" d="M439.243,226.606" transform="translate(223.114 24.682)" fill="#4cc0eb" stroke="#a2dbf1" stroke-miterlimit="10" stroke-width="1.65"/>
      <path id="Path_11" data-name="Path 11" d="M71.155,182.469" transform="translate(-70.909 -10.574)" fill="#4cc0eb" stroke="#a2dbf1" stroke-miterlimit="10" stroke-width="1.65"/>
      <path id="Path_12" data-name="Path 12" d="M395.518,127.469" transform="translate(188.187 -54.507)" fill="#4cc0eb" stroke="#a2dbf1" stroke-miterlimit="10" stroke-width="1.65"/>
      <path id="Path_13" data-name="Path 13" d="M394.143,113.719" transform="translate(187.089 -65.49)" fill="#4cc0eb" stroke="#a2dbf1" stroke-miterlimit="10" stroke-width="1.1"/>
      <path id="Path_14" data-name="Path 14" d="M115.568,101.481" transform="translate(-35.432 -75.266)" fill="#4cc0eb" stroke="#a2dbf1" stroke-miterlimit="10" stroke-width="2.2"/>
      <path id="Path_15" data-name="Path 15" d="M428.518,291.1" transform="translate(214.547 76.195)" fill="#4cc0eb" stroke="#a2dbf1" stroke-miterlimit="10" stroke-width="2.2"/>
      <path id="Path_16" data-name="Path 16" d="M71.018,295.907" transform="translate(-71.018 80.039)" fill="#4cc0eb" stroke="#a2dbf1" stroke-miterlimit="10" stroke-width="2.2"/>
      <path id="Path_17" data-name="Path 17" d="M132.068,95.981" transform="translate(-22.252 -79.659)" fill="#4cc0eb" stroke="#a2dbf1" stroke-miterlimit="10" stroke-width="1.1"/>
      <path id="Path_18" data-name="Path 18" d="M429.2,271.845" transform="translate(215.096 60.818)" fill="#4cc0eb" stroke="#a2dbf1" stroke-miterlimit="10" stroke-width="1.1"/>
      <path id="Path_19" data-name="Path 19" d="M87.518,305.532" transform="translate(-57.838 87.727)" fill="#4cc0eb" stroke="#a2dbf1" stroke-miterlimit="10" stroke-width="1.1"/>
    </g>
    <path id="Path_38" data-name="Path 38" d="M254.58,104.094" transform="translate(820.165 81.36)" fill="#4cc0eb"/>
    <path id="Path_39" data-name="Path 39" d="M256.7,111.237c6.366,0,6.377-9.893,0-9.893s-6.377,9.893,0,9.893Z" transform="translate(818.043 79.163)" fill="#4cc0eb"/>
    <path id="Path_40" data-name="Path 40" d="M91.643,185.907" transform="translate(690.014 146.711)" fill="#4cc0eb"/>
    <path id="Path_41" data-name="Path 41" d="M95.887,200.194c12.732,0,12.752-19.787,0-19.787-12.732,0-12.753,19.787,0,19.787Z" transform="translate(685.77 142.317)" fill="#4cc0eb"/>
    <path id="Path_42" data-name="Path 42" d="M422.33,229.769" transform="translate(954.161 181.747)" fill="#4cc0eb"/>
    <path id="Path_43" data-name="Path 43" d="M426.574,244.056c12.732,0,12.753-19.787,0-19.787-12.732,0-12.753,19.787,0,19.787Z" transform="translate(949.917 177.354)" fill="#4cc0eb"/>
    <path id="Path_44" data-name="Path 44" d="M236.018,98.594" transform="translate(805.338 76.967)" fill="#4cc0eb"/>
    <path id="Path_45" data-name="Path 45" d="M240.262,112.881c12.732,0,12.752-19.787,0-19.787-12.732,0-12.753,19.787,0,19.787Z" transform="translate(801.094 72.573)" fill="#4cc0eb"/>
    <path id="Path_46" data-name="Path 46" d="M433.33,210.657" transform="translate(962.948 166.481)" fill="#4cc0eb"/>
    <path id="Path_47" data-name="Path 47" d="M438.847,229.23c16.551,0,16.579-25.723,0-25.723-16.551,0-16.579,25.723,0,25.723Z" transform="translate(957.431 160.769)" fill="#4cc0eb"/>
    <path id="Path_48" data-name="Path 48" d="M73.081,202.407" transform="translate(675.187 159.891)" fill="#4cc0eb"/>
    <path id="Path_49" data-name="Path 49" d="M78.6,220.98c16.551,0,16.578-25.723,0-25.723-16.552,0-16.579,25.723,0,25.723Z" transform="translate(669.669 154.179)" fill="#4cc0eb"/>
    <path id="Path_50" data-name="Path 50" d="M378.33,116.469" transform="translate(919.015 91.245)" fill="#4cc0eb"/>
    <path id="Path_51" data-name="Path 51" d="M383.847,135.042c16.551,0,16.579-25.723,0-25.723-16.551,0-16.579,25.723,0,25.723Z" transform="translate(913.498 85.534)" fill="#4cc0eb"/>
    <path id="Path_52" data-name="Path 52" d="M251.83,86.907" transform="translate(817.969 67.631)" fill="#4cc0eb"/>
    <path id="Path_53" data-name="Path 53" d="M258.2,108.337c19.1,0,19.13-29.68,0-29.68-19.1,0-19.128,29.68,0,29.68Z" transform="translate(811.603 61.041)" fill="#4cc0eb"/>
    <path id="Path_54" data-name="Path 54" d="M439.243,226.606" transform="translate(967.671 179.221)" fill="#4cc0eb"/>
    <path id="Path_55" data-name="Path 55" d="M442.426,237.321c9.55,0,9.564-14.84,0-14.84-9.548,0-9.564,14.84,0,14.84Z" transform="translate(964.488 175.926)" fill="#4cc0eb"/>
    <path id="Path_56" data-name="Path 56" d="M71.155,182.469" transform="translate(673.648 143.965)" fill="#4cc0eb"/>
    <path id="Path_57" data-name="Path 57" d="M74.338,193.184c9.55,0,9.566-14.84,0-14.84-9.548,0-9.564,14.84,0,14.84Z" transform="translate(670.466 140.67)" fill="#4cc0eb"/>
    <path id="Path_58" data-name="Path 58" d="M395.518,127.469" transform="translate(932.744 100.031)" fill="#4cc0eb"/>
    <path id="Path_59" data-name="Path 59" d="M398.7,138.184c9.548,0,9.564-14.84,0-14.84s-9.566,14.84,0,14.84Z" transform="translate(929.561 96.737)" fill="#4cc0eb"/>
    <path id="Path_60" data-name="Path 60" d="M394.143,113.719" transform="translate(931.646 89.048)" fill="#4cc0eb"/>
    <path id="Path_61" data-name="Path 61" d="M396.265,120.862c6.366,0,6.375-9.893,0-9.893s-6.377,9.893,0,9.893Z" transform="translate(929.524 86.852)" fill="#4cc0eb"/>
    <path id="Path_62" data-name="Path 62" d="M115.568,101.481" transform="translate(709.125 79.273)" fill="#4cc0eb"/>
    <path id="Path_63" data-name="Path 63" d="M119.812,115.768c12.732,0,12.753-19.787,0-19.787-12.732,0-12.752,19.787,0,19.787Z" transform="translate(704.881 74.879)" fill="#4cc0eb"/>
    <path id="Path_64" data-name="Path 64" d="M428.518,291.1" transform="translate(959.104 230.733)" fill="#4cc0eb"/>
    <path id="Path_65" data-name="Path 65" d="M432.762,305.382c12.732,0,12.752-19.787,0-19.787-12.732,0-12.753,19.787,0,19.787Z" transform="translate(954.86 226.34)" fill="#4cc0eb"/>
    <path id="Path_66" data-name="Path 66" d="M71.018,295.907" transform="translate(673.539 234.577)" fill="#4cc0eb"/>
    <path id="Path_67" data-name="Path 67" d="M75.262,310.194c12.732,0,12.753-19.787,0-19.787-12.732,0-12.753,19.787,0,19.787Z" transform="translate(669.295 230.184)" fill="#4cc0eb"/>
    <path id="Path_68" data-name="Path 68" d="M132.068,95.981" transform="translate(722.305 74.879)" fill="#4cc0eb"/>
    <path id="Path_69" data-name="Path 69" d="M134.19,103.124c6.366,0,6.377-9.893,0-9.893s-6.375,9.893,0,9.893Z" transform="translate(720.183 72.683)" fill="#4cc0eb"/>
    <path id="Path_70" data-name="Path 70" d="M429.2,271.845" transform="translate(959.653 215.357)" fill="#4cc0eb"/>
    <path id="Path_71" data-name="Path 71" d="M431.327,278.988c6.366,0,6.377-9.893,0-9.893s-6.377,9.893,0,9.893Z" transform="translate(957.531 213.16)" fill="#4cc0eb"/>
    <path id="Path_72" data-name="Path 72" d="M87.518,305.532" transform="translate(686.719 242.265)" fill="#4cc0eb"/>
    <path id="Path_73" data-name="Path 73" d="M89.64,312.675c6.366,0,6.375-9.893,0-9.893s-6.377,9.893,0,9.893Z" transform="translate(684.597 240.069)" fill="#4cc0eb"/>
    <g id="Group_7" data-name="Group 7" transform="translate(822 327.221)">
      <g id="Group_4" data-name="Group 4">
        <path id="Path_74" data-name="Path 74" d="M204.8,249.738c-20.774,8.082-16.819-9.893-27.7-22.753-9.893-11.874-12.863-5.936-25.723-5.936-39.573-2.968-21.767-21.765-32.65-43.531" transform="translate(-101.913 -157.732)" fill="none" stroke="#222221" stroke-miterlimit="10" stroke-width="0.825"/>
        <g id="Group_3" data-name="Group 3">
          <path id="Path_75" data-name="Path 75" d="M127.965,171.744c-2.968,3.957-5.276,5.441-9.235,7.42" transform="translate(-101.913 -162.345)" fill="none" stroke="#222221" stroke-miterlimit="10" stroke-width="0.66"/>
          <path id="Path_76" data-name="Path 76" d="M118.182,166.519c-.047,4.288.988,12.861.988,18.8" transform="translate(-102.352 -166.519)" fill="none" stroke="#222221" stroke-miterlimit="10" stroke-width="0.66"/>
          <path id="Path_77" data-name="Path 77" d="M112.131,168.719c3.956,4.947,7.913,9.893,12.86,12.861" transform="translate(-107.184 -164.762)" fill="none" stroke="#222221" stroke-miterlimit="10" stroke-width="0.66"/>
          <path id="Path_78" data-name="Path 78" d="M109.381,173.668a15.578,15.578,0,0,0,16.817,3.959" transform="translate(-109.381 -160.809)" fill="none" stroke="#222221" stroke-miterlimit="10" stroke-width="0.66"/>
        </g>
      </g>
      <g id="Group_6" data-name="Group 6" transform="translate(401.668 19.787)">
        <path id="Path_79" data-name="Path 79" d="M332.681,257.11c0-17.806,8.9-16.817,22.753-17.806,18.8-.989,13.851-.989,19.787-16.82,9.893-24.733,44.52-3.956,45.511-35.614" transform="translate(-332.681 -170.05)" fill="none" stroke="#222221" stroke-miterlimit="10" stroke-width="0.825"/>
        <g id="Group_5" data-name="Group 5" transform="translate(77.166)">
          <path id="Path_80" data-name="Path 80" d="M375.58,181.369a19.6,19.6,0,0,0,10.885,10.881" transform="translate(-375.58 -174.444)" fill="none" stroke="#222221" stroke-miterlimit="10" stroke-width="0.66"/>
          <path id="Path_81" data-name="Path 81" d="M380.53,177.519v14.84" transform="translate(-371.626 -177.519)" fill="none" stroke="#222221" stroke-miterlimit="10" stroke-width="0.66"/>
          <path id="Path_82" data-name="Path 82" d="M390.423,178.619a27.752,27.752,0,0,1-9.893,13.851" transform="translate(-371.626 -176.64)" fill="none" stroke="#222221" stroke-miterlimit="10" stroke-width="0.66"/>
          <path id="Path_83" data-name="Path 83" d="M395.593,182.469c-2.97,4.947-7.916,7.915-12.863,9.893" transform="translate(-369.869 -173.565)" fill="none" stroke="#222221" stroke-miterlimit="10" stroke-width="0.66"/>
        </g>
      </g>
    </g>
    <g id="Group_23" data-name="Group 23" transform="translate(883.815 278.953)">
      <g id="Group_13" data-name="Group 13" transform="translate(0 200.066)">
        <g id="Group_11" data-name="Group 11" transform="translate(1.989)">
          <path id="Path_84" data-name="Path 84" d="M521.8,313.464c0,5.19-38.861,6.7-43.061,6.7H187.915c-4.195,0-43.063-1.507-43.063-6.7l35.463-53.158c0-5.191,3.405-9.4,7.6-9.4H478.737c4.2,0,7.6,4.207,7.6,9.4Z" transform="translate(-144.852 -250.908)" fill="#b3b3b3"/>
          <g id="Group_10" data-name="Group 10" transform="translate(19.299 19.056)">
            <g id="Group_8" data-name="Group 8">
              <path id="Path_85" data-name="Path 85" d="M249.573,293.16H174.83L187.908,261.5h67.6Z" transform="translate(-140.205 -261.502)" fill="#3e3e3d"/>
              <path id="Path_86" data-name="Path 86" d="M285.515,293.16h74.743L347.177,261.5h-67.6Z" transform="translate(-56.534 -261.502)" fill="#3e3e3d"/>
              <path id="Path_87" data-name="Path 87" d="M335.742,293.16h26.32L340.525,261.5H320.67Z" transform="translate(-23.711 -261.502)" fill="#3e3e3d"/>
              <path id="Path_88" data-name="Path 88" d="M181.9,293.16H155.581L177.119,261.5h19.852Z" transform="translate(-155.581 -261.502)" fill="#3e3e3d"/>
              <path id="Path_89" data-name="Path 89" d="M326.5,293.16H220.036l5.936-31.658h94.594Z" transform="translate(-104.095 -261.502)" fill="#3e3e3d"/>
            </g>
            <g id="Group_9" data-name="Group 9" transform="translate(2.969 5.777)">
              <rect id="Rectangle_1" data-name="Rectangle 1" width="325.36" height="4.846" transform="translate(3.527)" fill="#b3b3b3"/>
              <rect id="Rectangle_2" data-name="Rectangle 2" width="332.415" height="4.846" transform="translate(0 11.871)" fill="#b3b3b3"/>
            </g>
          </g>
        </g>
        <g id="Group_12" data-name="Group 12" transform="translate(0 60.756)">
          <path id="Path_90" data-name="Path 90" d="M524.673,298.8c0,4.2-.871,7.6-5.064,7.6H148.81c-4.2,0-5.064-3.4-5.064-7.6V292.28c0-4.2.865-7.6,5.064-7.6h370.8c4.193,0,5.064,3.4,5.064,7.6Z" transform="translate(-143.746 -284.684)" fill="#3e3e3d"/>
          <path id="Path_91" data-name="Path 91" d="M349.994,292.576a3.959,3.959,0,0,1-3.957,3.959H214.95a3.958,3.958,0,0,1-3.957-3.959h0a3.956,3.956,0,0,1,3.957-3.957H346.037a3.957,3.957,0,0,1,3.957,3.957Z" transform="translate(-90.03 -281.541)" fill="#6f6f6f"/>
        </g>
      </g>
      <g id="Group_22" data-name="Group 22" transform="translate(33.654)">
        <rect id="Rectangle_3" data-name="Rectangle 3" width="313.619" height="209.889" rx="4.226" fill="#3e3e3d"/>
        <path id="Path_92" data-name="Path 92" d="M249.631,143.8" transform="translate(-92.82 -136.397)" fill="none" stroke="#fff" stroke-miterlimit="10" stroke-width="0.704"/>
        <g id="Group_21" data-name="Group 21" transform="translate(21.951 16.089)">
          <path id="Rectangle_4" data-name="Rectangle 4" d="M3.634,0H266.082a3.634,3.634,0,0,1,3.634,3.634v173.23a3.635,3.635,0,0,1-3.635,3.635H3.632A3.632,3.632,0,0,1,0,176.867V3.634A3.634,3.634,0,0,1,3.634,0Z" fill="#fff"/>
          <g id="Group_20" data-name="Group 20" transform="translate(45.82 67.862)">
            <g id="Group_16" data-name="Group 16" transform="translate(27.389)">
              <g id="Group_14" data-name="Group 14">
                <line id="Line_1" data-name="Line 1" x1="22.388" y2="22.385" stroke-width="3.3" stroke="#425973" stroke-linecap="round" stroke-linejoin="round" fill="none"/>
                <line id="Line_2" data-name="Line 2" x1="22.386" y1="22.386" transform="translate(0.002 0.002)" fill="none" stroke="#425973" stroke-linecap="round" stroke-linejoin="round" stroke-width="3.3"/>
              </g>
              <g id="Group_15" data-name="Group 15" transform="translate(100.911)">
                <line id="Line_3" data-name="Line 3" x1="22.388" y2="22.385" stroke-width="3.3" stroke="#425973" stroke-linecap="round" stroke-linejoin="round" fill="none"/>
                <line id="Line_4" data-name="Line 4" x1="22.385" y1="22.386" transform="translate(0.004 0.002)" fill="none" stroke="#425973" stroke-linecap="round" stroke-linejoin="round" stroke-width="3.3"/>
              </g>
            </g>
            <g id="Group_18" data-name="Group 18" transform="translate(21.956 49.375)">
              <g id="Group_17" data-name="Group 17" transform="translate(98.586 0.025)">
                <path id="Path_93" data-name="Path 93" d="M287.242,213.819v22.094a7.914,7.914,0,0,1-7.915,7.915h-4.268a7.914,7.914,0,0,1-7.915-7.915V213.819" transform="translate(-267.144 -213.819)" fill="#dd9ab2"/>
                <path id="Path_94" data-name="Path 94" d="M272.73,214.46v25.723" transform="translate(-262.682 -213.307)" fill="none" stroke="#d6819f" stroke-miterlimit="10" stroke-width="3.86"/>
              </g>
              <line id="Line_5" data-name="Line 5" x2="134.166" stroke-width="2.75" stroke="#425973" stroke-linecap="round" stroke-linejoin="round" fill="none"/>
            </g>
            <g id="Group_19" data-name="Group 19" transform="translate(0 36.209)">
              <path id="Path_95" data-name="Path 95" d="M200.131,206.486" transform="translate(-200.131 -206.486)" fill="none" stroke="#e9c2d0" stroke-miterlimit="10" stroke-width="2.2"/>
              <path id="Path_96" data-name="Path 96" d="M299.131,206.486" transform="translate(-121.051 -206.486)" fill="none" stroke="#e9c2d0" stroke-miterlimit="10" stroke-width="2.2"/>
            </g>
          </g>
        </g>
      </g>
    </g>
    <text id="Please_Enabled_your_Browser_Cookies_settings" data-name="Please Enabled your Browser Cookies settings" transform="translate(1075 712)" fill="#222" font-size="30" font-family="Roboto-Bold, Roboto" font-weight="700"><tspan x="-312.81" y="0">Please Enabled your Browser Cookies settings</tspan></text>
  </g>
</svg>
