<svg xmlns="http://www.w3.org/2000/svg" width="14" height="14" viewBox="0 0 14 14">
  <g id="opentasks" transform="translate(-835 -451)">
    <circle id="Ellipse_1" data-name="Ellipse 1" cx="7" cy="7" r="7" transform="translate(835 451)" fill="#0076bd"/>
    <g id="Subtraction_1" data-name="Subtraction 1" transform="translate(835 444)" fill="#fff">
      <path d="M 6.500200271606445 20.48068809509277 C 3.148938894271851 20.22456932067871 0.5000001192092896 17.41579818725586 0.5000001192092896 14.00039863586426 C 0.5000001192092896 10.58440780639648 3.148713350296021 7.775396823883057 6.500200271606445 7.519235134124756 L 6.500200271606445 20.48068809509277 Z" stroke="none"/>
      <path d="M 6.000200271606445 19.91642951965332 L 6.000200271606445 8.083526611328125 C 3.166026830673218 8.56102466583252 1.00000011920929 11.03254413604736 1.00000011920929 14.00039863586426 C 1.00000011920929 16.96792030334473 3.165953159332275 19.43924713134766 6.000200271606445 19.91642951965332 M 7.000200271606445 20.99969863891602 L 6.999200344085693 20.99969863891602 C 3.139830112457275 20.99931907653809 1.358032193365943e-07 17.85944938659668 1.358032193365943e-07 14.00039863586426 C 1.358032193365943e-07 10.14047813415527 3.140280246734619 7.000198364257813 7.000200271606445 7.000198364257813 L 7.000200271606445 20.99869918823242 L 7.000200271606445 20.99969863891602 Z" stroke="none" fill="#0076bd"/>
    </g>
  </g>
</svg>
