<svg xmlns="http://www.w3.org/2000/svg" xmlns:xlink="http://www.w3.org/1999/xlink" width="36" height="36" viewBox="0 0 36 36">
  <defs>
    <clipPath id="clip-PM_cares">
      <rect width="36" height="36"/>
    </clipPath>
  </defs>
  <g id="PM_cares" data-name="PM cares" clip-path="url(#clip-PM_cares)">
    <path id="Path_64" data-name="Path 64" d="M26.913,761.37a15,15,0,1,1-8.508-27.253c-3.894,4.193-5.784,9.469-4.691,14.666C15.006,754.924,20.158,759.489,26.913,761.37Zm-1.7-16.456L25.5,742.5a.269.269,0,0,1,.157-.215l2.213-1.011a.272.272,0,0,0,0-.494l-2.209-1.018a.271.271,0,0,1-.156-.216l-.278-2.417a.272.272,0,0,0-.47-.154l-1.651,1.787a.27.27,0,0,1-.254.082l-2.384-.483a.272.272,0,0,0-.291.4l1.189,2.123a.273.273,0,0,1,0,.267l-1.2,2.118a.272.272,0,0,0,.29.4l2.386-.475a.275.275,0,0,1,.254.083l1.645,1.792A.271.271,0,0,0,25.217,744.914Zm-1.24,7.014-.638-1.584a.189.189,0,0,1,.024-.185l1.022-1.368a.19.19,0,0,0-.166-.3l-1.7.117a.192.192,0,0,1-.169-.08l-.985-1.395a.191.191,0,0,0-.341.064l-.414,1.656a.192.192,0,0,1-.129.136l-1.631.505a.191.191,0,0,0-.044.344l1.446.907a.188.188,0,0,1,.09.164l-.023,1.707a.191.191,0,0,0,.313.149l1.309-1.1a.189.189,0,0,1,.184-.034l1.616.549A.191.191,0,0,0,23.977,751.928Zm8.521-4.04-1.1-.807a.156.156,0,0,1-.061-.136l.122-1.355a.152.152,0,0,0-.24-.137l-1.106.792a.153.153,0,0,1-.149.016l-1.251-.534a.151.151,0,0,0-.2.185l.411,1.3a.152.152,0,0,1-.031.146L28,748.38a.152.152,0,0,0,.113.252l1.361.01a.149.149,0,0,1,.129.074l.7,1.167a.152.152,0,0,0,.275-.03L31,748.562a.154.154,0,0,1,.111-.1l1.326-.3A.152.152,0,0,0,32.5,747.888Z" transform="translate(0 -730)" fill="#0064af"/>
  </g>
</svg>
