<svg xmlns="http://www.w3.org/2000/svg" xmlns:xlink="http://www.w3.org/1999/xlink" width="25" height="25" viewBox="0 0 25 25">
  <defs>
    <clipPath id="clip-path">
      <rect id="Rectangle_235" data-name="Rectangle 235" width="25" height="25"/>
    </clipPath>
  </defs>
  <g id="positive" clip-path="url(#clip-path)">
    <g id="virus_1_" data-name="virus (1)" transform="translate(2.354 2.354)">
      <path id="Path_1031" data-name="Path 1031" d="M97.933,91.243a6.69,6.69,0,1,0,6.69,6.69A6.7,6.7,0,0,0,97.933,91.243Z" transform="translate(-87.597 -87.597)" fill="#ef4036"/>
      <path id="Path_1032" data-name="Path 1032" d="M162.509,1.478l.05-.014.362,1.352a7.515,7.515,0,0,1,1.128-.3l-.362-1.352.05-.014a.584.584,0,1,0-.3-1.128L162.206.35a.584.584,0,0,0,.3,1.128Z" transform="translate(-155.276 0)" fill="#ef4036"/>
      <path id="Path_1033" data-name="Path 1033" d="M57.118,58.017l.037-.037.992.992a7.648,7.648,0,0,1,.826-.826l-.992-.992.037-.037a.584.584,0,0,0-.826-.826l-.9.9a.584.584,0,1,0,.826.826Z" transform="translate(-53.935 -53.934)" fill="#ef4036"/>
      <path id="Path_1034" data-name="Path 1034" d="M.435,164.144a.584.584,0,0,0,.715-.413l.014-.05,1.352.362a7.519,7.519,0,0,1,.3-1.128l-1.352-.362.014-.05a.584.584,0,0,0-1.128-.3l-.329,1.229a.584.584,0,0,0,.413.715Z" transform="translate(-0.002 -155.269)" fill="#ef4036"/>
      <path id="Path_1035" data-name="Path 1035" d="M1.466,290.266l1.352-.362a7.516,7.516,0,0,1-.3-1.128l-1.352.362-.014-.05a.584.584,0,1,0-1.128.3l.329,1.229a.584.584,0,1,0,1.128-.3Z" transform="translate(-0.001 -277.062)" fill="#ef4036"/>
      <path id="Path_1036" data-name="Path 1036" d="M58.146,382.631l-.992.992-.037-.037a.584.584,0,1,0-.826.826l.9.9a.584.584,0,1,0,.826-.826l-.037-.037.992-.992A7.654,7.654,0,0,1,58.146,382.631Z" transform="translate(-53.935 -367.182)" fill="#ef4036"/>
      <path id="Path_1037" data-name="Path 1037" d="M163.745,441.347l-.05-.013.362-1.352a7.514,7.514,0,0,1-1.128-.3l-.362,1.352-.05-.014a.584.584,0,1,0-.3,1.128l1.229.329a.584.584,0,1,0,.3-1.128Z" transform="translate(-155.283 -422.008)" fill="#ef4036"/>
      <path id="Path_1038" data-name="Path 1038" d="M290.32,441.017l-.05.014-.362-1.352a7.515,7.515,0,0,1-1.128.3l.362,1.352-.05.013a.584.584,0,1,0,.3,1.128l1.229-.329a.584.584,0,0,0-.3-1.128Z" transform="translate(-277.065 -422.008)" fill="#ef4036"/>
      <path id="Path_1039" data-name="Path 1039" d="M384.49,383.586l-.037.037-.992-.992a7.647,7.647,0,0,1-.826.826l.992.992-.037.037a.584.584,0,0,0,.826.826l.9-.9a.584.584,0,1,0-.826-.826Z" transform="translate(-367.186 -367.182)" fill="#ef4036"/>
      <path id="Path_1040" data-name="Path 1040" d="M442.063,288.672a.584.584,0,0,0-.715.413l-.013.05-1.352-.362a7.515,7.515,0,0,1-.3,1.128l1.352.362-.014.05a.584.584,0,1,0,1.128.3l.329-1.229A.584.584,0,0,0,442.063,288.672Z" transform="translate(-422.009 -277.059)" fill="#ef4036"/>
      <path id="Path_1041" data-name="Path 1041" d="M441.03,162.545l-1.352.362a7.521,7.521,0,0,1,.3,1.128l1.352-.362.013.05a.584.584,0,1,0,1.128-.3l-.329-1.229a.584.584,0,1,0-1.128.3Z" transform="translate(-422.007 -155.262)" fill="#ef4036"/>
      <path id="Path_1042" data-name="Path 1042" d="M383.458,58.973l.992-.992.037.037a.584.584,0,0,0,.826-.826l-.9-.9a.584.584,0,1,0-.826.826l.037.037-.992.992A7.656,7.656,0,0,1,383.458,58.973Z" transform="translate(-367.183 -53.935)" fill="#ef4036"/>
      <path id="Path_1043" data-name="Path 1043" d="M289.084,1.15l.05.014-.362,1.352a7.515,7.515,0,0,1,1.128.3l.362-1.352.05.014a.584.584,0,1,0,.3-1.128L289.386.021a.584.584,0,1,0-.3,1.128Z" transform="translate(-277.058 -0.001)" fill="#ef4036"/>
      <g id="Group_161" data-name="Group 161" transform="translate(7.646 7.646)">
        <g id="Group_160" data-name="Group 160" transform="translate(-1 -1)">
          <rect id="Rectangle_236" data-name="Rectangle 236" width="1.741" height="7.345" rx="0.871" transform="translate(2.802 0)" fill="#fff"/>
          <rect id="Rectangle_237" data-name="Rectangle 237" width="1.741" height="7.345" rx="0.871" transform="translate(7.345 2.802) rotate(90)" fill="#fff"/>
        </g>
      </g>
    </g>
  </g>
</svg>
