<svg xmlns="http://www.w3.org/2000/svg" xmlns:xlink="http://www.w3.org/1999/xlink" width="36" height="36" viewBox="0 0 36 36">
  <defs>
    <clipPath id="clip-pulse">
      <rect width="36" height="36"/>
    </clipPath>
  </defs>
  <g id="pulse" clip-path="url(#clip-pulse)">
    <g id="_45659" data-name="45659" transform="translate(4 3)">
      <g id="Group_102" data-name="Group 102">
        <path id="Path_117" data-name="Path 117" d="M14.5,0A14.528,14.528,0,0,0,0,14.553c0,.3.013.6.03.89l7.9-.034L10.647,4.729a1.074,1.074,0,0,1,2.112.176L13.85,18l1.835-8.7a1.073,1.073,0,0,1,2.06-.144L20,15.416l8.964.109c.022-.321.036-.645.036-.972A14.527,14.527,0,0,0,14.5,0Z" fill="#e82727"/>
        <path id="Path_118" data-name="Path 118" d="M22.1,155.906l-1.225-3.669-2.56,13.114a1.1,1.1,0,0,1-1.049.921l-.068,0a1.117,1.117,0,0,1-1-1.063l-1.165-15.092L13.7,155.8a1.093,1.093,0,0,1-1.036.875l-8.438.038c1.391,7.087,7.2,12.4,14.152,12.4,6.927,0,12.714-5.273,14.136-12.316l-9.413-.124A1.081,1.081,0,0,1,22.1,155.906Z" transform="translate(-3.876 -139.057)" fill="#e82727"/>
      </g>
    </g>
  </g>
</svg>
