<svg xmlns="http://www.w3.org/2000/svg" width="41.11" height="32.492" viewBox="0 0 41.11 32.492">
  <g id="Group_8" data-name="Group 8" transform="translate(-289.693 -785.878)">
    <g id="Group_187" data-name="Group 187" transform="translate(289.693 785.878)">
      <g id="Group_184" data-name="Group 184" transform="translate(11.599 0)">
        <path id="Path_217" data-name="Path 217" d="M318.774,807.209c0,.244-.005.487-.018.729a14.759,14.759,0,0,1-.906,4.493c-1.813,1.708-5.233,2.861-9.152,2.861s-7.34-1.152-9.155-2.861a14.838,14.838,0,0,1-.906-4.493c-.012-.242-.018-.485-.018-.729a15.542,15.542,0,0,1,.156-2.193,12.6,12.6,0,0,1,5.239-8.852,7.635,7.635,0,0,0,9.365,0,12.6,12.6,0,0,1,5.24,8.852A15.338,15.338,0,0,1,318.774,807.209Z" transform="translate(-298.62 -782.8)" fill="#1975b8"/>
        <circle id="Ellipse_43" data-name="Ellipse 43" cx="6.322" cy="6.322" r="6.322" transform="translate(2.551 12.352) rotate(-77.665)" fill="#1975b8"/>
      </g>
      <g id="Group_185" data-name="Group 185" transform="translate(0 4.721)">
        <path id="Path_218" data-name="Path 218" d="M300.428,808.061a16.886,16.886,0,0,0,.242,2.156,13.512,13.512,0,0,1-3.494.442c-2.912,0-5.449-.855-6.8-2.124a11.006,11.006,0,0,1-.672-3.334c-.009-.181-.014-.361-.014-.542a11.528,11.528,0,0,1,.117-1.629,9.35,9.35,0,0,1,3.889-6.571,5.672,5.672,0,0,0,6.952,0,8.021,8.021,0,0,1,2.235,2.222,15.138,15.138,0,0,0-2.309,6.2,17.121,17.121,0,0,0-.168,2.387C300.409,807.535,300.415,807.8,300.428,808.061Z" transform="translate(-289.693 -787.433)" fill="#1975b8"/>
        <circle id="Ellipse_44" data-name="Ellipse 44" cx="4.693" cy="4.693" r="4.693" transform="translate(2.788)" fill="#1975b8"/>
      </g>
      <g id="Group_186" data-name="Group 186" transform="translate(28.935 4.721)">
        <path id="Path_219" data-name="Path 219" d="M324.1,804.659c0,.181-.005.361-.014.542a11.008,11.008,0,0,1-.672,3.334c-1.346,1.269-3.885,2.124-6.8,2.124-.452,0-.9-.021-1.327-.061a16.6,16.6,0,0,0,.316-2.536c.013-.262.018-.526.018-.792a16.937,16.937,0,0,0-.168-2.387,14.68,14.68,0,0,0-3.369-7.592,7.413,7.413,0,0,1,1.052-.832,5.672,5.672,0,0,0,6.952,0,9.35,9.35,0,0,1,3.889,6.571A11.341,11.341,0,0,1,324.1,804.659Z" transform="translate(-311.926 -787.433)" fill="#1975b8"/>
        <circle id="Ellipse_45" data-name="Ellipse 45" cx="4.693" cy="4.693" r="4.693" fill="#1975b8"/>
      </g>
    </g>
  </g>
</svg>
