<svg xmlns="http://www.w3.org/2000/svg" xmlns:xlink="http://www.w3.org/1999/xlink" width="36" height="36" viewBox="0 0 36 36">
  <defs>
    <clipPath id="clip-Artboard_14">
      <rect width="36" height="36"/>
    </clipPath>
  </defs>
  <g id="Artboard_14" data-name="Artboard 14" clip-path="url(#clip-Artboard_14)">
    <g id="Group_46" data-name="Group 46" transform="translate(-56.602 -224)">
      <path id="Path_48" data-name="Path 48" d="M69.714,229.178a.488.488,0,0,0,.2.077c.071.015.144.025.216.036a1.525,1.525,0,0,0,.334.131,6.977,6.977,0,0,1,1.957.674,2.77,2.77,0,0,1,1.049,1.386,3.686,3.686,0,0,1,.175,1.643h3.584c-.045-.235-.084-.471-.107-.712a3.856,3.856,0,0,1,.142-1.576,2.866,2.866,0,0,1,1.348-1.586,1.355,1.355,0,0,0,.394-.163.664.664,0,0,0,.238-.147.393.393,0,0,0,.066-.3l-.073-1.169a15.407,15.407,0,0,0-8-.55,9.94,9.94,0,0,0-1.453.4c-.172.1-.173.332-.2.484a2.757,2.757,0,0,0,.048,1.225A.255.255,0,0,0,69.714,229.178Z" fill="#fe9d2b"/>
      <path id="Path_49" data-name="Path 49" d="M69.588,232.067a7.845,7.845,0,0,1-1.635,1.578,7.4,7.4,0,0,0,3.8-2.678.162.162,0,0,0,.04-.094.147.147,0,0,0-.044-.083,2.172,2.172,0,0,0-1.34-.576A4.908,4.908,0,0,1,69.588,232.067Z" fill="#fe9d2b"/>
      <path id="Path_50" data-name="Path 50" d="M67.623,229.023a.249.249,0,0,0,.166.051c.119,0,.237.011.356.017a.372.372,0,0,0,.066.008c.207,0,1.58.087,1.787.1-.03-.106.1-.427.09-.54a2.593,2.593,0,0,1-.045-1.393c-.109,0-1.432.182-1.541.185-.074,0-.161,0-.243,0-.06,0-.119-.006-.179,0-.148,0-.347-.024-.458.091a.307.307,0,0,0-.04.049.632.632,0,0,0-.078.181,1.583,1.583,0,0,0,.071,1.183A.254.254,0,0,0,67.623,229.023Z" fill="#fe9d2b"/>
      <path id="Path_51" data-name="Path 51" d="M81.942,249.134q-.114-.864-.233-1.728c-.16-1.143-.334-2.284-.554-3.417a32.259,32.259,0,0,0-.878-3.546c-.184-.584-.387-1.161-.615-1.728-.173-.431-1.592-4.154-1.907-4.523H73.391c-.129.1-1.777,5.093-1.926,5.58a13.446,13.446,0,0,1-.545,1.5,11.019,11.019,0,0,1-2.6,3.343c-2.506,2.536-2.114,6.011-2.114,9.284a3.7,3.7,0,0,0,3.695,3.7h8.577a3.694,3.694,0,0,0,3.694-3.7S82.016,249.7,81.942,249.134Z" fill="#f87f0b"/>
    </g>
  </g>
</svg>
