<svg xmlns="http://www.w3.org/2000/svg" xmlns:xlink="http://www.w3.org/1999/xlink" width="36" height="36" viewBox="0 0 36 36">
  <defs>
    <clipPath id="clip-path">
      <rect id="Rectangle_23" data-name="Rectangle 23" width="13.727" height="10.601" transform="matrix(0.932, 0.363, -0.363, 0.932, 6.933, 82.141)" fill="none"/>
    </clipPath>
    <clipPath id="clip-TEDS">
      <rect width="36" height="36"/>
    </clipPath>
  </defs>
  <g id="TEDS" clip-path="url(#clip-TEDS)">
    <g id="Group_78" data-name="Group 78" transform="translate(-0.602 -56)">
      <path id="Path_84" data-name="Path 84" d="M30.52,74.205A21.078,21.078,0,0,0,29.2,72.133a28.754,28.754,0,0,1-1.679-2.874,41.911,41.911,0,0,1-1.8-4.092c-.589-1.534-1.141-3.209-1.514-4.46s-.57-2.067-.684-2.548-.146-.614-.25-.647-.283.033-1.118.335-2.321.84-3.83,1.435-3.043,1.251-3.868,1.6-.944.4-.977.463.01.16.279.684.764,1.478,1.236,2.516.934,2.157,1.311,3.219a19.917,19.917,0,0,1,.854,3.006,12.959,12.959,0,0,1,.222,2.506,4.654,4.654,0,0,1-.26,1.6,10.715,10.715,0,0,1-1,2.029c-.537.883-1.32,2.011-2.023,3.012s-1.331,1.873-1.892,2.572a7.7,7.7,0,0,1-1.689,1.633,15.121,15.121,0,0,1-2.038,1.066,6.476,6.476,0,0,0-1.585.926,1.842,1.842,0,0,0-.566,1.08,1.792,1.792,0,0,0,.109,1.091,2.009,2.009,0,0,0,.967.91,8.544,8.544,0,0,0,2.066.638,20.6,20.6,0,0,0,3.118.4,8.307,8.307,0,0,0,3.373-.392,8.282,8.282,0,0,0,2.693-2.053,59.19,59.19,0,0,1,5.1-4.984A19.813,19.813,0,0,1,26.3,81.181,23.3,23.3,0,0,0,29.123,79.5a5.221,5.221,0,0,0,1.557-1.874,3.3,3.3,0,0,0,.3-1.652,4.54,4.54,0,0,0-.462-1.765Z" fill="#47a835" fill-rule="evenodd"/>
      <g id="Group_77" data-name="Group 77">
        <g id="Group_76" data-name="Group 76" clip-path="url(#clip-path)">
          <path id="Path_85" data-name="Path 85" d="M30.473,74.232a20.863,20.863,0,0,0-1.32-2.072,28.742,28.742,0,0,1-1.68-2.874,41.922,41.922,0,0,1-1.8-4.092c-.589-1.534-1.141-3.209-1.514-4.46s-.571-2.067-.684-2.548-.146-.614-.25-.647-.283.033-1.118.335-2.321.84-3.83,1.435-3.043,1.251-3.868,1.6-.944.4-.977.463.009.16.278.684.764,1.478,1.236,2.516.934,2.157,1.312,3.219A19.918,19.918,0,0,1,17.11,70.8a12.949,12.949,0,0,1,.221,2.506,4.631,4.631,0,0,1-.259,1.6,10.746,10.746,0,0,1-1.005,2.03c-.538.882-1.321,2.01-2.024,3.011s-1.33,1.873-1.891,2.572a7.741,7.741,0,0,1-1.689,1.633,15.242,15.242,0,0,1-2.038,1.066,6.476,6.476,0,0,0-1.585.926,1.836,1.836,0,0,0-.566,1.08,1.8,1.8,0,0,0,.108,1.091,2.013,2.013,0,0,0,.967.91,8.539,8.539,0,0,0,2.067.638,20.578,20.578,0,0,0,3.118.4,8.309,8.309,0,0,0,3.373-.392A8.292,8.292,0,0,0,18.6,87.815a59.323,59.323,0,0,1,5.1-4.984,19.953,19.953,0,0,1,2.547-1.623,23.31,23.31,0,0,0,2.826-1.685,5.232,5.232,0,0,0,1.557-1.874,3.316,3.316,0,0,0,.3-1.652,4.525,4.525,0,0,0-.463-1.765Z" fill="#9dc224" fill-rule="evenodd"/>
        </g>
      </g>
    </g>
  </g>
</svg>
