<svg id="Group_25" data-name="Group 25" xmlns="http://www.w3.org/2000/svg" width="40.997" height="46.008" viewBox="0 0 40.997 46.008">
  <path id="Path_36" data-name="Path 36" d="M811.844,570.465a1.931,1.931,0,0,1-1.923,1.929H787.167a1.932,1.932,0,0,1-1.93-1.929h0a1.928,1.928,0,0,1,1.93-1.93h22.754a1.927,1.927,0,0,1,1.923,1.93Z" transform="translate(-770.847 -551.34)" fill="#26a5de"/>
  <path id="Path_37" data-name="Path 37" d="M796.58,568.908v-.672a2.319,2.319,0,0,0-2.312-2.312h-8.9a2.319,2.319,0,0,0-2.312,2.312v.672Z" transform="translate(-783.052 -565.924)" fill="#1b75ba"/>
  <path id="Path_38" data-name="Path 38" d="M796.625,586.149v-19.81H783.052v31.942a3.054,3.054,0,0,0,3.056,3.056h.475v8.278h28.51v-9.885a14.112,14.112,0,0,0,8.957-13.58Z" transform="translate(-783.052 -563.606)" fill="#1b75ba"/>
</svg>
