<svg xmlns="http://www.w3.org/2000/svg" xmlns:xlink="http://www.w3.org/1999/xlink" width="36" height="36" viewBox="0 0 36 36">
  <defs>
    <clipPath id="clip-Treatments">
      <rect width="36" height="36"/>
    </clipPath>
  </defs>
  <g id="Treatments" clip-path="url(#clip-Treatments)">
    <g id="Group_63" data-name="Group 63" transform="translate(-56.602 -112)">
      <g id="Group_61" data-name="Group 61">
        <path id="Path_62" data-name="Path 62" d="M63.984,133.694V115.221h7.85a13.431,13.431,0,0,1,4.3.5,4.248,4.248,0,0,1,2.148,1.771,5.315,5.315,0,0,1,.807,2.91,4.932,4.932,0,0,1-1.223,3.434,5.869,5.869,0,0,1-3.654,1.707c.807.471-2.394,1.792-2.747,1.418a2.864,2.864,0,0,0-1.121-.769,6.17,6.17,0,0,0-1.878-.208h-.756v7.712Zm3.729-10.66h2.76a14.267,14.267,0,0,0,3.352-.227,2.007,2.007,0,0,0,1.046-.781,2.414,2.414,0,0,0,.377-1.386,2.213,2.213,0,0,0-.5-1.506,2.287,2.287,0,0,0-1.4-.725q-.455-.063-2.722-.063H67.713Z" fill="#0064af" stroke="#0064af" stroke-miterlimit="10" stroke-width="0.75"/>
      </g>
      <g id="Group_62" data-name="Group 62">
        <path id="Path_63" data-name="Path 63" d="M69.823,143.8l6.313-9.639-5.721-8.833h4.36l3.705,5.935,3.629-5.935h4.322L80.685,134.3,87,143.8H82.5l-4.1-6.388L74.3,143.8Z" fill="#0064af" stroke="#0064af" stroke-miterlimit="10" stroke-width="0.75"/>
      </g>
    </g>
  </g>
</svg>
