<svg xmlns="http://www.w3.org/2000/svg" width="100.504" height="100.504" viewBox="0 0 100.504 100.504">
  <g id="virus" transform="translate(0 0)">
    <path id="Path_16" data-name="Path 16" d="M123.584,91.243a32.341,32.341,0,1,0,32.341,32.341A32.378,32.378,0,0,0,123.584,91.243Zm-22.077,35.286a2.944,2.944,0,1,1,2.944-2.944A2.946,2.946,0,0,1,101.507,126.529Zm6.466,15.612a2.944,2.944,0,1,1,2.944-2.944A2.946,2.946,0,0,1,107.974,142.14Zm0-31.221a2.944,2.944,0,1,1,2.944-2.944A2.946,2.946,0,0,1,107.974,110.919Zm9.3,21.918a2.944,2.944,0,1,1,2.944-2.944A2.946,2.946,0,0,1,117.277,132.836Zm0-12.615a2.944,2.944,0,1,1,2.944-2.944A2.946,2.946,0,0,1,117.277,120.221Zm6.308,28.385a2.944,2.944,0,1,1,2.944-2.944A2.946,2.946,0,0,1,123.584,148.606Zm0-44.154a2.944,2.944,0,1,1,2.944-2.944A2.946,2.946,0,0,1,123.584,104.452Zm6.308,28.385a2.944,2.944,0,1,1,2.944-2.944A2.946,2.946,0,0,1,129.892,132.836Zm0-12.615a2.944,2.944,0,1,1,2.944-2.944A2.946,2.946,0,0,1,129.892,120.221Zm9.3,21.919a2.944,2.944,0,1,1,2.944-2.944A2.946,2.946,0,0,1,139.2,142.14Zm0-31.221a2.944,2.944,0,1,1,2.944-2.944A2.946,2.946,0,0,1,139.2,110.919Zm6.466,15.61a2.944,2.944,0,1,1,2.944-2.944A2.946,2.946,0,0,1,145.661,126.529Z" transform="translate(-73.332 -73.332)" fill="#fff"/>
    <path id="Path_17" data-name="Path 17" d="M165.481,7.45l.254-.068,1.826,6.815a37.879,37.879,0,0,1,5.688-1.526l-1.826-6.813.254-.068A2.944,2.944,0,0,0,170.154.1l-6.2,1.66a2.944,2.944,0,0,0,1.524,5.688Z" transform="translate(-130.018 0)" fill="#fff"/>
    <path id="Path_18" data-name="Path 18" d="M61.148,65.683l.186-.186,5,5A38.559,38.559,0,0,1,70.5,66.335l-5-5,.186-.186a2.944,2.944,0,0,0-4.164-4.164l-4.536,4.536a2.944,2.944,0,0,0,4.164,4.164Z" transform="translate(-45.105 -45.104)" fill="#fff"/>
    <path id="Path_19" data-name="Path 19" d="M2.183,173.755a2.944,2.944,0,0,0,3.606-2.082l.068-.254,6.813,1.826a37.9,37.9,0,0,1,1.526-5.688L7.381,165.73l.068-.254a2.944,2.944,0,1,0-5.688-1.524l-1.66,6.2A2.944,2.944,0,0,0,2.183,173.755Z" transform="translate(0 -130.014)" fill="#fff"/>
    <path id="Path_20" data-name="Path 20" d="M7.382,296.782l6.815-1.826a37.88,37.88,0,0,1-1.526-5.688l-6.813,1.826-.068-.254A2.944,2.944,0,1,0,.1,292.364l1.66,6.2a2.944,2.944,0,1,0,5.688-1.524Z" transform="translate(0 -231.995)" fill="#fff"/>
    <path id="Path_21" data-name="Path 21" d="M66.334,382.631l-5,5-.186-.186a2.944,2.944,0,0,0-4.164,4.164l4.536,4.536a2.944,2.944,0,1,0,4.164-4.164L65.5,391.8l5-5A38.6,38.6,0,0,1,66.334,382.631Z" transform="translate(-45.103 -307.522)" fill="#fff"/>
    <path id="Path_22" data-name="Path 22" d="M171.677,448.086l-.254-.068,1.826-6.813a37.877,37.877,0,0,1-5.688-1.526l-1.826,6.815-.254-.068a2.944,2.944,0,1,0-1.524,5.688l6.2,1.66a2.944,2.944,0,0,0,1.524-5.688Z" transform="translate(-130.017 -353.371)" fill="#fff"/>
    <path id="Path_23" data-name="Path 23" d="M297.031,446.426l-.254.068-1.826-6.815a37.878,37.878,0,0,1-5.688,1.526l1.826,6.813-.254.068a2.944,2.944,0,0,0,1.524,5.688l6.2-1.66a2.944,2.944,0,0,0-1.524-5.688Z" transform="translate(-231.99 -353.371)" fill="#fff"/>
    <path id="Path_24" data-name="Path 24" d="M391.982,387.447l-.186.186-5-5a38.553,38.553,0,0,1-4.164,4.164l5,5-.186.186a2.944,2.944,0,1,0,4.164,4.164l4.536-4.536a2.944,2.944,0,0,0-4.164-4.164Z" transform="translate(-307.521 -307.522)" fill="#fff"/>
    <path id="Path_25" data-name="Path 25" d="M451.693,288.757a2.944,2.944,0,0,0-3.606,2.082l-.068.254-6.813-1.826a37.879,37.879,0,0,1-1.526,5.688l6.815,1.826-.068.254a2.944,2.944,0,1,0,5.688,1.524l1.66-6.2A2.944,2.944,0,0,0,451.693,288.757Z" transform="translate(-353.372 -231.994)" fill="#fff"/>
    <path id="Path_26" data-name="Path 26" d="M446.493,165.731l-6.815,1.826a37.906,37.906,0,0,1,1.526,5.688l6.813-1.826.068.254a2.944,2.944,0,0,0,5.688-1.524l-1.66-6.2a2.944,2.944,0,0,0-5.688,1.524Z" transform="translate(-353.37 -130.015)" fill="#fff"/>
    <path id="Path_27" data-name="Path 27" d="M386.8,70.5l5-5,.186.186a2.944,2.944,0,0,0,4.164-4.164l-4.536-4.536a2.944,2.944,0,0,0-4.164,4.164l.186.186-5,5A38.589,38.589,0,0,1,386.8,70.5Z" transform="translate(-307.522 -45.104)" fill="#fff"/>
    <path id="Path_28" data-name="Path 28" d="M290.834,5.79l.254.068-1.826,6.813A37.879,37.879,0,0,1,294.95,14.2l1.826-6.815.254.068a2.944,2.944,0,0,0,1.524-5.688L292.358.1a2.944,2.944,0,0,0-1.524,5.688Z" transform="translate(-231.989 -0.001)" fill="#fff"/>
  </g>
</svg>
