<?xml version="1.0" standalone="no"?>
<!DOCTYPE svg PUBLIC "-//W3C//DTD SVG 20010904//EN"
 "http://www.w3.org/TR/2001/REC-SVG-20010904/DTD/svg10.dtd">
<svg version="1.0" xmlns="http://www.w3.org/2000/svg"
 width="2084.000000pt" height="2084.000000pt" viewBox="0 0 2084.000000 2084.000000"
 preserveAspectRatio="xMidYMid meet">
<metadata>
Created by potrace 1.11, written by Peter Selinger 2001-2013
</metadata>
<g transform="translate(0.000000,2084.000000) scale(0.100000,-0.100000)"
fill="#000000" stroke="none">
<path d="M2487 13724 c-1 -1 -38 -5 -82 -8 -79 -6 -209 -22 -256 -31 -13 -3
-37 -8 -54 -10 -16 -3 -38 -8 -47 -11 -9 -3 -25 -7 -35 -9 -111 -22 -261 -72
-399 -131 -546 -232 -1067 -732 -1322 -1264 -86 -180 -157 -390 -187 -545 -55
-294 -56 -315 -56 -961 -1 -581 4 -687 36 -869 32 -178 81 -362 121 -452 8
-17 14 -35 14 -39 0 -34 151 -322 235 -448 250 -375 558 -642 970 -841 102
-49 331 -138 386 -149 13 -3 49 -12 79 -20 66 -19 235 -52 305 -61 28 -3 64
-8 80 -10 169 -22 567 -22 680 -1 11 2 47 7 80 11 33 3 83 11 110 16 28 6 61
12 75 15 118 22 360 97 470 146 93 42 187 88 250 123 154 87 367 243 493 362
l47 45 -216 214 -217 214 -66 -62 c-36 -34 -77 -73 -91 -86 -50 -49 -222 -173
-313 -226 -202 -119 -433 -201 -649 -232 -16 -2 -43 -7 -60 -10 -57 -10 -390
-12 -463 -3 -165 20 -181 23 -330 64 -163 44 -377 142 -525 240 -86 57 -215
159 -289 228 -54 51 -184 195 -216 241 -11 15 -25 33 -30 40 -24 26 -119 182
-154 253 -88 176 -152 370 -175 528 -4 23 -8 51 -11 63 -8 45 -18 179 -19 282
l-2 105 2266 5 2265 5 -1 405 c0 424 -7 582 -28 710 -4 19 -8 49 -10 65 -14
104 -81 342 -132 472 -128 324 -305 586 -588 869 -231 230 -438 381 -701 510
-218 106 -511 197 -710 219 -33 4 -62 9 -65 10 -15 9 -454 26 -463 19z m363
-628 c14 -2 48 -7 75 -11 28 -4 88 -16 135 -27 47 -11 92 -21 100 -23 57 -13
214 -76 314 -126 101 -51 282 -165 322 -203 6 -6 35 -31 64 -55 330 -279 562
-643 651 -1019 29 -126 31 -133 35 -177 3 -22 7 -53 9 -70 3 -16 8 -96 11
-177 l5 -148 -23 -1 c-31 -1 -3825 -1 -3864 0 l-31 1 3 103 c6 224 24 360 73
537 25 89 81 236 120 310 51 98 161 269 223 345 36 45 254 264 308 310 278
238 665 399 1037 433 88 9 386 7 433 -2z"/>
<path d="M12337 13724 c-1 -1 -43 -5 -93 -8 -51 -4 -101 -8 -111 -10 -11 -3
-44 -7 -74 -11 -291 -37 -663 -174 -932 -343 -83 -52 -228 -155 -263 -187 -6
-5 -40 -35 -75 -65 -82 -71 -209 -198 -281 -281 -112 -127 -192 -240 -318
-449 -25 -42 -96 -195 -131 -281 -50 -126 -121 -384 -133 -484 -7 -59 -15
-115 -23 -155 -3 -19 -7 -314 -9 -655 -2 -460 1 -650 11 -735 20 -181 31 -238
69 -395 112 -452 424 -948 776 -1232 213 -171 456 -312 702 -407 161 -61 257
-89 468 -133 8 -1 31 -5 50 -8 19 -3 44 -7 55 -9 24 -4 115 -14 205 -22 78 -7
371 -6 455 1 141 12 175 16 265 30 101 17 296 64 376 91 151 50 363 144 469
207 11 7 43 26 70 42 53 31 230 155 262 183 10 9 48 42 83 72 35 30 75 65 89
77 l24 23 -217 216 -217 217 -82 -79 c-116 -112 -157 -145 -291 -235 -204
-138 -429 -233 -658 -279 -143 -29 -212 -35 -398 -35 -186 0 -302 11 -430 41
-14 3 -36 8 -50 10 -104 19 -374 131 -510 210 -168 98 -404 297 -522 441 -224
270 -377 603 -423 920 -3 21 -8 44 -10 50 -5 16 -16 199 -18 306 l-2 77 2267
0 2268 0 -4 483 c-2 265 -6 489 -9 497 -3 8 -8 44 -12 80 -3 36 -15 110 -26
165 -11 55 -23 114 -25 130 -14 79 -112 345 -176 475 -168 346 -447 680 -787
944 -325 252 -771 439 -1146 482 -22 2 -49 6 -61 9 -51 11 -438 28 -447 19z
m358 -629 c302 -38 581 -140 815 -298 241 -162 482 -413 633 -657 94 -154 194
-401 223 -555 2 -11 6 -31 9 -45 21 -106 29 -199 29 -349 l1 -134 -1930 1
c-1061 0 -1941 1 -1955 1 -25 1 -25 2 -23 78 7 401 75 661 256 983 134 238
397 511 657 682 87 57 275 158 294 158 6 0 24 7 39 15 16 8 65 26 110 41 84
26 91 28 167 44 25 5 55 12 68 14 35 8 172 26 217 29 65 4 336 -1 390 -8z"/>
<path d="M5162 13612 c-6 -2 -4 -22 4 -50 7 -26 29 -105 48 -177 20 -71 41
-146 46 -165 6 -19 55 -201 111 -405 130 -480 148 -546 171 -630 11 -38 23
-83 28 -100 8 -33 108 -399 146 -535 13 -47 39 -143 58 -215 58 -218 255 -938
266 -975 5 -19 44 -161 86 -315 41 -154 82 -302 89 -330 29 -99 76 -270 80
-290 3 -11 16 -60 30 -110 29 -105 185 -673 190 -695 2 -8 11 -40 19 -70 18
-66 101 -373 122 -450 8 -30 22 -79 31 -109 8 -29 16 -59 17 -65 1 -6 5 -21 9
-33 8 -21 10 -21 297 -21 206 0 292 3 299 12 5 6 136 263 291 571 155 308 328
650 383 760 56 110 101 202 102 205 0 3 6 14 12 25 15 27 503 997 1183 2350
310 616 641 1275 737 1464 95 190 173 347 173 350 0 4 -146 6 -325 6 l-325 0
-109 -215 c-59 -118 -190 -377 -291 -575 -208 -409 -454 -895 -738 -1455 -107
-212 -268 -529 -357 -705 -89 -176 -266 -525 -393 -775 -126 -250 -283 -558
-347 -685 -64 -126 -130 -256 -147 -289 -16 -32 -31 -56 -33 -54 -2 2 -11 28
-19 58 -8 30 -33 120 -56 200 -23 80 -50 178 -61 218 -11 40 -56 200 -100 355
-44 155 -82 291 -85 302 -2 11 -38 139 -79 285 -42 146 -78 273 -80 283 -2 10
-41 147 -85 305 -45 158 -106 375 -136 482 -30 107 -63 224 -73 260 -11 36
-51 180 -90 320 -39 140 -78 278 -86 305 -8 28 -46 163 -84 300 -231 823 -300
1068 -306 1073 -6 7 -605 10 -623 4z"/>
<path d="M15653 11845 c2 -973 6 -1783 10 -1800 3 -16 9 -52 12 -80 10 -82 12
-97 29 -175 85 -406 259 -760 535 -1090 274 -328 709 -605 1161 -739 58 -17
115 -33 128 -36 12 -3 32 -7 45 -10 64 -14 188 -36 232 -41 27 -3 55 -7 62 -9
21 -7 254 -18 363 -18 102 0 287 10 326 17 10 2 48 7 84 11 53 6 172 27 275
50 80 18 259 74 355 112 306 121 549 281 782 516 l118 118 -4 -193 c-3 -106
-7 -204 -10 -218 -2 -14 -7 -41 -10 -60 -6 -37 -12 -70 -21 -107 -3 -13 -7
-31 -9 -41 -30 -132 -140 -376 -231 -512 -126 -188 -324 -398 -505 -537 -30
-24 -62 -48 -70 -55 -39 -34 -229 -140 -325 -182 -154 -67 -313 -111 -515
-141 -136 -21 -479 -10 -635 20 -367 71 -693 243 -978 514 l-78 75 -217 -218
-217 -217 95 -91 c366 -349 810 -586 1243 -662 15 -3 35 -7 45 -10 68 -19 354
-42 512 -40 193 2 313 13 477 45 313 60 629 191 888 368 238 162 452 361 634
586 40 50 79 98 86 107 26 32 118 172 152 233 146 255 260 586 288 835 3 30 9
73 12 95 7 48 10 5344 3 5346 -3 1 -141 2 -307 3 l-303 1 -1 -25 c0 -14 -2
-799 -3 -1745 -2 -946 -6 -1738 -10 -1760 -6 -35 -39 -202 -51 -259 -27 -124
-139 -374 -233 -521 -122 -191 -319 -403 -507 -546 -107 -81 -187 -130 -320
-194 -175 -85 -347 -137 -560 -170 -74 -11 -399 -14 -485 -4 -674 78 -1272
504 -1562 1115 -40 86 -101 248 -113 303 -48 213 -51 234 -61 369 -3 48 -7
841 -8 1762 l-1 1675 -303 0 -303 0 4 -1770z"/>
</g>
</svg>
