<svg id="Layer_1" data-name="Layer 1" xmlns="http://www.w3.org/2000/svg" xmlns:xlink="http://www.w3.org/1999/xlink" viewBox="0 0 36 36"><defs><style>.cls-1,.cls-2{fill:none;}.cls-2{stroke:#221f20;stroke-miterlimit:10;}.cls-3{clip-path:url(#clip-path);}.cls-4{fill:#fff;}</style><clipPath id="clip-path"><rect class="cls-1" x="2.26" y="2.51" width="31.48" height="30.98"/></clipPath></defs><rect class="cls-2" x="-6.95" y="-346.43" width="50.45" height="667.14"/><g class="cls-3"><path class="cls-4" d="M22.07,17.65A10.44,10.44,0,0,0,4.83,6.23,10.44,10.44,0,0,0,17.2,22.52L27,32.29a3.44,3.44,0,1,0,4.87-4.87Zm-6.17-1.3a4.56,4.56,0,1,1,0-6.45,4.58,4.58,0,0,1,0,6.45Zm0,0"/><path class="cls-4" d="M28.79,21.4a1.83,1.83,0,0,0-2.59-2.6l-.58.57,2.6,2.6Zm0,0"/><path class="cls-4" d="M33.19,23.22a1.83,1.83,0,0,0-2.6,0L30,23.8l2.6,2.6.57-.58a1.82,1.82,0,0,0,0-2.6Zm0,0"/></g></svg>