<svg id="Layer_1" data-name="Layer 1" xmlns="http://www.w3.org/2000/svg" viewBox="0 0 36 36"><defs><style>.cls-1{fill:#3675b6;}.cls-2{fill:#fff;}</style></defs><path class="cls-1" d="M20.27,27c.2.77.44,1.51.58,2.27a4.5,4.5,0,0,1-5,5.14A4.41,4.41,0,0,1,12,31c-.4-1.32-.79-2.64-1.17-4a.54.54,0,0,0-.61-.46,21.14,21.14,0,0,1-3.57-.23,5.28,5.28,0,0,1-4-3.69,7.74,7.74,0,0,1-.5-4A6.51,6.51,0,0,1,4.9,14.41c5.64-4,11.31-7.92,16.92-11.94a4.4,4.4,0,0,1,6,.75,15.37,15.37,0,0,1,2.83,4.66,45.41,45.41,0,0,1,3,10.14,13.17,13.17,0,0,1,0,5.45,4.37,4.37,0,0,1-3.59,3.63,14.72,14.72,0,0,1-3,0c-2.2-.06-4.41-.15-6.61-.23C20.43,26.91,20.36,26.94,20.27,27Zm-3.81-2.88c.72,0,1.38,0,2.05,0L29,24.39A1.69,1.69,0,0,0,30.89,23,8.58,8.58,0,0,0,31,19.53a38.44,38.44,0,0,0-1.82-7.62,22.76,22.76,0,0,0-2.66-5.8,7.8,7.8,0,0,0-1.36-1.45,1.18,1.18,0,0,0-1.59,0c-.27.22-.58.41-.87.62L6.55,16.69a3.81,3.81,0,0,0-1.5,1.9,4.65,4.65,0,0,0,.39,3.51A2.61,2.61,0,0,0,7.9,23.73c1.52.06,3,.12,4.56.16a.41.41,0,0,1,.47.37c.25.89.53,1.78.79,2.67.35,1.16.66,2.32,1,3.47a1.7,1.7,0,0,0,2.92.6,1.8,1.8,0,0,0,.3-1.83C17.45,27.47,17,25.76,16.46,24.07Z"/><path class="cls-2" d="M16.46,24.07c.5,1.69,1,3.4,1.52,5.1a1.8,1.8,0,0,1-.3,1.83,1.7,1.7,0,0,1-2.92-.6c-.38-1.15-.69-2.31-1-3.47-.26-.89-.54-1.78-.79-2.67a.41.41,0,0,0-.47-.37c-1.52,0-3-.1-4.56-.16A2.61,2.61,0,0,1,5.44,22.1a4.65,4.65,0,0,1-.39-3.51,3.81,3.81,0,0,1,1.5-1.9L22.72,5.3c.29-.21.6-.4.87-.62a1.18,1.18,0,0,1,1.59,0,7.8,7.8,0,0,1,1.36,1.45,22.76,22.76,0,0,1,2.66,5.8A38.44,38.44,0,0,1,31,19.53,8.58,8.58,0,0,1,30.89,23,1.69,1.69,0,0,1,29,24.39l-10.47-.32C17.84,24.05,17.18,24.07,16.46,24.07Zm13.26-3.53h0a2.53,2.53,0,0,0,0-.28A30.42,30.42,0,0,0,26.44,8.84,9.8,9.8,0,0,0,25.1,6.91c-.53-.62-1.1-.45-1.25.34a7.19,7.19,0,0,0-.12,1.67,24.4,24.4,0,0,0,1,5.61,25.11,25.11,0,0,0,2.78,6.71,5.3,5.3,0,0,0,.85,1c.46.43.92.32,1.1-.28A11.71,11.71,0,0,0,29.72,20.54Z"/><path class="cls-1" d="M29.72,20.54A11.71,11.71,0,0,1,29.47,22c-.18.6-.64.71-1.1.28a5.3,5.3,0,0,1-.85-1,25.11,25.11,0,0,1-2.78-6.71,24.4,24.4,0,0,1-1-5.61,7.19,7.19,0,0,1,.12-1.67c.15-.79.72-1,1.25-.34a9.8,9.8,0,0,1,1.34,1.93,30.42,30.42,0,0,1,3.22,11.42,2.53,2.53,0,0,1,0,.28Z"/></svg>