<svg id="Layer_1" data-name="Layer 1" xmlns="http://www.w3.org/2000/svg" viewBox="0 0 36 36"><defs><style>.cls-1{fill:none;stroke:#221f20;stroke-miterlimit:10;}.cls-2{fill:#fff;}</style></defs><rect class="cls-1" x="-6.95" y="-66.43" width="50.45" height="667.14"/><path class="cls-2" d="M16.18,25.21c.6,2,1.18,4,1.8,6a2.09,2.09,0,0,1-.35,2.16,2,2,0,0,1-3.46-.71c-.45-1.36-.81-2.74-1.22-4.11-.32-1.05-.64-2.1-.94-3.16a.5.5,0,0,0-.56-.44c-1.8,0-3.6-.12-5.4-.18a3.11,3.11,0,0,1-2.91-1.93,5.52,5.52,0,0,1-.46-4.16,4.6,4.6,0,0,1,1.77-2.26L23.6,3c.34-.24.7-.46,1-.73a1.37,1.37,0,0,1,1.87,0,9.05,9.05,0,0,1,1.62,1.71,26.73,26.73,0,0,1,3.15,6.87,45.21,45.21,0,0,1,2.15,9,10.12,10.12,0,0,1-.15,4.1A2,2,0,0,1,31,25.58c-4.13-.11-8.26-.25-12.4-.37C17.83,25.19,17,25.21,16.18,25.21ZM31.89,21h-.06c0-.11,0-.22,0-.33A35.8,35.8,0,0,0,28,7.18a11.34,11.34,0,0,0-1.6-2.29c-.62-.73-1.29-.53-1.48.41a8.1,8.1,0,0,0-.13,2A28.32,28.32,0,0,0,26,13.91a29.88,29.88,0,0,0,3.29,8,6.55,6.55,0,0,0,1,1.22c.55.52,1.09.39,1.3-.32A16.44,16.44,0,0,0,31.89,21Z"/></svg>