<svg id="Layer_1" data-name="Layer 1" xmlns="http://www.w3.org/2000/svg" viewBox="0 0 36 36"><defs><style>.cls-1{fill:none;stroke:#221f20;stroke-miterlimit:10;}.cls-2{fill:#fff;fill-rule:evenodd;}</style></defs><rect class="cls-1" x="-6.95" y="-452.43" width="50.45" height="667.14"/><path class="cls-2" d="M5.09,18.5V6.58a3,3,0,0,1,6,0V18.5a5,5,0,0,1,0,7.94v3a3,3,0,0,1-.88,2.11,3,3,0,0,1-5.08-2.11v-3a5,5,0,0,1,0-7.94Zm3,1a3,3,0,1,1-3,3,3,3,0,0,1,3-3Zm7-9.93v-3a3,3,0,1,1,6,0v3a5,5,0,0,1,0,7.94V29.42a3,3,0,1,1-6,0V17.5a5,5,0,0,1,0-7.94Zm3,1a3,3,0,1,1-3,3,3,3,0,0,1,3-3Zm7,8V6.58a3,3,0,0,1,.88-2.11,3,3,0,0,1,5.08,2.11V18.5a5,5,0,0,1,0,7.94v3a3,3,0,0,1-6,0v-3a5,5,0,0,1,0-7.94Zm3,1a3,3,0,1,1-3,3,3,3,0,0,1,3-3Zm0,0"/></svg>