<svg id="Layer_1" data-name="Layer 1" xmlns="http://www.w3.org/2000/svg" viewBox="0 0 36 36"><defs><style>.cls-1{fill:none;stroke:#221f20;stroke-miterlimit:10;}.cls-2{fill:#fff;}</style></defs><rect class="cls-1" x="-6.95" y="-10.43" width="50.45" height="667.14"/><path class="cls-2" d="M32.43,2.7H3.57A2.57,2.57,0,0,0,1,5.27V26.19a2.58,2.58,0,0,0,2.57,2.58H14.7a2.94,2.94,0,0,1-2.94,2.75.65.65,0,0,0-.56.65v.55a.57.57,0,0,0,.57.58H24.23a.57.57,0,0,0,.57-.58v-.55a.65.65,0,0,0-.56-.65,2.94,2.94,0,0,1-2.94-2.75H32.43A2.58,2.58,0,0,0,35,26.19V5.27A2.57,2.57,0,0,0,32.43,2.7ZM16.75,26.46A1.25,1.25,0,1,1,18,27.71,1.25,1.25,0,0,1,16.75,26.46Zm16-3.34a.5.5,0,0,1-.5.51H3.77a.5.5,0,0,1-.5-.51V6a.5.5,0,0,1,.5-.51H32.23a.5.5,0,0,1,.5.51Z"/></svg>