<svg id="Layer_1" data-name="Layer 1" xmlns="http://www.w3.org/2000/svg" viewBox="0 0 36 36"><defs><style>.cls-1{fill:none;stroke:#221f20;stroke-miterlimit:10;}.cls-2{fill:#fff;}</style></defs><rect class="cls-1" x="-6.95" y="-400.43" width="50.45" height="667.14"/><path class="cls-2" d="M18,4.5A13.5,13.5,0,1,0,31.5,18,13.52,13.52,0,0,0,18,4.5ZM7.87,18a10.07,10.07,0,0,1,3.22-7.38,5.26,5.26,0,0,1,.16,1.47c0,.41,0,.75,0,1.07,0,1.71-.05,2.84,1.3,4.3a6.91,6.91,0,0,1,.83,1.28,5.2,5.2,0,0,0,2.09,2.41,7.14,7.14,0,0,1,.34,2.55,4.46,4.46,0,0,0,1.51,2.78c.16.18.37.42.51.6,0,.25-.1.62-.17,1A10.13,10.13,0,0,1,7.87,18Zm18.42,5.79a2.5,2.5,0,0,0-2.4-2.28,16,16,0,0,1-1.55-1.1c-1.26-.95-2-1.47-2.8-1.47a2.68,2.68,0,0,0-.83.12c-.47-.41-.91-.82-1.24-1.15a1.67,1.67,0,0,0,2.22-1.6c0-.45.19-.71,2-1.11.92-.21,2.64-.6,2.64-2.28a3.38,3.38,0,0,0-1.47-2.51,2.74,2.74,0,0,0,.37-1.08A10.13,10.13,0,0,1,28.13,18a10,10,0,0,1-1.84,5.79Zm0,0"/></svg>