<svg id="Layer_1" data-name="Layer 1" xmlns="http://www.w3.org/2000/svg" viewBox="0 0 36 36"><defs><style>.cls-1{fill:none;stroke:#221f20;stroke-miterlimit:10;}.cls-2{fill:#fff;}</style></defs><rect class="cls-1" x="-6.95" y="-178.43" width="50.45" height="667.14"/><path class="cls-2" d="M21.48,19.76A1.49,1.49,0,0,0,20,18.27H16a1.49,1.49,0,0,0-1.49,1.49v7.32h6.94Zm9-13A1.49,1.49,0,0,0,29,5.23h-4a1.49,1.49,0,0,0-1.49,1.49V27.08H30.5Zm2.15,22.06H3.35a1,1,0,0,0,0,2h29.3a1,1,0,0,0,0-2ZM12.53,13.48A1.49,1.49,0,0,0,11,12H7.09A1.49,1.49,0,0,0,5.6,13.48v13.6h6.93Z"/></svg>