<svg id="Layer_1" data-name="Layer 1" xmlns="http://www.w3.org/2000/svg" viewBox="0 0 36 36"><defs><style>.cls-1{fill:none;stroke:#221f20;stroke-miterlimit:10;}.cls-2{fill:#fff;}</style></defs><rect class="cls-1" x="-6.95" y="-234.43" width="50.45" height="667.14"/><path class="cls-2" d="M26.56,24c0,.19,0,.38,0,.56A11.62,11.62,0,0,1,25.86,28c-1.39,1.3-4,2.18-7,2.18s-5.61-.88-7-2.18a11,11,0,0,1-.69-3.44c0-.18,0-.37,0-.56a11.42,11.42,0,0,1,.12-1.67,9.63,9.63,0,0,1,4-6.77,5.82,5.82,0,0,0,7.16,0,9.62,9.62,0,0,1,4,6.77A11.42,11.42,0,0,1,26.56,24Z"/><circle class="cls-2" cx="18.86" cy="10.67" r="4.83" transform="translate(4.41 26.81) rotate(-77.66)"/><path class="cls-2" d="M10.09,24.7a12.42,12.42,0,0,0,.19,1.65,10.16,10.16,0,0,1-2.67.34,7.85,7.85,0,0,1-5.2-1.62,8.5,8.5,0,0,1-.51-2.55c0-.14,0-.28,0-.42A8.42,8.42,0,0,1,2,20.86a7.13,7.13,0,0,1,3-5,4.33,4.33,0,0,0,5.31,0A6.15,6.15,0,0,1,12,17.53a11.59,11.59,0,0,0-1.76,4.74,12.32,12.32,0,0,0-.13,1.83C10.08,24.3,10.08,24.5,10.09,24.7Z"/><circle class="cls-2" cx="7.61" cy="12.12" r="3.59"/><path class="cls-2" d="M34.11,22.1c0,.14,0,.28,0,.42a8.5,8.5,0,0,1-.51,2.55,7.85,7.85,0,0,1-5.2,1.62c-.34,0-.68,0-1-.05a12.1,12.1,0,0,0,.24-1.94c0-.2,0-.4,0-.6a13.83,13.83,0,0,0-.13-1.83,11.25,11.25,0,0,0-2.58-5.8,5.56,5.56,0,0,1,.81-.64,4.33,4.33,0,0,0,5.31,0,7.13,7.13,0,0,1,3,5A8.42,8.42,0,0,1,34.11,22.1Z"/><circle class="cls-2" cx="28.39" cy="12.12" r="3.59"/></svg>