<svg id="Layer_1" data-name="Layer 1" xmlns="http://www.w3.org/2000/svg" viewBox="0 0 36 36"><defs><style>.cls-1{fill:none;stroke:#221f20;stroke-miterlimit:10;}.cls-2{fill:#fff;}</style></defs><rect class="cls-1" x="-6.95" y="-290.43" width="50.45" height="667.14"/><path class="cls-2" d="M31.38,16.44l-.08-.68L27.9,15a11,11,0,0,0-.78-1.92L29,10.15l-.38-.53A14.56,14.56,0,0,0,26.37,7.4L25.83,7l-2.95,1.9A9.67,9.67,0,0,0,21,8.1l-.77-3.41-.64-.07a12.29,12.29,0,0,0-3.09,0l-.68.07L15,8.1a9.67,9.67,0,0,0-1.92.78L10.17,7l-.53.38A14.56,14.56,0,0,0,7.42,9.62L7,10.17l1.87,2.94A10.34,10.34,0,0,0,8.08,15l-3.41.77-.08.68a13.22,13.22,0,0,0,0,3.08l.08.68L8.08,21a10.34,10.34,0,0,0,.79,1.92L7,25.82l.42.54a14.24,14.24,0,0,0,2.18,2.21l.54.42,3-1.86a10,10,0,0,0,1.92.77l.77,3.41.68.08a13.22,13.22,0,0,0,3.08,0l.68-.08.78-3.41A10.27,10.27,0,0,0,23,27.13l3,1.86.54-.42a14,14,0,0,0,2.13-2.22l.42-.54-1.87-3a9.43,9.43,0,0,0,.78-1.92l3.41-.77.08-.68a13.22,13.22,0,0,0,0-3.08ZM18,23.76A5.78,5.78,0,1,1,23.78,18,5.78,5.78,0,0,1,18,23.76Zm0,0"/></svg>