<svg id="Layer_1" data-name="Layer 1" xmlns="http://www.w3.org/2000/svg" viewBox="0 0 36 36"><defs><style>.cls-1{fill:#c1e4f2;}</style></defs><path class="cls-1" d="M15.61,9.51a3.4,3.4,0,0,0-1,2.39,3.38,3.38,0,0,0,6.76,0,3.39,3.39,0,0,0-5.77-2.39Zm8.82-3.85a9.06,9.06,0,0,1,2.66,6.44c0,1.79-1.21,4.5-2.78,7.24a84.27,84.27,0,0,1-5,7.53,1.51,1.51,0,0,1-.59.5,1.6,1.6,0,0,1-.75.18,1.63,1.63,0,0,1-.75-.18,1.58,1.58,0,0,1-.59-.5,84.27,84.27,0,0,1-5-7.53c-1.57-2.74-2.78-5.45-2.78-7.24A9.09,9.09,0,0,1,24.43,5.66Zm0,0"/><path class="cls-1" d="M26,20.66a21.79,21.79,0,0,1,3.17,1.06c3,1.31,4.92,3.19,4.92,5.33s-1.88,4-4.92,5.33a29.08,29.08,0,0,1-11.13,2,29.08,29.08,0,0,1-11.13-2C3.83,31.06,2,29.18,2,27.05s1.88-4,4.92-5.33A21.79,21.79,0,0,1,10,20.66c.24.42.49.84.74,1.25A21.74,21.74,0,0,0,7.42,23c-2.51,1.09-4.07,2.52-4.07,4.05s1.56,3,4.07,4A27.48,27.48,0,0,0,18,33a27.48,27.48,0,0,0,10.58-1.89c2.51-1.08,4.07-2.52,4.07-4s-1.56-3-4.07-4.05a21.74,21.74,0,0,0-3.36-1.09c.25-.41.5-.83.74-1.25Zm0,0"/><path class="cls-1" d="M18,34.87a29.36,29.36,0,0,1-11.33-2c-3.36-1.45-5.22-3.5-5.22-5.78s1.86-4.33,5.22-5.79a22.37,22.37,0,0,1,3.24-1.08l.37-.1.19.33c.24.42.49.83.74,1.24l.36.59-.67.16a20.06,20.06,0,0,0-3.28,1.06c-2.4,1-3.77,2.34-3.77,3.59s1.37,2.55,3.77,3.59A27.18,27.18,0,0,0,18,32.48a27.18,27.18,0,0,0,10.38-1.84c2.4-1,3.77-2.35,3.77-3.59s-1.37-2.55-3.77-3.59A20.06,20.06,0,0,0,25.1,22.4l-.67-.16.36-.59c.25-.41.5-.82.74-1.24l.19-.33.37.1a22.37,22.37,0,0,1,3.24,1.08c3.36,1.46,5.22,3.51,5.22,5.79s-1.86,4.33-5.22,5.78A29.36,29.36,0,0,1,18,34.87ZM9.8,21.24a21.21,21.21,0,0,0-2.73.94c-3,1.29-4.62,3-4.62,4.87s1.64,3.58,4.62,4.87A28.43,28.43,0,0,0,18,33.87a28.43,28.43,0,0,0,10.93-1.95c3-1.29,4.62-3,4.62-4.87s-1.64-3.58-4.62-4.87a21.21,21.21,0,0,0-2.73-.94c-.07.12-.13.24-.2.35a21,21,0,0,1,2.78.95c2.82,1.22,4.37,2.82,4.37,4.51s-1.55,3.29-4.37,4.5A27.91,27.91,0,0,1,18,33.48,27.91,27.91,0,0,1,7.22,31.55c-2.82-1.21-4.37-2.81-4.37-4.5s1.55-3.29,4.37-4.51A21,21,0,0,1,10,21.59,4,4,0,0,1,9.8,21.24Z"/></svg>