<svg xmlns="http://www.w3.org/2000/svg" width="342" height="125.253" viewBox="0 0 342 125.253">
  <g id="Group_2" data-name="Group 2" transform="translate(-5788 -5908.729)">
    <g id="Group_1" data-name="Group 1">
      <path id="Path_1" data-name="Path 1" d="M5859.437,5991.282q-12.279,11.773-30.025,11.773a42.638,42.638,0,0,1-29.284-10.889A39.593,39.593,0,0,1,5788,5963.028v-13.1a39.429,39.429,0,0,1,12.128-28.989,41.214,41.214,0,0,1,58.422-.146,39.055,39.055,0,0,1,12.275,29.135v11.478h-73.064v1.619a30.4,30.4,0,0,0,9.318,22.368,31.437,31.437,0,0,0,22.333,9.124q13.458,0,23.072-10.153Zm1.478-39.731v-1.62a29.765,29.765,0,0,0-9.317-22.073,30.065,30.065,0,0,0-22.186-9.27,30.545,30.545,0,0,0-22.333,9.27,29.762,29.762,0,0,0-9.318,22.073v1.62Z" fill="#fff"/>
      <path id="Path_2" data-name="Path 2" d="M5954.686,5908.729l-47.644,94.326h-9.684l-25.842-94.326h10.44l22.1,78.354,39.888-78.354Z" fill="#fff"/>
      <path id="Path_3" data-name="Path 3" d="M6022.107,5991.282q-12.33,11.773-30.15,11.773a42.918,42.918,0,0,1-29.406-10.889,39.511,39.511,0,0,1-12.179-29.138v-13.1a39.348,39.348,0,0,1,12.179-28.989,41.507,41.507,0,0,1,58.665-.146,38.977,38.977,0,0,1,12.327,29.135v11.478h-73.369v1.619a30.341,30.341,0,0,0,9.356,22.368,31.641,31.641,0,0,0,22.427,9.124,30.846,30.846,0,0,0,23.168-10.153Zm1.484-39.731v-1.62a29.7,29.7,0,0,0-9.356-22.073,30.251,30.251,0,0,0-22.278-9.27,30.741,30.741,0,0,0-22.427,9.27,29.705,29.705,0,0,0-9.356,22.073v1.62Z" fill="#fff"/>
      <path id="Path_4" data-name="Path 4" d="M6130,5908.729v84.406q0,15.827-12.582,28.337t-29.867,12.51a41.278,41.278,0,0,1-30.926-13.263l7.126-7.085a31.809,31.809,0,0,0,23.8,10.25,30.817,30.817,0,0,0,22.741-9.5q9.552-9.2,9.551-21.252v-3.317a36.625,36.625,0,0,1-14.25,10.326,47.455,47.455,0,0,1-18.042,3.392,43.72,43.72,0,0,1-30.016-11.154,40.538,40.538,0,0,1-12.431-29.844v-53.809h10v53.809a31.13,31.13,0,0,0,9.55,22.91,32.237,32.237,0,0,0,22.892,9.346,32.52,32.52,0,0,0,32.292-32.256v-53.809Z" fill="#fff"/>
    </g>
  </g>
</svg>
