<svg xmlns="http://www.w3.org/2000/svg" viewBox="0 0 305 164.81"><defs><style>.cls-1{isolation:isolate;}.cls-2{fill:#82d0eb;}.cls-2,.cls-3,.cls-4,.cls-5{mix-blend-mode:multiply;}.cls-3{fill:#fff100;}.cls-4{fill:#ffe700;}.cls-5{fill:#ee8622;}.cls-6{fill:#26a5de;}</style></defs><title>Untitled-2</title><g class="cls-1"><g id="Layer_1" data-name="Layer 1"><path class="cls-2" d="M147,70.18s27.47-13.63,53.47-2.44c11,4.75,23-7.3,48.07-7.3,28.45,0,54.94,9.7,54.94,9.7h0s-28.94,9.78-54.94,9.78c-28,0-27.13-15.86-48.07-6.82C172,85.39,147,70.21,147,70.21Z" transform="translate(1.5 -30)"/><path class="cls-3" d="M155.35,70.17s-41.43,5-67.37,13.16C60.15,92,19.93,70.08,19.93,70.08v.09s39.82-1.44,67.8-9.56c32.4-9.4,67.62,9.56,67.62,9.56Z" transform="translate(1.5 -30)"/><path class="cls-4" d="M183.88,70.09s-18.09,3.6-29.67,28.78C142.09,125.22,113,70.05,113,70.05v0s21.9-9.32,34.84-33.68c13.47-25.37,36,33.76,36,33.76Z" transform="translate(1.5 -30)"/><path class="cls-3" d="M117.32,71.42s39.83-3,64.31-11.09C207.89,51.62,245,70.17,245,70.17h.09s-36.79,4.76-63.18,12.88c-30.58,9.4-64.55-10.79-64.55-10.79Z" transform="translate(1.5 -30)"/><path class="cls-5" d="M91.38,70s43.18-1.57,67.91-8.9c27.4-8.13,65.22,9.26,65.22,9.26l0,.09s-36.4,5.34-63.14,12.61c-30.88,8.38-70-13.07-70-13.07Z" transform="translate(1.5 -30)"/><path class="cls-2" d="M155.28,70.17s-27.51,13.35-53.77,2.76c-22.43-9.05-23.05,7.3-48.07,7.3C25,80.23-1.5,70-1.5,70H-1s28.45-9.25,54.45-9.25c28,0,37,11.1,48.07,6.81,28.94-11.2,53.73,2.56,53.73,2.56Z" transform="translate(1.5 -30)"/><path class="cls-6" d="M86.69,171A23.18,23.18,0,0,1,70,177.57a23.62,23.62,0,0,1-16.27-6.07A22.1,22.1,0,0,1,47,155.26V148a22,22,0,0,1,6.74-16.15,22.83,22.83,0,0,1,32.45-.08A21.77,21.77,0,0,1,93,148v6.4H52.42v.9a17,17,0,0,0,5.18,12.47A17.45,17.45,0,0,0,70,172.82a17,17,0,0,0,12.81-5.66Zm.82-22.14V148A17.67,17.67,0,0,0,70,130.49a17,17,0,0,0-12.41,5.17A16.61,16.61,0,0,0,52.42,148v.91Z" transform="translate(1.5 -30)"/><path class="cls-6" d="M139.6,125l-26.47,52.57h-5.38L93.4,125h5.8l12.28,43.67L133.64,125Z" transform="translate(1.5 -30)"/><path class="cls-6" d="M177.06,171a23.33,23.33,0,0,1-16.75,6.56A23.79,23.79,0,0,1,144,171.5a22,22,0,0,1-6.76-16.24V148A22,22,0,0,1,144,131.81a23,23,0,0,1,32.59-.08A21.72,21.72,0,0,1,183.41,148v6.4H142.65v.9a17,17,0,0,0,5.2,12.47,17.57,17.57,0,0,0,12.46,5.09,17.12,17.12,0,0,0,12.87-5.66Zm.82-22.14V148a16.59,16.59,0,0,0-5.19-12.3,16.8,16.8,0,0,0-12.38-5.17,17.08,17.08,0,0,0-12.46,5.17,16.6,16.6,0,0,0-5.2,12.3v.91Z" transform="translate(1.5 -30)"/><path class="cls-6" d="M237,125v47q0,8.82-7,15.8a23.45,23.45,0,0,1-33.77-.42l3.95-3.95a17.65,17.65,0,0,0,13.23,5.71,17.08,17.08,0,0,0,12.63-5.29A16,16,0,0,0,231.36,172v-1.85a20.32,20.32,0,0,1-7.92,5.76,26.28,26.28,0,0,1-10,1.89,24.23,24.23,0,0,1-16.68-6.22,22.63,22.63,0,0,1-6.9-16.63V125h5.55v30a17.37,17.37,0,0,0,5.31,12.77A17.9,17.9,0,0,0,213.42,173a18.11,18.11,0,0,0,17.94-18V125Z" transform="translate(1.5 -30)"/></g></g></svg>