<svg xmlns="http://www.w3.org/2000/svg" xmlns:xlink="http://www.w3.org/1999/xlink" width="613" height="240" viewBox="0 0 613 240">
  <defs>
    <clipPath id="clip-logo">
      <rect width="613" height="240"/>
    </clipPath>
  </defs>
  <g id="logo" clip-path="url(#clip-logo)">
    <g id="logo-2" data-name="logo" transform="translate(-294.497 -902.956)">
      <path id="Path_7" data-name="Path 7" d="M159.62,255.443a65.77,65.77,0,0,1-47.356,18.641A67.018,67.018,0,0,1,66.1,256.862a62.706,62.706,0,0,1-19.1-46.079v-20.6a62.422,62.422,0,0,1,19.124-45.823,64.777,64.777,0,0,1,92.072-.227,61.77,61.77,0,0,1,19.322,46.05v18.159H62.384V210.9a48.235,48.235,0,0,0,14.7,35.382,49.511,49.511,0,0,0,35.183,14.329,48.235,48.235,0,0,0,36.347-16.06Zm2.327-62.819v-2.44A50.136,50.136,0,0,0,112.265,140.5a48.235,48.235,0,0,0-35.212,14.669,47.128,47.128,0,0,0-14.669,35.013v2.582Z" transform="translate(274.5 795.031)" fill="#1975b8"/>
      <path id="Path_8" data-name="Path 8" d="M224.486,125l-75.1,149.16H134.116L93.4,125h16.457L144.7,248.908,207.575,125Z" transform="translate(366.028 794.956)" fill="#1975b8"/>
      <path id="Path_9" data-name="Path 9" d="M250.229,255.515A66.2,66.2,0,0,1,202.7,274.129a67.5,67.5,0,0,1-46.277-17.194,62.422,62.422,0,0,1-19.18-46.079v-20.6a62.422,62.422,0,0,1,19.181-45.937,65.26,65.26,0,0,1,92.47-.227,61.628,61.628,0,0,1,19.351,46.164v18.159H152.6v2.554a48.235,48.235,0,0,0,14.754,35.382A49.853,49.853,0,0,0,202.7,260.793a48.575,48.575,0,0,0,36.517-16.059Zm2.327-62.819v-2.44a47.073,47.073,0,0,0-14.726-34.9A47.667,47.667,0,0,0,202.7,140.687a48.462,48.462,0,0,0-35.354,14.669,47.1,47.1,0,0,0-14.754,34.9v2.582Z" transform="translate(452.493 794.959)" fill="#1975b8"/>
      <path id="Path_10" data-name="Path 10" d="M323.618,125V263.162q0,25.927-19.862,46.446a64.944,64.944,0,0,1-95.818-1.235l11.207-11.612a49.28,49.28,0,0,0,37.538,16.785A47.646,47.646,0,0,0,292.521,298a47.8,47.8,0,0,0,15.095-34.835v-5.438a57.8,57.8,0,0,1-22.472,16.932,72.29,72.29,0,0,1-28.374,5.556,64.761,64.761,0,0,1-66.905-67.17V125h15.747v88.188a52,52,0,0,0,15.066,37.539A49.9,49.9,0,0,0,256.714,266.1c28.069-.273,50.733-23.832,50.9-52.913V125Z" transform="translate(556.413 794.956)" fill="#1975b8"/>
    </g>
  </g>
</svg>
