<svg xmlns="http://www.w3.org/2000/svg" width="147.832" height="54.144" viewBox="0 0 147.832 54.144">
  <g id="Group_4" data-name="Group 4" transform="translate(-912 -412)">
    <g id="Group_3" data-name="Group 3" transform="translate(912 412)">
      <g id="Group_2" data-name="Group 2">
        <g id="Group_1" data-name="Group 1">
          <g id="Group_1-2" data-name="Group 1">
            <path id="Path_1" data-name="Path 1" d="M5818.876,5944.411a18.049,18.049,0,0,1-12.979,5.089,18.433,18.433,0,0,1-12.658-4.707A17.118,17.118,0,0,1,5788,5932.2v-5.663a17.042,17.042,0,0,1,5.242-12.53,17.814,17.814,0,0,1,25.253-.063,16.879,16.879,0,0,1,5.306,12.593v4.961h-31.582v.7a13.142,13.142,0,0,0,4.028,9.669,13.59,13.59,0,0,0,9.653,3.944,13.251,13.251,0,0,0,9.973-4.389Zm.639-17.174v-.7a12.863,12.863,0,0,0-4.027-9.541,13,13,0,0,0-9.59-4.007,13.2,13.2,0,0,0-9.653,4.007,12.865,12.865,0,0,0-4.027,9.542v.7Z" transform="translate(-5787.995 -5908.726)" fill="#1975b8"/>
            <path id="Path_2" data-name="Path 2" d="M5907.466,5908.729l-20.594,40.772h-4.186l-11.17-40.772h4.513l9.553,33.869,17.242-33.869Z" transform="translate(-5835.414 -5908.728)" fill="#1975b8"/>
            <path id="Path_3" data-name="Path 3" d="M5981.377,5944.411a18.164,18.164,0,0,1-13.032,5.089,18.549,18.549,0,0,1-12.71-4.707,17.079,17.079,0,0,1-5.265-12.595v-5.663a17.009,17.009,0,0,1,5.265-12.531,17.941,17.941,0,0,1,25.358-.062,16.847,16.847,0,0,1,5.328,12.594v4.961h-31.714v.7a13.117,13.117,0,0,0,4.044,9.669,13.679,13.679,0,0,0,9.694,3.944,13.336,13.336,0,0,0,10.015-4.389Zm.642-17.174v-.7a12.838,12.838,0,0,0-4.044-9.541,13.076,13.076,0,0,0-9.63-4.007,13.284,13.284,0,0,0-9.694,4.007,12.844,12.844,0,0,0-4.044,9.541v.7Z" transform="translate(-5880.182 -5908.726)" fill="#1975b8"/>
            <path id="Path_4" data-name="Path 4" d="M6081.8,5908.727v36.484a16.849,16.849,0,0,1-5.438,12.249,18.287,18.287,0,0,1-26.278-.325l3.081-3.063a13.749,13.749,0,0,0,10.288,4.43,13.319,13.319,0,0,0,9.83-4.106,12.4,12.4,0,0,0,4.128-9.186v-1.434a15.829,15.829,0,0,1-6.159,4.463,20.508,20.508,0,0,1-7.8,1.467,18.9,18.9,0,0,1-12.975-4.821,17.523,17.523,0,0,1-5.374-12.9v-23.259h4.322v23.259a13.455,13.455,0,0,0,4.128,9.9,14.01,14.01,0,0,0,23.854-9.9v-23.259Z" transform="translate(-5933.965 -5908.726)" fill="#1975b8"/>
          </g>
        </g>
      </g>
    </g>
  </g>
</svg>
