<svg xmlns="http://www.w3.org/2000/svg" width="20" height="20" viewBox="0 0 20 20">
  <g id="Group_92" data-name="Group 92" transform="translate(177 -554)">
    <rect id="Rectangle_25" data-name="Rectangle 25" width="20" height="20" transform="translate(-177 554)" fill="#fff" opacity="0"/>
    <g id="Group_91" data-name="Group 91" transform="translate(-175.401 555.599)">
      <g id="Group_22" data-name="Group 22">
        <ellipse id="Ellipse_13" data-name="Ellipse 13" cx="8.046" cy="8.046" rx="8.046" ry="8.046" transform="translate(0.454 0.454)" fill="none" stroke="#000" stroke-width="0.6"/>
        <path id="Path_24" data-name="Path 24" d="M11.1,571a8.5,8.5,0,1,1,8.5-8.5A8.509,8.509,0,0,1,11.1,571Zm0-16.081a7.581,7.581,0,1,0,7.581,7.581A7.589,7.589,0,0,0,11.1,554.919Z" transform="translate(-2.602 -554)" stroke="#000" stroke-width="0.6"/>
      </g>
      <g id="Group_26" data-name="Group 26" transform="translate(3.122 6.054)">
        <g id="Group_23" data-name="Group 23" transform="translate(0 0.088)">
          <path id="Path_25" data-name="Path 25" d="M12.944,570.942h-.589l-1.636-3.6v3.6h-.531V566.38h.592l1.643,3.57v-3.57h.52Z" transform="translate(-10.112 -566.303)" stroke="#000" stroke-width="0.6"/>
          <path id="Path_26" data-name="Path 26" d="M12.976,570.974h-.715l-1.51-3.323v3.323h-.684v-4.716h.718l1.516,3.295v-3.295h.675Zm-.616-.154h.462v-4.408h-.367v3.844l-1.769-3.844h-.465v4.408H10.6v-3.88Z" transform="translate(-10.067 -566.258)" stroke="#000" stroke-width="0.6"/>
        </g>
        <g id="Group_24" data-name="Group 24" transform="translate(4.194 0.088)">
          <path id="Path_27" data-name="Path 27" d="M19.263,566.843H17.375v1.491H19.1v.462h-1.72v2.147h-.53V566.38h2.418Z" transform="translate(-16.768 -566.303)" stroke="#000" stroke-width="0.6"/>
          <path id="Path_28" data-name="Path 28" d="M17.407,570.974h-.684v-4.716H19.3v.616H17.407v1.336h1.72v.616h-1.72Zm-.53-.154h.376v-2.147h1.72v-.308h-1.72v-1.645h1.889v-.309H16.877Z" transform="translate(-16.723 -566.258)" stroke="#000" stroke-width="0.6"/>
        </g>
        <g id="Group_25" data-name="Group 25" transform="translate(7.533)">
          <path id="Path_29" data-name="Path 29" d="M25.2,570.607a2.132,2.132,0,0,1-1.245.372,1.586,1.586,0,0,1-1.347-.608,2.869,2.869,0,0,1-.461-1.759,2.966,2.966,0,0,1,.447-1.741,1.556,1.556,0,0,1,1.361-.629,2.581,2.581,0,0,1,.653.084,1.609,1.609,0,0,1,.521.223l-.175.417a1.985,1.985,0,0,0-1-.259,1.052,1.052,0,0,0-.938.457,2.655,2.655,0,0,0-.308,1.447q0,1.9,1.245,1.9a2.136,2.136,0,0,0,1.08-.323Z" transform="translate(-22.066 -566.164)" stroke="#000" stroke-width="0.6"/>
          <path id="Path_30" data-name="Path 30" d="M23.906,571.01a1.667,1.667,0,0,1-1.408-.638,2.957,2.957,0,0,1-.476-1.805,3.054,3.054,0,0,1,.461-1.786,1.637,1.637,0,0,1,1.424-.662,2.673,2.673,0,0,1,.672.087,1.682,1.682,0,0,1,.546.234l.05.036-.232.554-.076-.043a1.919,1.919,0,0,0-.961-.248.972.972,0,0,0-.874.423,2.6,2.6,0,0,0-.294,1.4c0,1.227.382,1.824,1.168,1.824a2.063,2.063,0,0,0,1.041-.313l.078-.045.22.558-.05.035A2.217,2.217,0,0,1,23.906,571.01Zm0-4.737a1.472,1.472,0,0,0-1.3.6,2.909,2.909,0,0,0-.432,1.7,2.812,2.812,0,0,0,.446,1.712,1.5,1.5,0,0,0,1.285.578,2.072,2.072,0,0,0,1.15-.324l-.109-.277a2.175,2.175,0,0,1-1.041.29c-.877,0-1.322-.665-1.322-1.978a2.739,2.739,0,0,1,.32-1.49,1.131,1.131,0,0,1,1-.491,2.087,2.087,0,0,1,.961.227l.117-.28a1.675,1.675,0,0,0-.444-.178A2.517,2.517,0,0,0,23.906,566.273Z" transform="translate(-22.021 -566.119)" stroke="#000" stroke-width="0.6"/>
        </g>
      </g>
    </g>
  </g>
</svg>
