<svg xmlns="http://www.w3.org/2000/svg" width="182.148" height="182.148" viewBox="0 0 182.148 182.148">
  <g id="Group_7" data-name="Group 7" transform="translate(-1033.418 805.581)">
    <g id="Group_3" data-name="Group 3" transform="translate(1033.419 -805.581)">
      <path id="Path_124" data-name="Path 124" d="M240.147,535.074A91.074,91.074,0,1,1,149.073,444a91.074,91.074,0,0,1,91.074,91.074Zm-91.074-70.867a70.867,70.867,0,1,0,70.867,70.867,70.867,70.867,0,0,0-70.867-70.867Z" transform="translate(-58 -444)" fill="#ef4036"/>
    </g>
    <g id="Group_1" data-name="Group 1" transform="translate(1044.883 -796.391)">
      <circle id="Ellipse_28" data-name="Ellipse 28" cx="79.808" cy="79.808" r="79.808" transform="translate(0 0)" fill="#ef4036"/>
    </g>
    <g id="Group_6" data-name="Group 6" transform="translate(1077.847 -761.153)">
      <g id="clear">
        <path id="Path_126" data-name="Path 126" d="M92.989,9.3,83.691,0l-37.2,37.2L9.3,0,0,9.3,37.2,46.5,0,83.691l9.3,9.3,37.2-37.2,37.2,37.2,9.3-9.3-37.2-37.2Z" fill="#fff"/>
      </g>
    </g>
  </g>
</svg>
