<svg id="Layer_1" data-name="Layer 1" xmlns="http://www.w3.org/2000/svg" xmlns:xlink="http://www.w3.org/1999/xlink" viewBox="0 0 30 30"><defs><style>.cls-1{fill:#1d76bb;}.cls-2{clip-path:url(#clip-path);}.cls-3{fill:#fff;}</style><clipPath id="clip-path"><circle class="cls-1" cx="15" cy="18" r="11"/></clipPath></defs><circle class="cls-1" cx="15" cy="18" r="11"/><g class="cls-2"><path class="cls-1" d="M26.13,18A11.15,11.15,0,0,0,16.93,7,10.9,10.9,0,0,0,13,7a11.12,11.12,0,0,0-6,18.7L4.89,29.3l.89.66L8.53,27a11.13,11.13,0,0,0,13,0l2.77,2.94.88-.67L23,25.69A11.08,11.08,0,0,0,26.13,18Z"/><path class="cls-1" d="M23.94,18A8.94,8.94,0,1,1,15,9,8.94,8.94,0,0,1,23.94,18Z"/></g><path class="cls-3" d="M14.74,19.23a.84.84,0,0,1-.43-.11l-3.45-2a.85.85,0,0,1,.86-1.46l3.45,2a.85.85,0,0,1,.3,1.16A.86.86,0,0,1,14.74,19.23Z"/><path class="cls-3" d="M14.79,19.15a.82.82,0,0,1-.43-.12.84.84,0,0,1-.3-1.16l3.63-6.09a.84.84,0,1,1,1.45.86l-3.62,6.1A.86.86,0,0,1,14.79,19.15Z"/></svg>