<?xml version="1.0" encoding="utf-8"?>
<!-- Generator: Adobe Illustrator 24.3.0, SVG Export Plug-In . SVG Version: 6.00 Build 0)  -->
<svg version="1.1" id="Layer_1" xmlns="http://www.w3.org/2000/svg" xmlns:xlink="http://www.w3.org/1999/xlink" x="0px" y="0px"
	 viewBox="0 0 30 30" style="enable-background:new 0 0 30 30;" xml:space="preserve">
<style type="text/css">
	.st0{fill:#FFFFFF;}
	.st1{fill:#0776BD;}
	.st2{fill:#1D76BB;}
	
		.st3{clip-path:url(#SVGID_2_);fill:none;stroke:#2C3D66;stroke-width:2;stroke-linecap:round;stroke-linejoin:round;stroke-miterlimit:10;}
	.st4{fill:none;stroke:#EF4036;stroke-miterlimit:10;}
	.st5{clip-path:url(#SVGID_4_);fill:#1D76BB;}
	.st6{fill:none;stroke:#FFFFFF;stroke-width:2;stroke-linecap:round;stroke-miterlimit:10;}
	.st7{fill:#3DB54A;}
	.st8{fill:#A0CC3A;}
	.st9{fill:#28A6DF;}
	.st10{fill:#F8951D;}
	.st11{fill:#81D0EC;}
	.st12{fill:#1D76BB;stroke:#1D76BB;stroke-width:0.75;stroke-miterlimit:10;}
	.st13{fill-rule:evenodd;clip-rule:evenodd;fill:#3DB54A;}
	.st14{clip-path:url(#SVGID_6_);fill-rule:evenodd;clip-rule:evenodd;fill:#3DB54A;}
	.st15{fill:#EF4136;stroke:#EF4136;stroke-miterlimit:10;}
	.st16{fill-rule:evenodd;clip-rule:evenodd;fill:#EF4136;}
	.st17{fill:#EF4036;}
	.st18{fill:#EF4136;}
	.st19{clip-path:url(#SVGID_8_);fill:#1D76BB;}
	.st20{clip-path:url(#SVGID_10_);fill:#1D76BB;}
	.st21{fill:#1D76BB;stroke:#EF4136;stroke-miterlimit:10;}
	.st22{fill-rule:evenodd;clip-rule:evenodd;fill:#1D76BB;}
	.st23{fill:#A0CC3A;stroke:#A0CC3A;stroke-miterlimit:10;}
	.st24{fill:#FFFBF3;stroke:#FFCD05;stroke-miterlimit:10;}
	.st25{fill:#FFCD05;}
	.st26{fill:#FFFBF3;stroke:#ED1C24;stroke-miterlimit:10;}
	.st27{fill:#ED1C24;}
	.st28{fill:#FFFFFF;stroke:#FFFFFF;stroke-width:1.25;stroke-linecap:round;stroke-linejoin:round;stroke-miterlimit:10;}
	.st29{fill:#FAE900;}
	.st30{fill:#FBB040;}
	.st31{clip-path:url(#SVGID_12_);fill:#1D76BB;}
	.st32{clip-path:url(#SVGID_12_);}
	.st33{fill:none;stroke:#1D76BB;stroke-width:2.25;stroke-linecap:round;stroke-miterlimit:10;}
	.st34{fill:#81D0EC;stroke:#FFFFFF;stroke-width:2;stroke-miterlimit:10;}
	.st35{fill:#F8951D;stroke:#F8951D;stroke-width:1.25;stroke-linecap:round;stroke-linejoin:round;stroke-miterlimit:10;}
	.st36{fill:#FFCD05;stroke:#FFCD05;stroke-width:1.25;stroke-linecap:round;stroke-linejoin:round;stroke-miterlimit:10;}
	.st37{fill:#81D0EC;stroke:#81D0EC;stroke-width:0.25;stroke-miterlimit:10;}
	.st38{fill:#333333;stroke:#000000;stroke-width:0.25;stroke-miterlimit:10;}
	.st39{fill-rule:evenodd;clip-rule:evenodd;fill:#010101;stroke:#FFFFFF;stroke-width:0.5;stroke-miterlimit:10;}
	.st40{fill:#414142;}
	.st41{fill-rule:evenodd;clip-rule:evenodd;fill:#414042;}
	.st42{fill:#414042;}
	.st43{fill:#58595B;}
	.st44{fill:#231F20;}
	.st45{fill:#1A75B8;}
	.st46{fill:#0C75BC;}
	.st47{fill:#595A5C;}
	.st48{fill:#1D76B8;}
	.st49{clip-path:url(#SVGID_14_);}
	.st50{fill:none;}
	.st51{clip-path:url(#SVGID_16_);fill:#1D76BB;}
	.st52{clip-path:url(#SVGID_16_);fill:#FFFFFF;}
	.st53{clip-path:url(#SVGID_18_);fill:#EF4036;}
	.st54{clip-path:url(#SVGID_18_);fill:#FFFFFF;}
	.st55{clip-path:url(#SVGID_20_);fill:#1D76BB;}
	.st56{clip-path:url(#SVGID_20_);}
	.st57{fill:none;stroke:#ED1C24;stroke-width:2;stroke-miterlimit:10;}
	.st58{fill:#85CFEB;}
	.st59{fill:#99C63E;}
	.st60{fill:#0864AF;}
	.st61{fill:#1E76B7;}
	.st62{fill:#0976BC;}
	
		.st63{clip-path:url(#SVGID_22_);fill:none;stroke:#000000;stroke-width:2;stroke-linecap:round;stroke-linejoin:round;stroke-miterlimit:10;}
	.st64{fill:#1A75B8;stroke:#1A75B8;stroke-width:0.5;stroke-miterlimit:10;}
	.st65{fill:#FFFFFF;stroke:#1D76BB;stroke-width:0.5;stroke-miterlimit:10;}
	.st66{fill:#1A75B8;stroke:#1D76BB;stroke-width:0.5;stroke-miterlimit:10;}
	.st67{clip-path:url(#SVGID_24_);fill:#1A75B8;}
	.st68{clip-path:url(#SVGID_26_);fill:#FEDD0E;}
	.st69{fill:none;stroke:#FFDE17;stroke-width:3;stroke-miterlimit:10;}
	.st70{fill:#FEDD0E;}
	.st71{clip-path:url(#SVGID_28_);fill:#FEDD0E;}
	.st72{clip-path:url(#SVGID_30_);fill:#FEDD0E;}
	.st73{clip-path:url(#SVGID_32_);fill:#EF4036;}
	.st74{fill:#EF4036;stroke:#EF4036;stroke-width:0.5;stroke-miterlimit:10;}
	.st75{clip-path:url(#SVGID_34_);}
	.st76{fill:#28A5DE;}
	.st77{fill:#343433;}
	.st78{clip-path:url(#SVGID_36_);}
	.st79{fill:#1A75B8;stroke:#1A75B8;stroke-miterlimit:10;}
	.st80{fill:none;stroke:#81D0EC;stroke-width:2;stroke-linecap:round;stroke-miterlimit:10;}
	.st81{fill:none;stroke:#1A75B8;stroke-width:2;stroke-linecap:round;stroke-miterlimit:10;}
	.st82{fill:#1D76BB;stroke:#1D76BB;stroke-linecap:round;stroke-linejoin:round;stroke-miterlimit:10;}
	.st83{fill:none;stroke:#1D76BB;stroke-width:2;stroke-linecap:round;stroke-miterlimit:10;}
	.st84{fill:#EF4136;stroke:#81D0EC;stroke-miterlimit:10;}
	.st85{clip-path:url(#SVGID_38_);}
	.st86{clip-path:url(#SVGID_38_);fill:#FFFFFF;}
	.st87{clip-path:url(#SVGID_40_);}
	.st88{clip-path:url(#SVGID_42_);fill:#28A5DE;}
	.st89{fill:none;stroke:#81D0EC;stroke-linecap:round;stroke-miterlimit:10;}
	.st90{fill:none;stroke:#81D0EC;stroke-linecap:round;stroke-miterlimit:10;stroke-dasharray:1.8371,1.8371;}
	.st91{clip-path:url(#SVGID_44_);fill:#1D76BB;}
	.st92{clip-path:url(#SVGID_44_);fill:#81D0EC;}
	.st93{fill-rule:evenodd;clip-rule:evenodd;}
	.st94{fill-rule:evenodd;clip-rule:evenodd;fill:#28A5DE;}
	.st95{fill-rule:evenodd;clip-rule:evenodd;fill:#FFFFFF;}
	.st96{fill-rule:evenodd;clip-rule:evenodd;fill:#28A6DF;}
	.st97{fill:none;stroke:#FFFFFF;stroke-width:1.5;stroke-linecap:round;stroke-miterlimit:10;}
	.st98{fill:none;stroke:#2C3D66;stroke-width:2;stroke-linecap:round;stroke-linejoin:round;stroke-miterlimit:10;}
	.st99{fill:#FFFFFF;stroke:#28A6DF;stroke-linecap:round;stroke-linejoin:round;stroke-miterlimit:10;}
	.st100{clip-path:url(#SVGID_46_);fill:#EF4036;}
	.st101{fill:#EF4136;stroke:#FFFFFF;stroke-miterlimit:10;}
	.st102{fill:#EF4136;stroke:#FFFFFF;stroke-width:2;stroke-miterlimit:10;}
	.st103{fill:#EF4136;stroke:#FFFFFF;stroke-width:0.5;stroke-miterlimit:10;}
	.st104{clip-path:url(#SVGID_48_);}
	.st105{clip-path:url(#SVGID_48_);fill:#FFFFFF;}
	.st106{fill:#E7EEF8;}
	.st107{fill:#E43450;}
	.st108{fill:#28A5DE;stroke:#28A5DE;stroke-miterlimit:10;}
	.st109{fill:#1D76BB;stroke:#1D76BB;stroke-miterlimit:10;}
	.st110{stroke:#1D76BB;stroke-miterlimit:10;}
	.st111{fill:#EF4036;stroke:#EF4136;stroke-miterlimit:10;}
	.st112{fill-rule:evenodd;clip-rule:evenodd;fill:#EF4036;}
	.st113{fill:#3CB54A;}
	.st114{fill:#FCEE22;}
	.st115{fill:none;stroke:#EF4036;stroke-width:1.5;stroke-linecap:round;stroke-miterlimit:10;}
	.st116{fill:none;stroke:#28A6DF;stroke-width:1.5;stroke-linecap:round;stroke-miterlimit:10;}
	.st117{fill:#1B76B7;}
	.st118{fill:#1B76BA;}
	.st119{fill:none;stroke:#F8951D;stroke-width:1.5;stroke-linecap:round;stroke-miterlimit:10;}
	.st120{clip-path:url(#SVGID_50_);fill:#1D76BB;}
	.st121{clip-path:url(#SVGID_52_);fill:#FFFFFF;}
	.st122{fill:#BDBEC0;}
	.st123{clip-path:url(#SVGID_54_);fill:#EF4136;}
	.st124{fill-rule:evenodd;clip-rule:evenodd;fill:#1B76BA;}
	.st125{fill:#BCBEC0;}
</style>
<g id="Virus_14_">
	<g id="virus_15_" transform="translate(46.769 46.77)">
		<path id="Path_1031_14_" class="st48" d="M-31.9-38.4c-4.5,0-8.2,3.7-8.2,8.2s3.7,8.2,8.2,8.2s8.2-3.7,8.2-8.2
			S-27.4-38.4-31.9-38.4z M-37.4-29.5c-0.4,0-0.7-0.3-0.7-0.7c0-0.4,0.3-0.7,0.7-0.7s0.7,0.3,0.7,0.7C-36.7-29.9-37-29.5-37.4-29.5z
			 M-35.8-25.6c-0.4,0-0.7-0.3-0.7-0.7c0-0.4,0.3-0.7,0.7-0.7c0.4,0,0.7,0.3,0.7,0.7C-35.1-25.9-35.4-25.6-35.8-25.6z M-35.8-33.5
			c-0.4,0-0.7-0.3-0.7-0.7c0-0.4,0.3-0.7,0.7-0.7c0.4,0,0.7,0.3,0.7,0.7C-35.1-33.8-35.4-33.5-35.8-33.5z M-33.4-27.9
			c-0.4,0-0.7-0.3-0.7-0.7c0-0.4,0.3-0.7,0.7-0.7c0.4,0,0.7,0.3,0.7,0.7C-32.7-28.3-33-27.9-33.4-27.9L-33.4-27.9z M-33.4-31.1
			c-0.4,0-0.7-0.3-0.7-0.7s0.3-0.7,0.7-0.7c0.4,0,0.7,0.3,0.7,0.7C-32.7-31.5-33-31.1-33.4-31.1L-33.4-31.1z M-31.9-24
			c-0.4,0-0.7-0.3-0.7-0.7c0-0.4,0.3-0.7,0.7-0.7c0.4,0,0.7,0.3,0.7,0.7C-31.1-24.3-31.4-24-31.9-24L-31.9-24z M-31.9-35.1
			c-0.4,0-0.7-0.3-0.7-0.7s0.3-0.7,0.7-0.7c0.4,0,0.7,0.3,0.7,0.7C-31.1-35.4-31.4-35.1-31.9-35.1L-31.9-35.1z M-30.3-27.9
			c-0.4,0-0.7-0.3-0.7-0.7c0-0.4,0.3-0.7,0.7-0.7c0.4,0,0.7,0.3,0.7,0.7l0,0C-29.5-28.3-29.9-27.9-30.3-27.9L-30.3-27.9z
			 M-30.3-31.1c-0.4,0-0.7-0.3-0.7-0.7c0-0.4,0.3-0.7,0.7-0.7c0.4,0,0.7,0.3,0.7,0.7l0,0C-29.5-31.5-29.9-31.1-30.3-31.1L-30.3-31.1
			z M-27.9-25.6c-0.4,0-0.7-0.3-0.7-0.7s0.3-0.7,0.7-0.7s0.7,0.3,0.7,0.7C-27.2-25.9-27.5-25.6-27.9-25.6L-27.9-25.6z M-27.9-33.5
			c-0.4,0-0.7-0.3-0.7-0.7s0.3-0.7,0.7-0.7s0.7,0.3,0.7,0.7C-27.2-33.8-27.5-33.5-27.9-33.5L-27.9-33.5z M-26.3-29.5
			c-0.4,0-0.7-0.3-0.7-0.7c0-0.4,0.3-0.7,0.7-0.7s0.7,0.3,0.7,0.7C-25.5-29.9-25.9-29.5-26.3-29.5L-26.3-29.5z"/>
		<path id="Path_1032_10_" class="st48" d="M-35.5-41L-35.5-41l0.5,1.6c0.4-0.2,0.9-0.3,1.4-0.4l-0.4-1.6l0.1,0
			c0.4-0.1,0.6-0.5,0.5-0.9c-0.1-0.4-0.5-0.6-0.9-0.5l-1.5,0.4c-0.4,0.1-0.6,0.5-0.5,0.9C-36.3-41.1-35.9-40.9-35.5-41z"/>
		<path id="Path_1033_10_" class="st48" d="M-40.5-37.8L-40.5-37.8l1.3,1.2c0.3-0.4,0.6-0.7,1-1l-1.2-1.2l0,0c0.3-0.3,0.3-0.7,0-1
			c-0.3-0.3-0.7-0.3-1,0l-1.1,1.1c-0.3,0.3-0.3,0.7,0,1C-41.2-37.5-40.8-37.5-40.5-37.8z"/>
		<path id="Path_1034_10_" class="st48" d="M-43.8-31.9c0.4,0.1,0.8-0.1,0.9-0.5l0,0l0-0.1l1.6,0.4c0.1-0.5,0.2-0.9,0.4-1.4
			l-1.6-0.4l0-0.1c0.1-0.4-0.1-0.8-0.5-0.9c-0.4-0.1-0.8,0.1-0.9,0.5l-0.4,1.5C-44.4-32.4-44.2-32-43.8-31.9L-43.8-31.9L-43.8-31.9z
			"/>
		<path id="Path_1035_10_" class="st48" d="M-42.6-26.7l1.6-0.4c-0.2-0.4-0.3-0.9-0.4-1.4l-1.6,0.4l0-0.1c-0.1-0.4-0.5-0.6-0.9-0.5
			c-0.4,0.1-0.6,0.5-0.5,0.9c0,0,0,0,0,0l0.4,1.5c0.1,0.4,0.5,0.6,0.9,0.5C-42.7-25.8-42.5-26.2-42.6-26.7
			C-42.6-26.6-42.6-26.6-42.6-26.7L-42.6-26.7z"/>
		<path id="Path_1036_10_" class="st48" d="M-39.2-23.9l-1.2,1.2l0,0c-0.3-0.3-0.7-0.3-1,0c-0.3,0.3-0.3,0.7,0,1l1.1,1.1
			c0.3,0.3,0.7,0.3,1,0c0.3-0.3,0.3-0.7,0-1l0,0l1.2-1.2C-38.6-23.2-38.9-23.6-39.2-23.9z"/>
		<path id="Path_1037_10_" class="st48" d="M-34-19.2L-34-19.2l0.4-1.7c-0.5-0.1-0.9-0.2-1.4-0.4l-0.4,1.6l-0.1,0
			c-0.4-0.1-0.8,0.1-0.9,0.5c-0.1,0.4,0.1,0.8,0.5,0.9l1.5,0.4c0.4,0.1,0.8-0.1,0.9-0.5C-33.4-18.7-33.7-19.1-34-19.2L-34-19.2z"/>
		<path id="Path_1038_10_" class="st48" d="M-28.2-19.6L-28.2-19.6l-0.5-1.6c-0.4,0.2-0.9,0.3-1.4,0.4l0.4,1.6l-0.1,0
			c-0.4,0.1-0.6,0.5-0.5,0.9c0.1,0.4,0.5,0.6,0.9,0.5c0,0,0,0,0,0l1.5-0.4c0.4-0.1,0.6-0.5,0.5-0.9C-27.4-19.4-27.8-19.7-28.2-19.6
			L-28.2-19.6z"/>
		<path id="Path_1039_10_" class="st48" d="M-23.2-22.8L-23.2-22.8l-1.3-1.2c-0.3,0.4-0.6,0.7-1,1l1.2,1.2l0,0c-0.3,0.3-0.3,0.7,0,1
			c0.3,0.3,0.7,0.3,1,0l1.1-1.1c0.3-0.3,0.3-0.7,0-1C-22.5-23-23-23-23.2-22.8z"/>
		<path id="Path_1040_10_" class="st48" d="M-19.9-28.6c-0.4-0.1-0.8,0.1-0.9,0.5l0,0l0,0.1l-1.6-0.4c-0.1,0.5-0.2,0.9-0.4,1.4
			l1.6,0.4l0,0.1c-0.1,0.4,0.1,0.8,0.5,0.9c0.4,0.1,0.8-0.1,0.9-0.5l0.4-1.5C-19.3-28.1-19.5-28.5-19.9-28.6z"/>
		<path id="Path_1041_10_" class="st48" d="M-21.1-33.9l-1.6,0.4c0.2,0.4,0.3,0.9,0.4,1.4l1.6-0.4l0,0.1c0.1,0.4,0.5,0.6,0.9,0.5
			c0.4-0.1,0.6-0.5,0.5-0.9l-0.4-1.5c-0.1-0.4-0.5-0.6-0.9-0.5C-21-34.7-21.3-34.3-21.1-33.9C-21.2-34-21.2-33.9-21.1-33.9
			L-21.1-33.9z"/>
		<path id="Path_1042_10_" class="st48" d="M-24.5-36.6l1.2-1.2l0,0c0.3,0.3,0.7,0.3,1,0c0.3-0.3,0.3-0.7,0-1l-1.1-1.1
			c-0.3-0.3-0.7-0.3-1,0c-0.3,0.3-0.3,0.7,0,1l0,0l-1.2,1.2C-25.1-37.3-24.8-37-24.5-36.6z"/>
		<path id="Path_1043_10_" class="st48" d="M-29.7-41.4L-29.7-41.4l-0.4,1.7c0.5,0.1,0.9,0.2,1.4,0.4l0.4-1.6l0.1,0
			c0.4,0.1,0.8-0.1,0.9-0.5c0.1-0.4-0.1-0.8-0.5-0.9l-1.5-0.4c-0.4-0.1-0.8,0.1-0.9,0.5C-30.3-41.9-30.1-41.5-29.7-41.4L-29.7-41.4z
			"/>
	</g>
</g>
</svg>
